<svg width="477" height="128" viewBox="0 0 477 128" fill="none" xmlns="http://www.w3.org/2000/svg">
<path d="M27.7682 28.1484C118.492 11.8112 211.756 2.17462 305.331 6.23988C346.005 7.99868 392.337 9.75693 430.684 22.6502C448.876 28.7756 467.203 38.9553 469.598 56.2724C472.62 78.2295 448.291 93.9137 427.097 102.62C352.801 133.131 255.804 123.857 174.85 117.552C130.28 114.077 85.4969 107.871 43.3331 94.4709C30.2279 90.3185 -3.69991 81.1186 12.0675 66.0331C20.1925 58.2422 35.4626 53.9685 46.8471 50.3267C131.663 23.0409 224.015 21.0715 314.682 27.7115C319.302 28.0502 319.654 22.1718 315.034 21.833C222.075 15.0556 126.361 17.1015 39.9138 46.4208C26.1682 51.0639 -8.42648 62.4262 2.37814 79.7842C9.08611 90.5955 28.7811 95.5754 41.2941 99.5378C64.8406 106.973 89.2753 112.175 113.944 116.001C166.533 124.127 220.507 126.158 273.738 127.372C319.699 128.398 367.035 127.251 410.297 114.153C440.726 104.95 484.53 84.0708 475.088 51.5359C467.427 25.1618 428.986 15.1045 400.851 10.5762C276.701 -9.53037 148.028 3.01828 27.4625 26.9563C26.5456 27.1485 26.8532 28.3097 27.7682 28.1484Z" fill="url(#paint0_linear_683_12325)"/>
<defs>
<linearGradient id="paint0_linear_683_12325" x1="1.82681" y1="47.8073" x2="475.501" y2="76.2033" gradientUnits="userSpaceOnUse">
<stop stop-color="#1745B3" offset="0" />
<stop offset="1" stop-color="#07CBEB"/>
</linearGradient>
</defs>
</svg>
