<svg width="164" height="134" viewBox="0 0 164 134" fill="none" xmlns="http://www.w3.org/2000/svg">
<path d="M4.61997 134C7.1715 134 9.23993 131.932 9.23993 129.38C9.23993 126.829 7.1715 124.76 4.61997 124.76C2.06843 124.76 0 126.829 0 129.38C0 131.932 2.06843 134 4.61997 134Z" fill="#1745B3" fill-opacity="0.1"/>
<path d="M35.5527 134C38.1042 134 40.1727 131.932 40.1727 129.38C40.1727 126.829 38.1042 124.76 35.5527 124.76C33.0012 124.76 30.9327 126.829 30.9327 129.38C30.9327 131.932 33.0012 134 35.5527 134Z" fill="#1745B3" fill-opacity="0.1"/>
<path d="M66.4854 134C69.037 134 71.1054 131.932 71.1054 129.38C71.1054 126.829 69.037 124.76 66.4854 124.76C63.9339 124.76 61.8655 126.829 61.8655 129.38C61.8655 131.932 63.9339 134 66.4854 134Z" fill="#1745B3" fill-opacity="0.1"/>
<path d="M97.3971 124.76C94.8351 124.76 92.7772 126.839 92.7772 129.38C92.7772 131.921 94.8561 134 97.3971 134C99.9381 134 102.017 131.921 102.017 129.38C102.017 126.839 99.9381 124.76 97.3971 124.76Z" fill="#1745B3" fill-opacity="0.1"/>
<path d="M128.33 124.76C125.768 124.76 123.71 126.839 123.71 129.38C123.71 131.921 125.789 134 128.33 134C130.871 134 132.95 131.921 132.95 129.38C132.95 126.839 130.871 124.76 128.33 124.76Z" fill="#1745B3" fill-opacity="0.1"/>
<path d="M159.263 134C161.814 134 163.883 131.932 163.883 129.38C163.883 126.829 161.814 124.76 159.263 124.76C156.711 124.76 154.643 126.829 154.643 129.38C154.643 131.932 156.711 134 159.263 134Z" fill="#1745B3" fill-opacity="0.1"/>
<path d="M4.61997 109.052C7.1715 109.052 9.23993 106.984 9.23993 104.432C9.23993 101.881 7.1715 99.8123 4.61997 99.8123C2.06843 99.8123 0 101.881 0 104.432C0 106.984 2.06843 109.052 4.61997 109.052Z" fill="#1745B3" fill-opacity="0.1"/>
<path d="M35.5527 109.052C38.1042 109.052 40.1727 106.984 40.1727 104.432C40.1727 101.881 38.1042 99.8123 35.5527 99.8123C33.0012 99.8123 30.9327 101.881 30.9327 104.432C30.9327 106.984 33.0012 109.052 35.5527 109.052Z" fill="#1745B3" fill-opacity="0.1"/>
<path d="M66.4854 109.052C69.037 109.052 71.1054 106.984 71.1054 104.432C71.1054 101.881 69.037 99.8123 66.4854 99.8123C63.9339 99.8123 61.8655 101.881 61.8655 104.432C61.8655 106.984 63.9339 109.052 66.4854 109.052Z" fill="#1745B3" fill-opacity="0.1"/>
<path d="M97.3971 99.8123C94.8351 99.8123 92.7772 101.891 92.7772 104.432C92.7772 106.973 94.8561 109.052 97.3971 109.052C99.9381 109.052 102.017 106.973 102.017 104.432C102.017 101.891 99.9381 99.8123 97.3971 99.8123Z" fill="#1745B3" fill-opacity="0.1"/>
<path d="M128.33 99.8123C125.768 99.8123 123.71 101.891 123.71 104.432C123.71 106.973 125.789 109.052 128.33 109.052C130.871 109.052 132.95 106.973 132.95 104.432C132.95 101.891 130.871 99.8123 128.33 99.8123Z" fill="#1745B3" fill-opacity="0.1"/>
<path d="M159.263 109.052C161.814 109.052 163.883 106.984 163.883 104.432C163.883 101.881 161.814 99.8123 159.263 99.8123C156.711 99.8123 154.643 101.881 154.643 104.432C154.643 106.984 156.711 109.052 159.263 109.052Z" fill="#1745B3" fill-opacity="0.1"/>
<path d="M4.61997 74.8434C2.05798 74.8434 0 76.9224 0 79.4634C0 82.0044 2.07898 84.0834 4.61997 84.0834C7.16095 84.0834 9.23993 82.0044 9.23993 79.4634C9.23993 76.9224 7.16095 74.8434 4.61997 74.8434Z" fill="#1745B3" fill-opacity="0.1"/>
<path d="M35.5527 74.8434C32.9907 74.8434 30.9327 76.9224 30.9327 79.4634C30.9327 82.0044 33.0117 84.0834 35.5527 84.0834C38.0937 84.0834 40.1727 82.0044 40.1727 79.4634C40.1727 76.9224 38.0937 74.8434 35.5527 74.8434Z" fill="#1745B3" fill-opacity="0.1"/>
<path d="M66.4854 74.8434C63.9235 74.8434 61.8655 76.9224 61.8655 79.4634C61.8655 82.0044 63.9445 84.0834 66.4854 84.0834C69.0264 84.0834 71.1054 82.0044 71.1054 79.4634C71.1054 76.9224 69.0264 74.8434 66.4854 74.8434Z" fill="#1745B3" fill-opacity="0.1"/>
<path d="M97.3971 74.8434C94.8351 74.8434 92.7772 76.9224 92.7772 79.4634C92.7772 82.0044 94.8561 84.0834 97.3971 84.0834C99.9381 84.0834 102.017 82.0044 102.017 79.4634C102.017 76.9224 99.9381 74.8434 97.3971 74.8434Z" fill="#1745B3" fill-opacity="0.1"/>
<path d="M128.33 74.8434C125.768 74.8434 123.71 76.9224 123.71 79.4634C123.71 82.0044 125.789 84.0834 128.33 84.0834C130.871 84.0834 132.95 82.0044 132.95 79.4634C132.95 76.9224 130.871 74.8434 128.33 74.8434Z" fill="#1745B3" fill-opacity="0.1"/>
<path d="M159.263 74.8434C156.701 74.8434 154.643 76.9224 154.643 79.4634C154.643 82.0044 156.722 84.0834 159.263 84.0834C161.804 84.0834 163.883 82.0044 163.883 79.4634C163.883 76.9224 161.804 74.8434 159.263 74.8434Z" fill="#1745B3" fill-opacity="0.1"/>
<path d="M4.61997 59.1566C7.1715 59.1566 9.23993 57.0882 9.23993 54.5366C9.23993 51.9851 7.1715 49.9167 4.61997 49.9167C2.06843 49.9167 0 51.9851 0 54.5366C0 57.0882 2.06843 59.1566 4.61997 59.1566Z" fill="#1745B3" fill-opacity="0.1"/>
<path d="M35.5527 59.1566C38.1042 59.1566 40.1727 57.0882 40.1727 54.5366C40.1727 51.9851 38.1042 49.9167 35.5527 49.9167C33.0012 49.9167 30.9327 51.9851 30.9327 54.5366C30.9327 57.0882 33.0012 59.1566 35.5527 59.1566Z" fill="#1745B3" fill-opacity="0.1"/>
<path d="M66.4854 59.1566C69.037 59.1566 71.1054 57.0882 71.1054 54.5366C71.1054 51.9851 69.037 49.9167 66.4854 49.9167C63.9339 49.9167 61.8655 51.9851 61.8655 54.5366C61.8655 57.0882 63.9339 59.1566 66.4854 59.1566Z" fill="#1745B3" fill-opacity="0.1"/>
<path d="M97.3971 49.8956C94.8351 49.8956 92.7772 51.9746 92.7772 54.5156C92.7772 57.0566 94.8561 59.1356 97.3971 59.1356C99.9381 59.1356 102.017 57.0566 102.017 54.5156C102.017 51.9746 99.9381 49.8956 97.3971 49.8956Z" fill="#1745B3" fill-opacity="0.1"/>
<path d="M128.33 49.8956C125.768 49.8956 123.71 51.9746 123.71 54.5156C123.71 57.0566 125.789 59.1356 128.33 59.1356C130.871 59.1356 132.95 57.0566 132.95 54.5156C132.95 51.9746 130.871 49.8956 128.33 49.8956Z" fill="#1745B3" fill-opacity="0.1"/>
<path d="M159.263 59.1566C161.814 59.1566 163.883 57.0882 163.883 54.5366C163.883 51.9851 161.814 49.9167 159.263 49.9167C156.711 49.9167 154.643 51.9851 154.643 54.5366C154.643 57.0882 156.711 59.1566 159.263 59.1566Z" fill="#1745B3" fill-opacity="0.1"/>
<path d="M4.61997 34.1877C7.1715 34.1877 9.23993 32.1193 9.23993 29.5678C9.23993 27.0162 7.1715 24.9478 4.61997 24.9478C2.06843 24.9478 0 27.0162 0 29.5678C0 32.1193 2.06843 34.1877 4.61997 34.1877Z" fill="#1745B3" fill-opacity="0.1"/>
<path d="M35.5527 34.1877C38.1042 34.1877 40.1727 32.1193 40.1727 29.5678C40.1727 27.0162 38.1042 24.9478 35.5527 24.9478C33.0012 24.9478 30.9327 27.0162 30.9327 29.5678C30.9327 32.1193 33.0012 34.1877 35.5527 34.1877Z" fill="#1745B3" fill-opacity="0.1"/>
<path d="M66.4854 34.1877C69.037 34.1877 71.1054 32.1193 71.1054 29.5678C71.1054 27.0162 69.037 24.9478 66.4854 24.9478C63.9339 24.9478 61.8655 27.0162 61.8655 29.5678C61.8655 32.1193 63.9339 34.1877 66.4854 34.1877Z" fill="#1745B3" fill-opacity="0.1"/>
<path d="M97.3971 24.9478C94.8351 24.9478 92.7772 27.0268 92.7772 29.5678C92.7772 32.1088 94.8561 34.1877 97.3971 34.1877C99.9381 34.1877 102.017 32.1088 102.017 29.5678C102.017 27.0268 99.9381 24.9478 97.3971 24.9478Z" fill="#1745B3" fill-opacity="0.1"/>
<path d="M128.33 24.9478C125.768 24.9478 123.71 27.0268 123.71 29.5678C123.71 32.1088 125.789 34.1877 128.33 34.1877C130.871 34.1877 132.95 32.1088 132.95 29.5678C132.95 27.0268 130.871 24.9478 128.33 24.9478Z" fill="#1745B3" fill-opacity="0.1"/>
<path d="M159.263 34.1877C161.814 34.1877 163.883 32.1193 163.883 29.5678C163.883 27.0162 161.814 24.9478 159.263 24.9478C156.711 24.9478 154.643 27.0162 154.643 29.5678C154.643 32.1193 156.711 34.1877 159.263 34.1877Z" fill="#1745B3" fill-opacity="0.1"/>
<path d="M4.61997 0C2.07898 0 0 2.07898 0 4.61997C0 7.16095 2.07898 9.23993 4.61997 9.23993C7.16095 9.23993 9.23993 7.16095 9.23993 4.61997C9.23993 2.07898 7.18195 0 4.61997 0Z" fill="#1745B3" fill-opacity="0.1"/>
<path d="M35.5527 0C32.9907 0 30.9327 2.07898 30.9327 4.61997C30.9327 7.16095 33.0117 9.23993 35.5527 9.23993C38.0937 9.23993 40.1727 7.16095 40.1727 4.61997C40.1727 2.07898 38.0937 0 35.5527 0Z" fill="#1745B3" fill-opacity="0.1"/>
<path d="M66.4854 0C63.9235 0 61.8655 2.07898 61.8655 4.61997C61.8655 7.16095 63.9445 9.23993 66.4854 9.23993C69.0264 9.23993 71.1054 7.16095 71.1054 4.61997C71.1054 2.07898 69.0264 0 66.4854 0Z" fill="#1745B3" fill-opacity="0.1"/>
<path d="M97.3971 0C94.8351 0 92.7772 2.07898 92.7772 4.61997C92.7772 7.16095 94.8561 9.23993 97.3971 9.23993C99.9381 9.23993 102.017 7.16095 102.017 4.61997C102.017 2.07898 99.9381 0 97.3971 0Z" fill="#1745B3" fill-opacity="0.1"/>
<path d="M128.33 0C125.768 0 123.71 2.07898 123.71 4.61997C123.71 7.16095 125.789 9.23993 128.33 9.23993C130.871 9.23993 132.95 7.16095 132.95 4.61997C132.95 2.07898 130.871 0 128.33 0Z" fill="#1745B3" fill-opacity="0.1"/>
<path d="M159.263 0C156.701 0 154.643 2.07898 154.643 4.61997C154.643 7.16095 156.722 9.23993 159.263 9.23993C161.804 9.23993 163.883 7.16095 163.883 4.61997C163.883 2.07898 161.804 0 159.263 0Z" fill="#1745B3" fill-opacity="0.1"/>
</svg>
