<svg width="32" height="25" viewBox="0 0 32 25" fill="none" xmlns="http://www.w3.org/2000/svg">
<mask id="mask0_1056_2" style="mask-type:luminance" maskUnits="userSpaceOnUse" x="3" y="0" width="26" height="13">
<path d="M15.9994 1.59878C21.7704 1.59878 26.4488 6.3937 26.4488 12.3085C26.4488 12.3937 26.4476 12.4786 26.446 12.5635C26.4998 12.553 26.5534 12.5421 26.6069 12.5309C26.9389 12.4626 27.4572 12.3422 28.0081 12.1707C27.9381 5.6432 22.6561 0 15.9994 0C9.34273 0 4.05879 5.44078 3.99072 12.1787C4.54779 12.3562 5.09175 12.4835 5.50014 12.5658C5.51772 12.5695 5.53557 12.573 5.55314 12.5764C5.55091 12.4872 5.5498 12.3977 5.5498 12.3082C5.5498 6.39341 10.2281 1.5985 15.9991 1.5985L15.9994 1.59878Z" fill="white"/>
</mask>
<g mask="url(#mask0_1056_2)">
<path d="M3.31593 10.5123L3.06982 12.1941L27.4558 15.9428L27.7019 14.261L3.31593 10.5123Z" fill="#1558BB"/>
<path d="M3.32625 10.4492L3.3125 10.5431L27.6978 14.2962L27.7115 14.2023L3.32625 10.4492Z" fill="#1558BB"/>
<path d="M3.33504 10.3865L3.32129 10.4803L27.7066 14.2334L27.7203 14.1395L3.33504 10.3865Z" fill="#1558BB"/>
<path d="M3.34481 10.3239L3.33105 10.4177L27.7163 14.1708L27.7301 14.0769L3.34481 10.3239Z" fill="#1558BB"/>
<path d="M3.3536 10.2615L3.33984 10.3553L27.7251 14.1084L27.7389 14.0145L3.3536 10.2615Z" fill="#1558BB"/>
<path d="M3.36333 10.204L3.34961 10.2979L27.7362 14.0422L27.7499 13.9483L3.36333 10.204Z" fill="#1558BB"/>
<path d="M3.37114 10.1411L3.35742 10.235L27.744 13.9793L27.7577 13.8854L3.37114 10.1411Z" fill="#1558BB"/>
<path d="M3.38242 10.0724L3.36865 10.1663L27.7533 13.9237L27.7671 13.8298L3.38242 10.0724Z" fill="#1558BB"/>
<path d="M3.38973 10.0109L3.37598 10.1047L27.7613 13.8578L27.775 13.7639L3.38973 10.0109Z" fill="#1558BB"/>
<path d="M3.3995 9.94922L3.38574 10.0431L27.771 13.7962L27.7848 13.7023L3.3995 9.94922Z" fill="#1558BB"/>
<path d="M3.40877 9.88648L3.39502 9.98035L27.7803 13.7334L27.7941 13.6395L3.40877 9.88648Z" fill="#1558BB"/>
<path d="M3.41802 9.8291L3.4043 9.92297L27.7909 13.6673L27.8046 13.5734L3.41802 9.8291Z" fill="#1558BB"/>
<path d="M3.42684 9.76123L3.41309 9.8551L27.7984 13.6082L27.8121 13.5143L3.42684 9.76123Z" fill="#1558BB"/>
<path d="M3.43563 9.69886L3.42188 9.79272L27.8072 13.5458L27.8209 13.4519L3.43563 9.69886Z" fill="#1558BB"/>
<path d="M3.44491 9.63648L3.43115 9.73035L27.8164 13.4834L27.8302 13.3895L3.44491 9.63648Z" fill="#1558BB"/>
<path d="M3.45369 9.57361L3.43994 9.66748L27.8252 13.4205L27.839 13.3267L3.45369 9.57361Z" fill="#1558BB"/>
<path d="M3.46343 9.51599L3.44971 9.60986L27.8363 13.3542L27.85 13.2603L3.46343 9.51599Z" fill="#1558BB"/>
<path d="M3.47222 9.45337L3.4585 9.54724L27.8451 13.2916L27.8588 13.1977L3.47222 9.45337Z" fill="#1558BB"/>
<path d="M3.48201 9.38623L3.46826 9.4801L27.8536 13.2332L27.8673 13.1393L3.48201 9.38623Z" fill="#1558BB"/>
<path d="M3.49129 9.32361L3.47754 9.41748L27.8628 13.1705L27.8766 13.0767L3.49129 9.32361Z" fill="#1558BB"/>
<path d="M3.50106 9.26233L3.4873 9.3562L27.8726 13.1093L27.8864 13.0154L3.50106 9.26233Z" fill="#1558BB"/>
<path d="M3.50936 9.19886L3.49561 9.29272L27.8809 13.0458L27.8947 12.9519L3.50936 9.19886Z" fill="#1558BB"/>
<path d="M3.51763 9.14075L3.50391 9.23462L27.8905 12.979L27.9042 12.8851L3.51763 9.14075Z" fill="#1558BB"/>
<path d="M3.52842 9.07191L3.51465 9.16577L27.8993 12.9232L27.9131 12.8293L3.52842 9.07191Z" fill="#1558BB"/>
<path d="M3.53621 9.01087L3.52246 9.10474L27.9078 12.8578L27.9215 12.7639L3.53621 9.01087Z" fill="#1558BB"/>
<path d="M3.54549 8.94886L3.53174 9.04272L27.917 12.7958L27.9308 12.7019L3.54549 8.94886Z" fill="#1558BB"/>
<path d="M3.55526 8.88636L3.5415 8.98022L27.9268 12.7333L27.9406 12.6394L3.55526 8.88636Z" fill="#1558BB"/>
<path d="M3.56353 8.82849L3.5498 8.92236L27.9364 12.6667L27.9501 12.5728L3.56353 8.82849Z" fill="#1558BB"/>
<path d="M3.57329 8.76587L3.55957 8.85974L27.9461 12.6041L27.9599 12.5102L3.57329 8.76587Z" fill="#1558BB"/>
<path d="M3.58211 8.69861L3.56836 8.79248L27.9537 12.5455L27.9674 12.4517L3.58211 8.69861Z" fill="#1558BB"/>
<path d="M3.59139 8.63611L3.57764 8.72998L27.9629 12.483L27.9767 12.3892L3.59139 8.63611Z" fill="#1558BB"/>
<path d="M3.60018 8.57325L3.58643 8.66711L27.9717 12.4202L27.9855 12.3263L3.60018 8.57325Z" fill="#1558BB"/>
<path d="M3.61043 8.51123L3.59668 8.6051L27.982 12.3582L27.9957 12.2643L3.61043 8.51123Z" fill="#1558BB"/>
<path d="M3.6187 8.45312L3.60498 8.547L27.9916 12.2913L28.0053 12.1975L3.6187 8.45312Z" fill="#1558BB"/>
<path d="M3.62801 8.38587L3.61426 8.47974L27.9996 12.2328L28.0133 12.1389L3.62801 8.38587Z" fill="#1558BB"/>
<path d="M3.63778 8.32337L3.62402 8.41724L28.0093 12.1703L28.0231 12.0764L3.63778 8.32337Z" fill="#1558BB"/>
<path d="M3.64705 8.26123L3.6333 8.3551L28.0186 12.1082L28.0323 12.0143L3.64705 8.26123Z" fill="#1558BB"/>
<path d="M3.65584 8.19861L3.64209 8.29248L28.0274 12.0455L28.0411 11.9517L3.65584 8.19861Z" fill="#1558BB"/>
<path d="M3.66411 8.14001L3.65039 8.23389L28.037 11.9782L28.0507 11.8843L3.66411 8.14001Z" fill="#1558BB"/>
<path d="M3.67192 8.07617L3.6582 8.17004L28.0448 11.9144L28.0585 11.8205L3.67192 8.07617Z" fill="#1558BB"/>
<path d="M3.68319 8.01038L3.66943 8.10425L28.0547 11.8573L28.0685 11.7634L3.68319 8.01038Z" fill="#1558BB"/>
<path d="M3.69198 7.94861L3.67822 8.04248L28.0635 11.7955L28.0773 11.7017L3.69198 7.94861Z" fill="#1558BB"/>
<path d="M3.70125 7.88587L3.6875 7.97974L28.0728 11.7328L28.0865 11.6389L3.70125 7.88587Z" fill="#1558BB"/>
<path d="M3.71102 7.82325L3.69727 7.91711L28.0826 11.6702L28.0963 11.5763L3.71102 7.82325Z" fill="#1558BB"/>
<path d="M3.71978 7.76562L3.70605 7.8595L28.0926 11.6038L28.1063 11.51L3.71978 7.76562Z" fill="#1558BB"/>
<path d="M3.72811 7.69825L3.71436 7.79211L28.0997 11.5452L28.1134 11.4513L3.72811 7.69825Z" fill="#1558BB"/>
<path d="M3.73836 7.63648L3.72461 7.73035L28.1099 11.4834L28.1237 11.3895L3.73836 7.63648Z" fill="#1558BB"/>
<path d="M3.74715 7.573L3.7334 7.66687L28.1187 11.4199L28.1324 11.3261L3.74715 7.573Z" fill="#1558BB"/>
<path d="M3.75643 7.51099L3.74268 7.60486L28.128 11.3579L28.1417 11.2641L3.75643 7.51099Z" fill="#1558BB"/>
<path d="M3.76571 7.44825L3.75195 7.54211L28.1372 11.2952L28.151 11.2013L3.76571 7.44825Z" fill="#1558BB"/>
<path d="M3.77446 7.39026L3.76074 7.48413L28.1473 11.2285L28.161 11.1346L3.77446 7.39026Z" fill="#1558BB"/>
<path d="M3.78377 7.323L3.77002 7.41687L28.1553 11.1699L28.1691 11.0761L3.78377 7.323Z" fill="#1558BB"/>
<path d="M3.79305 7.26087L3.7793 7.35474L28.1646 11.1078L28.1783 11.0139L3.79305 7.26087Z" fill="#1558BB"/>
<path d="M3.80233 7.19825L3.78857 7.29211L28.1739 11.0452L28.1876 10.9513L3.80233 7.19825Z" fill="#1558BB"/>
<path d="M3.8116 7.13562L3.79785 7.22949L28.1831 10.9826L28.1969 10.8887L3.8116 7.13562Z" fill="#1558BB"/>
<path d="M3.8189 7.07629L3.80518 7.17017L28.1917 10.9145L28.2055 10.8206L3.8189 7.07629Z" fill="#1558BB"/>
<path d="M3.83063 7.01367L3.81689 7.10754L28.2028 10.8562L28.2166 10.7624L3.83063 7.01367Z" fill="#1558BB"/>
<path d="M3.83895 6.94825L3.8252 7.04211L28.2105 10.7952L28.2242 10.7013L3.83895 6.94825Z" fill="#1558BB"/>
<path d="M3.84774 6.88562L3.83398 6.97949L28.2193 10.7326L28.233 10.6387L3.84774 6.88562Z" fill="#1558BB"/>
<path d="M3.85701 6.823L3.84326 6.91687L28.2286 10.6699L28.2423 10.5761L3.85701 6.823Z" fill="#1558BB"/>
<path d="M3.86629 6.76062L3.85254 6.85449L28.2378 10.6076L28.2516 10.5137L3.86629 6.76062Z" fill="#1558BB"/>
<path d="M3.87505 6.70251L3.86133 6.79639L28.2479 10.5407L28.2616 10.4468L3.87505 6.70251Z" fill="#1558BB"/>
<path d="M3.88436 6.63501L3.87061 6.72888L28.2559 10.4819L28.2697 10.3881L3.88436 6.63501Z" fill="#1558BB"/>
<path d="M3.89315 6.573L3.87939 6.66687L28.2647 10.4199L28.2784 10.3261L3.89315 6.573Z" fill="#1558BB"/>
<path d="M3.90291 6.5105L3.88916 6.60437L28.2745 10.3574L28.2882 10.2636L3.90291 6.5105Z" fill="#1558BB"/>
<path d="M3.9117 6.448L3.89795 6.54187L28.2832 10.2949L28.297 10.2011L3.9117 6.448Z" fill="#1558BB"/>
<path d="M3.92046 6.39001L3.90674 6.48389L28.2933 10.2282L28.307 10.1343L3.92046 6.39001Z" fill="#1558BB"/>
<path d="M3.92974 6.32764L3.91602 6.42151L28.3026 10.1658L28.3163 10.072L3.92974 6.32764Z" fill="#1558BB"/>
<path d="M3.93953 6.26062L3.92578 6.35449L28.3111 10.1076L28.3248 10.0137L3.93953 6.26062Z" fill="#1558BB"/>
<path d="M3.94832 6.198L3.93457 6.29187L28.3199 10.0449L28.3336 9.95106L3.94832 6.198Z" fill="#1558BB"/>
<path d="M3.95711 6.13501L3.94336 6.22888L28.3287 9.98194L28.3424 9.88807L3.95711 6.13501Z" fill="#1558BB"/>
<path d="M3.96688 6.07264L3.95312 6.1665L28.3384 9.91956L28.3522 9.8257L3.96688 6.07264Z" fill="#1558BB"/>
<path d="M3.97712 6.01331L3.96338 6.10718L28.3493 9.85587L28.363 9.762L3.97712 6.01331Z" fill="#1558BB"/>
<path d="M3.98446 5.94788L3.9707 6.04175L28.356 9.79481L28.3697 9.70094L3.98446 5.94788Z" fill="#1558BB"/>
<path d="M3.99471 5.88538L3.98096 5.97925L28.3663 9.73231L28.38 9.63844L3.99471 5.88538Z" fill="#1558BB"/>
<path d="M4.00301 5.82264L3.98926 5.9165L28.3746 9.66956L28.3883 9.5757L4.00301 5.82264Z" fill="#1558BB"/>
<path d="M4.01278 5.76026L3.99902 5.85413L28.3843 9.60719L28.3981 9.51332L4.01278 5.76026Z" fill="#1558BB"/>
<path d="M4.02105 5.70227L4.00732 5.79614L28.3939 9.54048L28.4076 9.4466L4.02105 5.70227Z" fill="#1558BB"/>
<path d="M4.03081 5.63965L4.01709 5.73352L28.4037 9.47786L28.4174 9.38398L4.03081 5.63965Z" fill="#1558BB"/>
<path d="M4.04012 5.573L4.02637 5.66687L28.4117 9.41993L28.4254 9.32606L4.04012 5.573Z" fill="#1558BB"/>
<path d="M4.0494 5.51038L4.03564 5.60425L28.4209 9.35731L28.4347 9.26344L4.0494 5.51038Z" fill="#1558BB"/>
<path d="M4.05819 5.44764L4.04443 5.5415L28.4297 9.29456L28.4435 9.2007L4.05819 5.44764Z" fill="#1558BB"/>
<path d="M4.06795 5.38489L4.0542 5.47876L28.4395 9.23182L28.4532 9.13795L4.06795 5.38489Z" fill="#1558BB"/>
<path d="M4.07671 5.32752L4.06299 5.42139L28.4496 9.16572L28.4633 9.07185L4.07671 5.32752Z" fill="#1558BB"/>
<path d="M4.08602 5.26038L4.07227 5.35425L28.4576 9.10731L28.4713 9.01344L4.08602 5.26038Z" fill="#1558BB"/>
<path d="M4.0953 5.19764L4.08154 5.2915L28.4668 9.04456L28.4806 8.9507L4.0953 5.19764Z" fill="#1558BB"/>
<path d="M4.10457 5.13477L4.09082 5.22864L28.4761 8.9817L28.4899 8.88783L4.10457 5.13477Z" fill="#1558BB"/>
<path d="M4.11336 5.07264L4.09961 5.1665L28.4849 8.91956L28.4987 8.8257L4.11336 5.07264Z" fill="#1558BB"/>
<path d="M4.1236 5.01282L4.10986 5.10669L28.4958 8.85539L28.5095 8.76152L4.1236 5.01282Z" fill="#1558BB"/>
<path d="M4.13288 4.95056L4.11914 5.04443L28.5051 8.79313L28.5188 8.69926L4.13288 4.95056Z" fill="#1558BB"/>
<path d="M4.14071 4.88489L4.12695 4.97876L28.5122 8.73182L28.526 8.63795L4.14071 4.88489Z" fill="#1558BB"/>
<path d="M4.14998 4.82264L4.13623 4.9165L28.5215 8.66956L28.5353 8.5757L4.14998 4.82264Z" fill="#1558BB"/>
<path d="M4.15926 4.76001L4.14551 4.85388L28.5308 8.60694L28.5446 8.51307L4.15926 4.76001Z" fill="#1558BB"/>
<path d="M4.16805 4.69703L4.1543 4.79089L28.5396 8.54395L28.5533 8.45009L4.16805 4.69703Z" fill="#1558BB"/>
<path d="M4.17681 4.6394L4.16309 4.73328L28.5497 8.47761L28.5634 8.38374L4.17681 4.6394Z" fill="#1558BB"/>
<path d="M4.1866 4.57264L4.17285 4.6665L28.5581 8.41956L28.5719 8.3257L4.1866 4.57264Z" fill="#1558BB"/>
<path d="M4.19588 4.51001L4.18213 4.60388L28.5674 8.35694L28.5812 8.26307L4.19588 4.51001Z" fill="#1558BB"/>
<path d="M4.20467 4.44739L4.19092 4.54126L28.5762 8.29432L28.59 8.20045L4.20467 4.44739Z" fill="#1558BB"/>
<path d="M4.21395 4.38477L4.2002 4.47864L28.5855 8.2317L28.5992 8.13783L4.21395 4.38477Z" fill="#1558BB"/>
<path d="M4.22368 4.32715L4.20996 4.42102L28.5965 8.16536L28.6102 8.07148L4.22368 4.32715Z" fill="#1558BB"/>
<path d="M4.23198 4.2644L4.21826 4.35828L28.6048 8.10261L28.6185 8.00874L4.23198 4.2644Z" fill="#1558BB"/>
<path d="M4.24227 4.198L4.22852 4.29187L28.6138 8.04493L28.6276 7.95106L4.24227 4.198Z" fill="#1558BB"/>
<path d="M4.25008 4.13477L4.23633 4.22864L28.6216 7.9817L28.6354 7.88783L4.25008 4.13477Z" fill="#1558BB"/>
<path d="M4.25985 4.07227L4.24609 4.16614L28.6314 7.9192L28.6451 7.82533L4.25985 4.07227Z" fill="#1558BB"/>
<path d="M4.26912 4.00965L4.25537 4.10352L28.6407 7.85658L28.6544 7.76271L4.26912 4.00965Z" fill="#1558BB"/>
<path d="M4.27936 3.95007L4.26562 4.04395L28.6516 7.79264L28.6653 7.69877L4.27936 3.95007Z" fill="#1558BB"/>
<path d="M4.28768 3.88477L4.27393 3.97864L28.6592 7.7317L28.673 7.63783L4.28768 3.88477Z" fill="#1558BB"/>
<path d="M4.29696 3.82239L4.2832 3.91626L28.6685 7.66932L28.6822 7.57545L4.29696 3.82239Z" fill="#1558BB"/>
<path d="M4.30575 3.75977L4.29199 3.85364L28.6773 7.6067L28.691 7.51283L4.30575 3.75977Z" fill="#1558BB"/>
<path d="M4.31405 3.69666L4.30029 3.79053L28.6856 7.54359L28.6993 7.44972L4.31405 3.69666Z" fill="#1558BB"/>
<path d="M4.32427 3.6394L4.31055 3.73328L28.6971 7.47761L28.7108 7.38374L4.32427 3.6394Z" fill="#1558BB"/>
<path d="M4.33306 3.57703L4.31934 3.6709L28.7059 7.41523L28.7196 7.32136L4.33306 3.57703Z" fill="#1558BB"/>
<path d="M4.34188 3.50965L4.32812 3.60352L28.7134 7.35658L28.7272 7.26271L4.34188 3.50965Z" fill="#1558BB"/>
<path d="M4.35116 3.44703L4.3374 3.54089L28.7227 7.29395L28.7365 7.20009L4.35116 3.44703Z" fill="#1558BB"/>
<path d="M4.36043 3.3844L4.34668 3.47827L28.732 7.23133L28.7457 7.13746L4.36043 3.3844Z" fill="#1558BB"/>
<path d="M4.36971 3.32203L4.35596 3.41589L28.7413 7.16895L28.755 7.07509L4.36971 3.32203Z" fill="#1558BB"/>
<path d="M4.37798 3.26404L4.36426 3.35791L28.7508 7.10225L28.7646 7.00837L4.37798 3.26404Z" fill="#1558BB"/>
<path d="M4.38778 3.19703L4.37402 3.29089L28.7593 7.04395L28.7731 6.95009L4.38778 3.19703Z" fill="#1558BB"/>
<path d="M4.39754 3.1344L4.38379 3.22827L28.7691 6.98133L28.7828 6.88746L4.39754 3.1344Z" fill="#1558BB"/>
<path d="M4.40633 3.07203L4.39258 3.16589L28.7779 6.91895L28.7916 6.82509L4.40633 3.07203Z" fill="#1558BB"/>
<path d="M4.41561 3.0094L4.40186 3.10327L28.7872 6.85633L28.8009 6.76246L4.41561 3.0094Z" fill="#1558BB"/>
<path d="M4.42536 2.94959L4.41162 3.04346L28.7976 6.79215L28.8113 6.69828L4.42536 2.94959Z" fill="#1558BB"/>
<path d="M4.43169 2.88794L4.41797 2.98181L28.8045 6.72615L28.8183 6.63227L4.43169 2.88794Z" fill="#1558BB"/>
<path d="M4.44295 2.82203L4.4292 2.91589L28.8145 6.66895L28.8282 6.57509L4.44295 2.82203Z" fill="#1558BB"/>
<path d="M4.45272 2.7594L4.43896 2.85327L28.8243 6.60633L28.838 6.51246L4.45272 2.7594Z" fill="#1558BB"/>
<path d="M4.46102 2.69678L4.44727 2.79065L28.8326 6.54371L28.8463 6.44984L4.46102 2.69678Z" fill="#1558BB"/>
<path d="M4.4703 2.6344L4.45654 2.72827L28.8418 6.48133L28.8556 6.38746L4.4703 2.6344Z" fill="#1558BB"/>
<path d="M4.47954 2.57678L4.46582 2.67065L28.8524 6.41499L28.8661 6.32112L4.47954 2.57678Z" fill="#1558BB"/>
<path d="M4.48833 2.51391L4.47461 2.60779L28.8612 6.35212L28.8749 6.25825L4.48833 2.51391Z" fill="#1558BB"/>
<path d="M4.49764 2.44666L4.48389 2.54053L28.8692 6.29359L28.8829 6.19972L4.49764 2.44666Z" fill="#1558BB"/>
<path d="M4.50692 2.38404L4.49316 2.47791L28.8785 6.23097L28.8922 6.1371L4.50692 2.38404Z" fill="#1558BB"/>
<path d="M4.51571 2.32178L4.50195 2.41565L28.8872 6.16871L28.901 6.07484L4.51571 2.32178Z" fill="#1558BB"/>
<path d="M4.52547 2.2594L4.51172 2.35327L28.897 6.10633L28.9108 6.01246L4.52547 2.2594Z" fill="#1558BB"/>
<path d="M4.53423 2.20141L4.52051 2.29529L28.9071 6.03962L28.9208 5.94575L4.53423 2.20141Z" fill="#1558BB"/>
<path d="M4.54403 2.1344L4.53027 2.22827L28.9156 5.98133L28.9293 5.88746L4.54403 2.1344Z" fill="#1558BB"/>
<path d="M4.5533 2.07166L4.53955 2.16553L28.9248 5.91859L28.9386 5.82472L4.5533 2.07166Z" fill="#1558BB"/>
<path d="M4.5616 2.00916L4.54785 2.10303L28.9331 5.85609L28.9469 5.76222L4.5616 2.00916Z" fill="#1558BB"/>
<path d="M4.57137 1.94641L4.55762 2.04028L28.9429 5.79334L28.9567 5.69948L4.57137 1.94641Z" fill="#1558BB"/>
<path d="M4.57769 1.88806L4.56396 1.98193L28.9505 5.72627L28.9643 5.6324L4.57769 1.88806Z" fill="#1558BB"/>
<path d="M4.59089 1.82459L4.57715 1.91846L28.9631 5.66715L28.9768 5.57328L4.59089 1.82459Z" fill="#1558BB"/>
<path d="M4.59774 1.75879L4.58398 1.85266L28.9693 5.60572L28.983 5.51185L4.59774 1.75879Z" fill="#1558BB"/>
<path d="M4.6075 1.69641L4.59375 1.79028L28.979 5.54334L28.9928 5.44948L4.6075 1.69641Z" fill="#1558BB"/>
<path d="M4.61727 1.63416L4.60352 1.72803L28.9888 5.48109L29.0026 5.38722L4.61727 1.63416Z" fill="#1558BB"/>
<path d="M4.62606 1.57178L4.6123 1.66565L28.9976 5.41871L29.0114 5.32484L4.62606 1.57178Z" fill="#1558BB"/>
<path d="M4.63433 1.51367L4.62061 1.60754L29.0072 5.35188L29.0209 5.25801L4.63433 1.51367Z" fill="#1558BB"/>
<path d="M4.64461 1.44641L4.63086 1.54028L29.0162 5.29334L29.0299 5.19947L4.64461 1.44641Z" fill="#1558BB"/>
<path d="M4.6534 1.38416L4.63965 1.47803L29.0249 5.23109L29.0387 5.13722L4.6534 1.38416Z" fill="#1558BB"/>
<path d="M4.66268 1.32142L4.64893 1.41528L29.0342 5.16834L29.048 5.07448L4.66268 1.32142Z" fill="#1558BB"/>
<path d="M4.67147 1.25916L4.65771 1.35303L29.043 5.10609L29.0568 5.01222L4.67147 1.25916Z" fill="#1558BB"/>
<path d="M4.68071 1.20117L4.66699 1.29504L29.0536 5.03938L29.0673 4.94551L4.68071 1.20117Z" fill="#1558BB"/>
<path d="M4.68999 1.13879L4.67627 1.23267L29.0628 4.977L29.0766 4.88313L4.68999 1.13879Z" fill="#1558BB"/>
<path d="M4.6993 1.07142L4.68555 1.16528L29.0708 4.91834L29.0846 4.82448L4.6993 1.07142Z" fill="#1558BB"/>
<path d="M4.70858 1.00879L4.69482 1.10266L29.0801 4.85572L29.0939 4.76185L4.70858 1.00879Z" fill="#1558BB"/>
<path d="M4.71785 0.946171L4.7041 1.04004L29.0894 4.7931L29.1031 4.69923L4.71785 0.946171Z" fill="#1558BB"/>
<path d="M4.72664 0.884159L4.71289 0.978027L29.0982 4.73109L29.1119 4.63722L4.72664 0.884159Z" fill="#1558BB"/>
<path d="M4.73737 0.82422L4.72363 0.918091L29.1096 4.66679L29.1233 4.57292L4.73737 0.82422Z" fill="#1558BB"/>
<path d="M4.74617 0.759159L4.73242 0.853027L29.1177 4.60609L29.1315 4.51222L4.74617 0.759159Z" fill="#1558BB"/>
<path d="M4.75399 0.696171L4.74023 0.790039L29.1255 4.5431L29.1393 4.44923L4.75399 0.696171Z" fill="#1558BB"/>
<path d="M4.76326 0.633793L4.74951 0.727661L29.1348 4.48072L29.1486 4.38685L4.76326 0.633793Z" fill="#1558BB"/>
<path d="M4.77254 0.571415L4.75879 0.665283L29.1441 4.41834L29.1578 4.32447L4.77254 0.571415Z" fill="#1558BB"/>
<path d="M4.78081 0.513427L4.76709 0.6073L29.1537 4.35163L29.1674 4.25776L4.78081 0.513427Z" fill="#1558BB"/>
<path d="M4.79058 0.451171L4.77686 0.545044L29.1634 4.28938L29.1771 4.19551L4.79058 0.451171Z" fill="#1558BB"/>
<path d="M4.79989 0.383793L4.78613 0.477661L29.1714 4.23072L29.1852 4.13685L4.79989 0.383793Z" fill="#1558BB"/>
<path d="M4.80916 0.321172L4.79541 0.415039L29.1807 4.1681L29.1945 4.07423L4.80916 0.321172Z" fill="#1558BB"/>
<path d="M4.81795 0.258793L4.8042 0.352661L29.1895 4.10572L29.2032 4.01185L4.81795 0.258793Z" fill="#1558BB"/>
<path d="M4.82723 0.196171L4.81348 0.290039L29.1988 4.0431L29.2125 3.94923L4.82723 0.196171Z" fill="#1558BB"/>
<path d="M4.83696 0.138305L4.82324 0.232178L29.2098 3.97651L29.2235 3.88264L4.83696 0.138305Z" fill="#1558BB"/>
<path d="M4.84578 0.0711725L4.83203 0.165039L29.2173 3.9181L29.2311 3.82423L4.84578 0.0711725Z" fill="#1558BB"/>
<path d="M4.85457 0.00854872L4.84082 0.102417L29.2261 3.85548L29.2399 3.76161L4.85457 0.00854872Z" fill="#1558BB"/>
<path d="M4.86385 -0.0540734L4.8501 0.0397949L29.2354 3.79285L29.2491 3.69899L4.86385 -0.0540734Z" fill="#1558BB"/>
<path d="M4.87264 -0.116207L4.85889 -0.0223389L29.2442 3.73072L29.2579 3.63685L4.87264 -0.116207Z" fill="#1558BB"/>
<path d="M4.88288 -0.176268L4.86914 -0.0823975L29.2551 3.6663L29.2688 3.57243L4.88288 -0.176268Z" fill="#1558BB"/>
<path d="M4.89215 -0.23889L4.87842 -0.14502L29.2643 3.60368L29.2781 3.50981L4.89215 -0.23889Z" fill="#1558BB"/>
<path d="M4.90096 -0.303829L4.88721 -0.209961L29.2725 3.5431L29.2863 3.44923L4.90096 -0.303829Z" fill="#1558BB"/>
<path d="M4.91024 -0.366573L4.89648 -0.272705L29.2818 3.48035L29.2955 3.38649L4.91024 -0.366573Z" fill="#1558BB"/>
<path d="M4.91903 -0.428951L4.90527 -0.335083L29.2906 3.41798L29.3043 3.32411L4.91903 -0.428951Z" fill="#1558BB"/>
<path d="M4.9283 -0.491573L4.91455 -0.397705L29.2998 3.35535L29.3136 3.26149L4.9283 -0.491573Z" fill="#1558BB"/>
<path d="M4.93706 -0.54944L4.92334 -0.455566L29.3099 3.28877L29.3236 3.1949L4.93706 -0.54944Z" fill="#1558BB"/>
<path d="M4.94637 -0.616451L4.93262 -0.522583L29.3179 3.23048L29.3317 3.13661L4.94637 -0.616451Z" fill="#1558BB"/>
<path d="M4.95565 -0.679072L4.94189 -0.585205L29.3272 3.16785L29.3409 3.07399L4.95565 -0.679072Z" fill="#1558BB"/>
<path d="M4.96395 -0.741573L4.9502 -0.647705L29.3355 3.10535L29.3492 3.01149L4.96395 -0.741573Z" fill="#1558BB"/>
<path d="M4.97371 -0.803829L4.95996 -0.709961L29.3453 3.0431L29.359 2.94923L4.97371 -0.803829Z" fill="#1558BB"/>
<path d="M4.98296 -0.86194L4.96924 -0.768066L29.3558 2.97627L29.3695 2.8824L4.98296 -0.86194Z" fill="#1558BB"/>
<path d="M4.99175 -0.924682L4.97803 -0.830811L29.3646 2.91352L29.3783 2.81965L4.99175 -0.924682Z" fill="#1558BB"/>
<path d="M5.00106 -0.991817L4.9873 -0.897949L29.3726 2.85511L29.3864 2.76124L5.00106 -0.991817Z" fill="#1558BB"/>
<path d="M5.01034 -1.0542L4.99658 -0.960327L29.3819 2.79273L29.3956 2.69886L5.01034 -1.0542Z" fill="#1558BB"/>
<path d="M5.01912 -1.11657L5.00537 -1.02271L29.3907 2.73035L29.4044 2.63649L5.01912 -1.11657Z" fill="#1558BB"/>
<path d="M5.0284 -1.1792L5.01465 -1.08533L29.3999 2.66773L29.4137 2.57386L5.0284 -1.1792Z" fill="#1558BB"/>
<path d="M5.03913 -1.23913L5.02539 -1.14526L29.4113 2.60343L29.4251 2.50956L5.03913 -1.23913Z" fill="#1558BB"/>
<path d="M5.04696 -1.3042L5.0332 -1.21033L29.4185 2.54273L29.4322 2.44886L5.04696 -1.3042Z" fill="#1558BB"/>
<path d="M5.05623 -1.36682L5.04248 -1.27295L29.4278 2.48011L29.4415 2.38624L5.05623 -1.36682Z" fill="#1558BB"/>
<path d="M5.06551 -1.42907L5.05176 -1.33521L29.4371 2.41785L29.4508 2.32399L5.06551 -1.42907Z" fill="#1558BB"/>
<path d="M5.07479 -1.49182L5.06104 -1.39795L29.4463 2.35511L29.4601 2.26124L5.07479 -1.49182Z" fill="#1558BB"/>
<path d="M5.08452 -1.54981L5.0708 -1.45593L29.4574 2.2884L29.4711 2.19453L5.08452 -1.54981Z" fill="#1558BB"/>
<path d="M5.09185 -1.61255L5.07812 -1.51868L29.4647 2.22566L29.4784 2.13178L5.09185 -1.61255Z" fill="#1558BB"/>
<path d="M5.10164 -1.67944L5.08789 -1.58557L29.4732 2.16749L29.4869 2.07362L5.10164 -1.67944Z" fill="#1558BB"/>
<path d="M5.11043 -1.74182L5.09668 -1.64795L29.482 2.10511L29.4957 2.01124L5.11043 -1.74182Z" fill="#1558BB"/>
<path d="M5.1202 -1.8042L5.10645 -1.71033L29.4917 2.04273L29.5055 1.94886L5.1202 -1.8042Z" fill="#1558BB"/>
<path d="M5.12948 -1.86682L5.11572 -1.77295L29.501 1.98011L29.5148 1.88624L5.12948 -1.86682Z" fill="#1558BB"/>
<path d="M5.13823 -1.9248L5.12451 -1.83093L29.5111 1.9134L29.5248 1.81953L5.13823 -1.9248Z" fill="#1558BB"/>
<path d="M5.148 -1.98755L5.13428 -1.89368L29.5209 1.85066L29.5346 1.75679L5.148 -1.98755Z" fill="#1558BB"/>
<path d="M5.15633 -2.05456L5.14258 -1.96069L29.5279 1.79237L29.5416 1.6985L5.15633 -2.05456Z" fill="#1558BB"/>
<path d="M5.16561 -2.11682L5.15186 -2.02295L29.5372 1.73011L29.5509 1.63624L5.16561 -2.11682Z" fill="#1558BB"/>
<path d="M5.1744 -2.17956L5.16064 -2.08569L29.5459 1.66737L29.5597 1.5735L5.1744 -2.17956Z" fill="#1558BB"/>
<path d="M5.18516 -2.24377L5.17139 -2.1499L29.556 1.60752L29.5698 1.51365L5.18516 -2.24377Z" fill="#1558BB"/>
<path d="M5.19146 -2.30054L5.17773 -2.20667L29.5643 1.53767L29.578 1.4438L5.19146 -2.30054Z" fill="#1558BB"/>
<path d="M5.20223 -2.36718L5.18848 -2.27332L29.5738 1.47974L29.5875 1.38588L5.20223 -2.36718Z" fill="#1558BB"/>
<path d="M5.212 -2.42956L5.19824 -2.33569L29.5835 1.41737L29.5973 1.3235L5.212 -2.42956Z" fill="#1558BB"/>
<path d="M5.22127 -2.49206L5.20752 -2.39819L29.5928 1.35487L29.6066 1.261L5.22127 -2.49206Z" fill="#1558BB"/>
<path d="M5.23006 -2.55444L5.21631 -2.46057L29.6016 1.29249L29.6154 1.19862L5.23006 -2.55444Z" fill="#1558BB"/>
<path d="M5.23833 -2.61292L5.22461 -2.51904L29.6112 1.22529L29.6249 1.13142L5.23833 -2.61292Z" fill="#1558BB"/>
<path d="M5.24761 -2.67517L5.23389 -2.5813L29.6205 1.16304L29.6342 1.06916L5.24761 -2.67517Z" fill="#1558BB"/>
<path d="M5.24765 -2.68593L5.24316 -2.6554L29.6265 1.11075L29.631 1.08022L5.24765 -2.68593Z" fill="#1558BB"/>
</g>
<mask id="mask1_1056_2" style="mask-type:luminance" maskUnits="userSpaceOnUse" x="0" y="4" width="32" height="21">
<path d="M4.50802 7.73603C2.36789 8.26038 -1.12294 9.51636 0.35356 11.7104C1.05178 12.7477 2.49397 13.4344 4.09545 13.8753L4.08736 13.873C4.09154 13.9073 4.09629 13.9413 4.10075 13.9753C4.11135 14.1249 4.13367 14.2735 4.16742 14.4196C4.72337 17.7064 6.56335 20.6432 9.31886 22.5382C13.046 25.1002 18.4733 25.4204 22.2793 22.7781C22.4886 22.6328 22.6158 22.4416 22.445 22.1136C22.1881 21.6199 21.2436 21.8429 20.2483 22.1637C18.3307 22.7818 17.5837 23.1014 15.5211 22.5691C15.0812 22.4556 13.1377 21.8154 13.4173 21.1324C13.5021 20.9254 13.7372 20.8974 13.9662 20.9177C14.9119 21.0012 15.9214 21.635 16.8855 21.1996C17.2253 21.0461 17.4771 20.7101 17.3968 20.5254C17.317 20.3427 16.0495 19.9954 15.8115 19.931C15.0461 19.7246 14.3107 19.6062 13.6053 19.5756C12.6981 19.5365 11.8967 19.6746 11.1784 20.0991C10.7641 20.3439 10.6486 20.57 10.1091 20.5343C9.46838 20.4917 8.71967 19.9899 7.863 19.0293C6.77285 17.6444 6.0339 15.999 5.72008 14.2358C6.98597 14.4579 8.23122 14.5543 9.18747 14.5723L9.73311 15.3477C9.87705 15.5524 10.1066 15.6493 10.3496 15.6079C10.5926 15.5664 10.7789 15.3986 10.8506 15.157L11.083 14.373L12.1993 17.7438C12.2947 18.0318 12.5628 18.2096 12.8582 18.1804C13.1536 18.1513 13.3838 17.9248 13.4239 17.6235L14.5297 10.1534L15.5697 18.683C15.5925 19.0221 15.8656 19.2843 16.1973 19.286C16.529 19.2875 16.8043 19.0278 16.8303 18.6891L17.7349 12.8903L18.6454 17.2678C18.6878 17.5915 18.9534 17.8296 19.2719 17.8293C19.5905 17.8293 19.8561 17.5909 19.8982 17.2672L20.9644 12.6813L21.9095 14.2427C22.0241 14.4537 22.2261 14.5752 22.4615 14.5752C23.6964 14.5752 25.0371 14.4396 26.2837 14.2184C25.7612 17.1918 24.0415 19.7386 21.6545 21.3159C22.5893 21.2911 22.977 21.667 22.8172 22.443C25.561 20.5008 27.4774 17.4182 27.9145 13.8638L27.8478 13.8813C29.4225 13.4704 31.3612 12.7042 31.8985 11.2344C32.6138 9.27734 29.3821 8.17975 27.4177 7.71401C27.4369 7.76519 27.4553 7.81694 27.4737 7.8684C29.0041 8.42077 31.2042 9.44202 30.7149 10.7798C30.2806 11.9677 27.7312 12.6079 26.6659 12.8274C25.4519 13.0776 24.0928 13.2471 22.8306 13.2757L21.3736 10.738C21.2388 10.4899 20.9755 10.3638 20.7035 10.417C20.4313 10.4701 20.2318 10.6863 20.1953 10.9676L19.2703 14.8765L18.1971 7.59422C18.1539 7.26457 17.878 7.02384 17.5533 7.03298C17.2289 7.04213 16.9661 7.29802 16.9407 7.62967L16.2394 14.564L15.366 4.84753C15.3437 4.51473 15.0818 4.25599 14.7565 4.24512C14.4313 4.23397 14.1534 4.47442 14.1093 4.80464L12.5349 14.7264L11.6481 12.464C11.5583 12.193 11.3187 12.02 11.0395 12.0246C10.7602 12.0292 10.5262 12.2104 10.445 12.4841L10.0123 13.5293C9.89016 13.3675 9.71553 13.2797 9.51385 13.2797C8.18101 13.2797 6.74997 13.1265 5.44391 12.8626C4.25585 12.6224 2.12324 12.0575 1.39434 10.9745C0.500569 9.64616 2.83625 8.51254 4.44582 7.90814C4.46646 7.85039 4.4871 7.79292 4.50858 7.73545L4.50802 7.73603Z" fill="white"/>
</mask>
<g mask="url(#mask1_1056_2)">
<path d="M-3.90926 20.6446L-3.9209 20.6912L27.6766 28.9941L27.6883 28.9476L-3.90926 20.6446Z" fill="url(#paint0_linear_1056_2)"/>
<path d="M-3.89079 20.5714L-3.93359 20.7423L27.6611 29.0566L27.7039 28.8857L-3.89079 20.5714Z" fill="url(#paint1_linear_1056_2)"/>
<path d="M-3.86299 20.4601L-3.90576 20.631L27.6903 28.9396L27.7331 28.7687L-3.86299 20.4601Z" fill="url(#paint2_linear_1056_2)"/>
<path d="M-3.83418 20.3483L-3.87695 20.5192L27.7192 28.8278L27.7619 28.6569L-3.83418 20.3483Z" fill="url(#paint3_linear_1056_2)"/>
<path d="M-3.80485 20.2311L-3.84766 20.402L27.747 28.7163L27.7898 28.5454L-3.80485 20.2311Z" fill="url(#paint4_linear_1056_2)"/>
<path d="M-3.77656 20.121L-3.81934 20.2919L27.7768 28.6005L27.8195 28.4296L-3.77656 20.121Z" fill="url(#paint5_linear_1056_2)"/>
<path d="M-3.74824 20.0067L-3.79102 20.1776L27.8051 28.4862L27.8479 28.3154L-3.74824 20.0067Z" fill="url(#paint6_linear_1056_2)"/>
<path d="M-3.71989 19.8874L-3.7627 20.0582L27.832 28.3725L27.8748 28.2016L-3.71989 19.8874Z" fill="url(#paint7_linear_1056_2)"/>
<path d="M-3.69209 19.7771L-3.73486 19.948L27.8612 28.2566L27.904 28.0858L-3.69209 19.7771Z" fill="url(#paint8_linear_1056_2)"/>
<path d="M-3.66276 19.6617L-3.70557 19.8325L27.8891 28.1468L27.9319 27.9759L-3.66276 19.6617Z" fill="url(#paint9_linear_1056_2)"/>
<path d="M-3.63447 19.5513L-3.67725 19.7222L27.9189 28.0308L27.9616 27.8599L-3.63447 19.5513Z" fill="url(#paint10_linear_1056_2)"/>
<path d="M-3.60615 19.4378L-3.64893 19.6086L27.9472 27.9173L27.99 27.7464L-3.60615 19.4378Z" fill="url(#paint11_linear_1056_2)"/>
<path d="M-3.57731 19.3201L-3.62012 19.491L27.9746 27.8052L28.0174 27.6344L-3.57731 19.3201Z" fill="url(#paint12_linear_1056_2)"/>
<path d="M-3.54902 19.2093L-3.5918 19.3801L28.0043 27.6888L28.0471 27.5179L-3.54902 19.2093Z" fill="url(#paint13_linear_1056_2)"/>
<path d="M-3.52119 19.0937L-3.56396 19.2645L28.0321 27.5732L28.0749 27.4023L-3.52119 19.0937Z" fill="url(#paint14_linear_1056_2)"/>
<path d="M-3.49138 18.9767L-3.53418 19.1476L28.0605 27.4619L28.1033 27.291L-3.49138 18.9767Z" fill="url(#paint15_linear_1056_2)"/>
<path d="M-3.46357 18.8664L-3.50635 19.0372L28.0898 27.3459L28.1325 27.175L-3.46357 18.8664Z" fill="url(#paint16_linear_1056_2)"/>
<path d="M-3.43474 18.7505L-3.47754 18.9214L28.1171 27.2357L28.16 27.0648L-3.43474 18.7505Z" fill="url(#paint17_linear_1056_2)"/>
<path d="M-3.40593 18.6368L-3.44873 18.8076L28.146 27.1219L28.1888 26.951L-3.40593 18.6368Z" fill="url(#paint18_linear_1056_2)"/>
<path d="M-3.37812 18.526L-3.4209 18.6969L28.1752 27.0055L28.218 26.8347L-3.37812 18.526Z" fill="url(#paint19_linear_1056_2)"/>
<path d="M-3.34831 18.4095L-3.39111 18.5803L28.2036 26.8946L28.2464 26.7237L-3.34831 18.4095Z" fill="url(#paint20_linear_1056_2)"/>
<path d="M-3.321 18.2986L-3.36377 18.4695L28.2323 26.7781L28.2751 26.6072L-3.321 18.2986Z" fill="url(#paint21_linear_1056_2)"/>
<path d="M-3.29267 18.1825L-3.33545 18.3534L28.2607 26.662L28.3034 26.4911L-3.29267 18.1825Z" fill="url(#paint22_linear_1056_2)"/>
<path d="M-3.26384 18.0649L-3.30664 18.2357L28.288 26.55L28.3308 26.3791L-3.26384 18.0649Z" fill="url(#paint23_linear_1056_2)"/>
<path d="M-3.23603 17.9546L-3.27881 18.1255L28.3173 26.4341L28.3601 26.2632L-3.23603 17.9546Z" fill="url(#paint24_linear_1056_2)"/>
<path d="M-3.20622 17.839L-3.24902 18.0099L28.3457 26.3242L28.3885 26.1533L-3.20622 17.839Z" fill="url(#paint25_linear_1056_2)"/>
<path d="M-3.1779 17.7248L-3.2207 17.8956L28.374 26.2099L28.4168 26.039L-3.1779 17.7248Z" fill="url(#paint26_linear_1056_2)"/>
<path d="M-3.1501 17.6147L-3.19287 17.7855L28.4032 26.0942L28.446 25.9233L-3.1501 17.6147Z" fill="url(#paint27_linear_1056_2)"/>
<path d="M-3.12077 17.4972L-3.16357 17.6681L28.4311 25.9824L28.4739 25.8115L-3.12077 17.4972Z" fill="url(#paint28_linear_1056_2)"/>
<path d="M-3.09346 17.3843L-3.13623 17.5552L28.4599 25.8638L28.5026 25.6929L-3.09346 17.3843Z" fill="url(#paint29_linear_1056_2)"/>
<path d="M-3.06465 17.2711L-3.10742 17.442L28.4887 25.7506L28.5315 25.5798L-3.06465 17.2711Z" fill="url(#paint30_linear_1056_2)"/>
<path d="M-3.03483 17.1556L-3.07764 17.3264L28.5171 25.6407L28.5599 25.4698L-3.03483 17.1556Z" fill="url(#paint31_linear_1056_2)"/>
<path d="M-3.00703 17.0451L-3.0498 17.2159L28.5463 25.5246L28.5891 25.3537L-3.00703 17.0451Z" fill="url(#paint32_linear_1056_2)"/>
<path d="M-2.9792 16.9306L-3.02197 17.1014L28.5741 25.4101L28.6169 25.2392L-2.9792 16.9306Z" fill="url(#paint33_linear_1056_2)"/>
<path d="M-2.94987 16.8133L-2.99268 16.9841L28.602 25.2984L28.6448 25.1276L-2.94987 16.8133Z" fill="url(#paint34_linear_1056_2)"/>
<path d="M-2.92109 16.7036L-2.96387 16.8745L28.6322 25.1831L28.675 25.0123L-2.92109 16.7036Z" fill="url(#paint35_linear_1056_2)"/>
<path d="M-2.89226 16.5859L-2.93506 16.7567L28.6596 25.071L28.7024 24.9001L-2.89226 16.5859Z" fill="url(#paint36_linear_1056_2)"/>
<path d="M-2.86445 16.4737L-2.90723 16.6445L28.6889 24.9532L28.7316 24.7823L-2.86445 16.4737Z" fill="url(#paint37_linear_1056_2)"/>
<path d="M-2.83662 16.3598L-2.87939 16.5306L28.7167 24.8393L28.7595 24.6684L-2.83662 16.3598Z" fill="url(#paint38_linear_1056_2)"/>
<path d="M-2.80681 16.2448L-2.84961 16.4156L28.7451 24.7299L28.7879 24.5591L-2.80681 16.2448Z" fill="url(#paint39_linear_1056_2)"/>
<path d="M-2.77852 16.1341L-2.82129 16.3049L28.7748 24.6136L28.8176 24.4427L-2.77852 16.1341Z" fill="url(#paint40_linear_1056_2)"/>
<path d="M-2.75019 16.0194L-2.79297 16.1903L28.8031 24.4989L28.8459 24.3281L-2.75019 16.0194Z" fill="url(#paint41_linear_1056_2)"/>
<path d="M-2.72087 15.9024L-2.76367 16.0732L28.831 24.3875L28.8738 24.2167L-2.72087 15.9024Z" fill="url(#paint42_linear_1056_2)"/>
<path d="M-2.69258 15.7918L-2.73535 15.9626L28.8608 24.2713L28.9035 24.1004L-2.69258 15.7918Z" fill="url(#paint43_linear_1056_2)"/>
<path d="M-2.66374 15.6752L-2.70654 15.8461L28.8881 24.1603L28.9309 23.9895L-2.66374 15.6752Z" fill="url(#paint44_linear_1056_2)"/>
<path d="M-2.63591 15.5597L-2.67871 15.7306L28.916 24.0449L28.9588 23.874L-2.63591 15.5597Z" fill="url(#paint45_linear_1056_2)"/>
<path d="M-2.60762 15.4501L-2.65039 15.621L28.9457 23.9296L28.9885 23.7587L-2.60762 15.4501Z" fill="url(#paint46_linear_1056_2)"/>
<path d="M-2.57878 15.3324L-2.62158 15.5033L28.9731 23.8176L29.0159 23.6467L-2.57878 15.3324Z" fill="url(#paint47_linear_1056_2)"/>
<path d="M-2.55049 15.2224L-2.59326 15.3933L29.0028 23.7019L29.0456 23.5311L-2.55049 15.2224Z" fill="url(#paint48_linear_1056_2)"/>
<path d="M-2.52217 15.1086L-2.56494 15.2794L29.0312 23.588L29.0739 23.4172L-2.52217 15.1086Z" fill="url(#paint49_linear_1056_2)"/>
<path d="M-2.49333 14.9912L-2.53613 15.1621L29.0586 23.4764L29.1014 23.3055L-2.49333 14.9912Z" fill="url(#paint50_linear_1056_2)"/>
<path d="M-2.46553 14.8783L-2.5083 15.0492L29.0878 23.3578L29.1306 23.187L-2.46553 14.8783Z" fill="url(#paint51_linear_1056_2)"/>
<path d="M-2.43669 14.7614L-2.47949 14.9323L29.1152 23.2465L29.158 23.0757L-2.43669 14.7614Z" fill="url(#paint52_linear_1056_2)"/>
<path d="M-2.40739 14.6491L-2.4502 14.8199L29.1445 23.1342L29.1873 22.9634L-2.40739 14.6491Z" fill="url(#paint53_linear_1056_2)"/>
<path d="M-2.37959 14.5386L-2.42236 14.7095L29.1737 23.0181L29.2165 22.8472L-2.37959 14.5386Z" fill="url(#paint54_linear_1056_2)"/>
<path d="M-2.34977 14.4217L-2.39258 14.5925L29.2021 22.9068L29.2449 22.7359L-2.34977 14.4217Z" fill="url(#paint55_linear_1056_2)"/>
<path d="M-2.32246 14.3108L-2.36523 14.4817L29.2309 22.7903L29.2736 22.6194L-2.32246 14.3108Z" fill="url(#paint56_linear_1056_2)"/>
<path d="M-2.29414 14.1966L-2.33691 14.3674L29.2592 22.6761L29.302 22.5052L-2.29414 14.1966Z" fill="url(#paint57_linear_1056_2)"/>
<path d="M-2.26481 14.0794L-2.30762 14.2502L29.2871 22.5645L29.3299 22.3937L-2.26481 14.0794Z" fill="url(#paint58_linear_1056_2)"/>
<path d="M-2.2375 13.9679L-2.28027 14.1388L29.3158 22.4474L29.3586 22.2766L-2.2375 13.9679Z" fill="url(#paint59_linear_1056_2)"/>
<path d="M-2.20918 13.8534L-2.25195 14.0243L29.3441 22.3329L29.3869 22.1621L-2.20918 13.8534Z" fill="url(#paint60_linear_1056_2)"/>
<path d="M-2.17936 13.7378L-2.22217 13.9087L29.3725 22.223L29.4153 22.0521L-2.17936 13.7378Z" fill="url(#paint61_linear_1056_2)"/>
<path d="M-2.15107 13.6272L-2.19385 13.7981L29.4023 22.1067L29.445 21.9359L-2.15107 13.6272Z" fill="url(#paint62_linear_1056_2)"/>
<path d="M-2.12175 13.5102L-2.16455 13.681L29.4301 21.9953L29.4729 21.8244L-2.12175 13.5102Z" fill="url(#paint63_linear_1056_2)"/>
<path d="M-2.09346 13.4001L-2.13623 13.5709L29.4599 21.8795L29.5026 21.7087L-2.09346 13.4001Z" fill="url(#paint64_linear_1056_2)"/>
<path d="M-2.06514 13.2858L-2.10791 13.4567L29.4882 21.7653L29.531 21.5944L-2.06514 13.2858Z" fill="url(#paint65_linear_1056_2)"/>
<path d="M-2.0363 13.1689L-2.0791 13.3397L29.5156 21.654L29.5584 21.4831L-2.0363 13.1689Z" fill="url(#paint66_linear_1056_2)"/>
<path d="M-2.00898 13.0564L-2.05176 13.2273L29.5443 21.5359L29.5871 21.3651L-2.00898 13.0564Z" fill="url(#paint67_linear_1056_2)"/>
<path d="M-1.98018 12.9436L-2.02295 13.1145L29.5732 21.4231L29.6159 21.2523L-1.98018 12.9436Z" fill="url(#paint68_linear_1056_2)"/>
<path d="M-1.95085 12.8273L-1.99365 12.9982L29.601 21.3124L29.6438 21.1416L-1.95085 12.8273Z" fill="url(#paint69_linear_1056_2)"/>
<path d="M-1.92305 12.7166L-1.96582 12.8875L29.6303 21.1961L29.6731 21.0252L-1.92305 12.7166Z" fill="url(#paint70_linear_1056_2)"/>
<path d="M-1.89372 12.5984L-1.93652 12.7693L29.6582 21.0836L29.701 20.9127L-1.89372 12.5984Z" fill="url(#paint71_linear_1056_2)"/>
<path d="M-1.8654 12.4853L-1.9082 12.6561L29.6865 20.9704L29.7293 20.7995L-1.8654 12.4853Z" fill="url(#paint72_linear_1056_2)"/>
<path d="M-1.83857 12.3731L-1.88135 12.5439L29.7148 20.8526L29.7575 20.6817L-1.83857 12.3731Z" fill="url(#paint73_linear_1056_2)"/>
<path d="M-1.80925 12.256L-1.85205 12.4269L29.7426 20.7412L29.7854 20.5703L-1.80925 12.256Z" fill="url(#paint74_linear_1056_2)"/>
<path d="M-1.78096 12.1447L-1.82373 12.3156L29.7724 20.6242L29.8152 20.4533L-1.78096 12.1447Z" fill="url(#paint75_linear_1056_2)"/>
<path d="M-1.75215 12.0325L-1.79492 12.2034L29.8012 20.512L29.844 20.3411L-1.75215 12.0325Z" fill="url(#paint76_linear_1056_2)"/>
<path d="M-1.72331 11.9153L-1.76611 12.0862L29.8286 20.4005L29.8714 20.2296L-1.72331 11.9153Z" fill="url(#paint77_linear_1056_2)"/>
<path d="M-1.69502 11.8052L-1.73779 11.9761L29.8583 20.2847L29.9011 20.1138L-1.69502 11.8052Z" fill="url(#paint78_linear_1056_2)"/>
<path d="M-1.66569 11.6875L-1.7085 11.8584L29.8862 20.1727L29.929 20.0018L-1.66569 11.6875Z" fill="url(#paint79_linear_1056_2)"/>
<path d="M-1.63786 11.5734L-1.68066 11.7443L29.914 20.0585L29.9568 19.8877L-1.63786 11.5734Z" fill="url(#paint80_linear_1056_2)"/>
<path d="M-1.61055 11.4612L-1.65332 11.6321L29.9428 19.9407L29.9856 19.7698L-1.61055 11.4612Z" fill="url(#paint81_linear_1056_2)"/>
<path d="M-1.58171 11.3442L-1.62451 11.515L29.9702 19.8293L30.013 19.6584L-1.58171 11.3442Z" fill="url(#paint82_linear_1056_2)"/>
<path d="M-1.55293 11.2334L-1.5957 11.4043L30.0004 19.7129L30.0432 19.5421L-1.55293 11.2334Z" fill="url(#paint83_linear_1056_2)"/>
<path d="M-1.52412 11.1211L-1.56689 11.292L30.0292 19.6006L30.072 19.4298L-1.52412 11.1211Z" fill="url(#paint84_linear_1056_2)"/>
<path d="M-1.49528 11.0038L-1.53809 11.1747L30.0566 19.489L30.0994 19.3181L-1.49528 11.0038Z" fill="url(#paint85_linear_1056_2)"/>
<path d="M-1.46699 10.8933L-1.50977 11.0642L30.0863 19.3728L30.1291 19.202L-1.46699 10.8933Z" fill="url(#paint86_linear_1056_2)"/>
<path d="M-1.43867 10.7791L-1.48145 10.95L30.1147 19.2586L30.1574 19.0877L-1.43867 10.7791Z" fill="url(#paint87_linear_1056_2)"/>
<path d="M-1.40935 10.662L-1.45215 10.8329L30.1425 19.1472L30.1853 18.9763L-1.40935 10.662Z" fill="url(#paint88_linear_1056_2)"/>
<path d="M-1.38203 10.5506L-1.4248 10.7214L30.1713 19.0301L30.2141 18.8592L-1.38203 10.5506Z" fill="url(#paint89_linear_1056_2)"/>
<path d="M-1.35173 10.4347L-1.39453 10.6056L30.2002 18.9199L30.243 18.749L-1.35173 10.4347Z" fill="url(#paint90_linear_1056_2)"/>
<path d="M-1.32344 10.3238L-1.36621 10.4946L30.2299 18.8033L30.2727 18.6324L-1.32344 10.3238Z" fill="url(#paint91_linear_1056_2)"/>
<path d="M-1.2956 10.2097L-1.33838 10.3806L30.2577 18.6892L30.3005 18.5184L-1.2956 10.2097Z" fill="url(#paint92_linear_1056_2)"/>
<path d="M-1.26628 10.0932L-1.30908 10.264L30.2856 18.5783L30.3284 18.4075L-1.26628 10.0932Z" fill="url(#paint93_linear_1056_2)"/>
<path d="M-1.23896 9.98233L-1.28174 10.1532L30.3144 18.4618L30.3571 18.291L-1.23896 9.98233Z" fill="url(#paint94_linear_1056_2)"/>
<path d="M-1.21064 9.86697L-1.25342 10.0378L30.3427 18.3465L30.3855 18.1756L-1.21064 9.86697Z" fill="url(#paint95_linear_1056_2)"/>
<path d="M-1.18181 9.74979L-1.22461 9.92065L30.3701 18.2349L30.4129 18.0641L-1.18181 9.74979Z" fill="url(#paint96_linear_1056_2)"/>
<path d="M-1.154 9.63882L-1.19678 9.80969L30.3993 18.1183L30.4421 17.9474L-1.154 9.63882Z" fill="url(#paint97_linear_1056_2)"/>
<path d="M-1.12419 9.52323L-1.16699 9.69409L30.4277 18.0084L30.4705 17.8375L-1.12419 9.52323Z" fill="url(#paint98_linear_1056_2)"/>
<path d="M-1.09587 9.40922L-1.13867 9.58008L30.456 17.8944L30.4988 17.7235L-1.09587 9.40922Z" fill="url(#paint99_linear_1056_2)"/>
<path d="M-1.06709 9.29837L-1.10986 9.46924L30.4862 17.7779L30.529 17.607L-1.06709 9.29837Z" fill="url(#paint100_linear_1056_2)"/>
<path d="M-1.03874 9.18119L-1.08154 9.35205L30.5131 17.6663L30.5559 17.4955L-1.03874 9.18119Z" fill="url(#paint101_linear_1056_2)"/>
<path d="M-1.00996 9.07071L-1.05273 9.24158L30.5434 17.5502L30.5861 17.3793L-1.00996 9.07071Z" fill="url(#paint102_linear_1056_2)"/>
<path d="M-0.982128 8.95584L-1.0249 9.12671L30.5712 17.4353L30.614 17.2645L-0.982128 8.95584Z" fill="url(#paint103_linear_1056_2)"/>
<path d="M-0.953779 8.83854L-0.996582 9.0094L30.5981 17.3237L30.6409 17.1528L-0.953779 8.83854Z" fill="url(#paint104_linear_1056_2)"/>
<path d="M-0.925976 8.72732L-0.96875 8.89819L30.6273 17.2068L30.6701 17.036L-0.925976 8.72732Z" fill="url(#paint105_linear_1056_2)"/>
<path d="M-0.895673 8.61149L-0.938477 8.78235L30.6562 17.0966L30.699 16.9258L-0.895673 8.61149Z" fill="url(#paint106_linear_1056_2)"/>
<path d="M-0.866865 8.49784L-0.909668 8.6687L30.685 16.983L30.7278 16.8121L-0.866865 8.49784Z" fill="url(#paint107_linear_1056_2)"/>
<path d="M-0.839062 8.38711L-0.881836 8.55798L30.7143 16.8666L30.757 16.6957L-0.839062 8.38711Z" fill="url(#paint108_linear_1056_2)"/>
<path d="M-0.810713 8.26969L-0.853516 8.44055L30.7412 16.7548L30.784 16.584L-0.810713 8.26969Z" fill="url(#paint109_linear_1056_2)"/>
<path d="M-0.783398 8.15799L-0.826172 8.32886L30.7699 16.6375L30.8127 16.4666L-0.783398 8.15799Z" fill="url(#paint110_linear_1056_2)"/>
<path d="M-0.754589 8.04397L-0.797363 8.21484L30.7987 16.5235L30.8415 16.3526L-0.754589 8.04397Z" fill="url(#paint111_linear_1056_2)"/>
<path d="M-0.724287 7.92814L-0.76709 8.099L30.8276 16.4133L30.8704 16.2424L-0.724287 7.92814Z" fill="url(#paint112_linear_1056_2)"/>
<path d="M-0.696484 7.81766L-0.739258 7.98853L30.8568 16.2972L30.8996 16.1263L-0.696484 7.81766Z" fill="url(#paint113_linear_1056_2)"/>
<path d="M-0.667675 7.70364L-0.710449 7.87451L30.8857 16.1831L30.9284 16.0123L-0.667675 7.70364Z" fill="url(#paint114_linear_1056_2)"/>
<path d="M-0.639326 7.58646L-0.682129 7.75732L30.9126 16.0716L30.9554 15.9007L-0.639326 7.58646Z" fill="url(#paint115_linear_1056_2)"/>
<path d="M-0.611035 7.47586L-0.653809 7.64673L30.9423 15.9554L30.9851 15.7845L-0.611035 7.47586Z" fill="url(#paint116_linear_1056_2)"/>
<path d="M-0.581708 7.35917L-0.624512 7.53003L30.9702 15.8443L31.013 15.6734L-0.581708 7.35917Z" fill="url(#paint117_linear_1056_2)"/>
<path d="M-0.554365 7.24369L-0.597168 7.41455L30.9975 15.7288L31.0403 15.558L-0.554365 7.24369Z" fill="url(#paint118_linear_1056_2)"/>
<path d="M-0.526562 7.13296L-0.569336 7.30383L31.0268 15.6125L31.0695 15.4416L-0.526562 7.13296Z" fill="url(#paint119_linear_1056_2)"/>
<path d="M-0.496747 7.017L-0.539551 7.18787L31.0551 15.5021L31.0979 15.3313L-0.496747 7.017Z" fill="url(#paint120_linear_1056_2)"/>
<path d="M-0.468457 6.90616L-0.51123 7.07703L31.0849 15.3857L31.1277 15.2148L-0.468457 6.90616Z" fill="url(#paint121_linear_1056_2)"/>
<path d="M-0.439647 6.79226L-0.482422 6.96313L31.1137 15.2718L31.1565 15.1009L-0.439647 6.79226Z" fill="url(#paint122_linear_1056_2)"/>
<path d="M-0.410322 6.67545L-0.453125 6.84631L31.1416 15.1606L31.1844 14.9897L-0.410322 6.67545Z" fill="url(#paint123_linear_1056_2)"/>
<path d="M-0.382519 6.5646L-0.425293 6.73547L31.1708 15.0441L31.2136 14.8732L-0.382519 6.5646Z" fill="url(#paint124_linear_1056_2)"/>
<path d="M-0.353681 6.44706L-0.396484 6.61792L31.1982 14.9322L31.241 14.7613L-0.353681 6.44706Z" fill="url(#paint125_linear_1056_2)"/>
<path d="M-0.326338 6.33219L-0.369141 6.50305L31.2255 14.8173L31.2683 14.6465L-0.326338 6.33219Z" fill="url(#paint126_linear_1056_2)"/>
<path d="M-0.298046 6.22183L-0.34082 6.3927L31.2553 14.7013L31.2981 14.5305L-0.298046 6.22183Z" fill="url(#paint127_linear_1056_2)"/>
<path d="M-0.267743 6.10587L-0.310547 6.27673L31.2841 14.591L31.3269 14.4202L-0.267743 6.10587Z" fill="url(#paint128_linear_1056_2)"/>
<path d="M-0.239941 5.99441L-0.282715 6.16528L31.3134 14.4739L31.3562 14.303L-0.239941 5.99441Z" fill="url(#paint129_linear_1056_2)"/>
<path d="M-0.211621 5.88101L-0.254395 6.05188L31.3417 14.3605L31.3845 14.1896L-0.211621 5.88101Z" fill="url(#paint130_linear_1056_2)"/>
<path d="M-0.182782 5.76383L-0.225586 5.93469L31.3691 14.249L31.4119 14.0781L-0.182782 5.76383Z" fill="url(#paint131_linear_1056_2)"/>
<path d="M-0.155468 5.65213L-0.198242 5.823L31.3979 14.1316L31.4406 13.9608L-0.155468 5.65213Z" fill="url(#paint132_linear_1056_2)"/>
<path d="M-0.127147 5.53799L-0.169922 5.70886L31.4262 14.0175L31.469 13.8466L-0.127147 5.53799Z" fill="url(#paint133_linear_1056_2)"/>
<path d="M-0.0973337 5.42179L-0.140137 5.59265L31.4546 13.9069L31.4974 13.7361L-0.0973337 5.42179Z" fill="url(#paint134_linear_1056_2)"/>
<path d="M-0.0690425 5.31106L-0.111816 5.48193L31.4843 13.7906L31.5271 13.6197L-0.0690425 5.31106Z" fill="url(#paint135_linear_1056_2)"/>
<path d="M-0.0402048 5.19413L-0.0830078 5.36499L31.5117 13.6793L31.5545 13.5084L-0.0402048 5.19413Z" fill="url(#paint136_linear_1056_2)"/>
<path d="M-0.0124018 5.08365L-0.0551758 5.25452L31.5409 13.5631L31.5837 13.3923L-0.0124018 5.08365Z" fill="url(#paint137_linear_1056_2)"/>
<path d="M0.0164068 4.96939L-0.0263672 5.14026L31.5697 13.4489L31.6125 13.278L0.0164068 4.96939Z" fill="url(#paint138_linear_1056_2)"/>
<path d="M0.0452449 4.85221L0.00244141 5.02307L31.5971 13.3374L31.6399 13.1665L0.0452449 4.85221Z" fill="url(#paint139_linear_1056_2)"/>
<path d="M0.0730474 4.74075L0.0302734 4.91162L31.6264 13.2202L31.6691 13.0494L0.0730474 4.74075Z" fill="url(#paint140_linear_1056_2)"/>
<path d="M0.101368 4.62649L0.0585938 4.79736L31.6547 13.106L31.6975 12.9351L0.101368 4.62649Z" fill="url(#paint141_linear_1056_2)"/>
<path d="M0.130694 4.51066L0.0878906 4.68152L31.6826 12.9958L31.7254 12.8249L0.130694 4.51066Z" fill="url(#paint142_linear_1056_2)"/>
<path d="M0.159473 4.40018L0.116699 4.57104L31.7128 12.8797L31.7556 12.7088L0.159473 4.40018Z" fill="url(#paint143_linear_1056_2)"/>
<path d="M0.187823 4.283L0.14502 4.45386L31.7397 12.7681L31.7825 12.5973L0.187823 4.283Z" fill="url(#paint144_linear_1056_2)"/>
<path d="M0.216143 4.16923L0.17334 4.34009L31.768 12.6544L31.8108 12.4835L0.216143 4.16923Z" fill="url(#paint145_linear_1056_2)"/>
<path d="M0.244922 4.05801L0.202148 4.22888L31.7982 12.5375L31.841 12.3666L0.244922 4.05801Z" fill="url(#paint146_linear_1056_2)"/>
<path d="M0.274248 3.94132L0.231445 4.11218L31.8261 12.4265L31.8689 12.2556L0.274248 3.94132Z" fill="url(#paint147_linear_1056_2)"/>
<path d="M0.300098 3.82938L0.257324 4.00024L31.8534 12.3089L31.8962 12.138L0.300098 3.82938Z" fill="url(#paint148_linear_1056_2)"/>
<path d="M0.329395 3.71573L0.286621 3.8866L31.8827 12.1952L31.9255 12.0244L0.329395 3.71573Z" fill="url(#paint149_linear_1056_2)"/>
<path d="M0.35921 3.59928L0.316406 3.77014L31.9111 12.0844L31.9539 11.9136L0.35921 3.59928Z" fill="url(#paint150_linear_1056_2)"/>
<path d="M0.387501 3.4888L0.344727 3.65967L31.9408 11.9683L31.9836 11.7974L0.387501 3.4888Z" fill="url(#paint151_linear_1056_2)"/>
<path d="M0.416826 3.37174L0.374023 3.5426L31.9687 11.8569L32.0115 11.686L0.416826 3.37174Z" fill="url(#paint152_linear_1056_2)"/>
<path d="M0.444659 3.25797L0.401855 3.42883L31.9965 11.7431L32.0393 11.5723L0.444659 3.25797Z" fill="url(#paint153_linear_1056_2)"/>
<path d="M0.471485 3.1459L0.428711 3.31677L32.0248 11.6254L32.0676 11.4545L0.471485 3.1459Z" fill="url(#paint154_linear_1056_2)"/>
<path d="M0.500323 3.02872L0.45752 3.19958L32.0522 11.5139L32.095 11.343L0.500323 3.02872Z" fill="url(#paint155_linear_1056_2)"/>
<path d="M0.528126 2.91787L0.485352 3.08875L32.0815 11.3974L32.1242 11.2265L0.528126 2.91787Z" fill="url(#paint156_linear_1056_2)"/>
<path d="M0.558887 2.80557L0.516113 2.97644L32.1122 11.2851L32.155 11.1142L0.558887 2.80557Z" fill="url(#paint157_linear_1056_2)"/>
<path d="M0.587725 2.68778L0.544922 2.85864L32.1396 11.1729L32.1824 11.0021L0.587725 2.68778Z" fill="url(#paint158_linear_1056_2)"/>
<path d="M0.615528 2.57693L0.572754 2.7478L32.1689 11.0564L32.2116 10.8856L0.615528 2.57693Z" fill="url(#paint159_linear_1056_2)"/>
<path d="M0.643848 2.46341L0.601074 2.63428L32.1972 10.9429L32.2399 10.772L0.643848 2.46341Z" fill="url(#paint160_linear_1056_2)"/>
<path d="M0.672686 2.34562L0.629883 2.51648L32.2246 10.8308L32.2674 10.6599L0.672686 2.34562Z" fill="url(#paint161_linear_1056_2)"/>
<path d="M0.699513 2.23489L0.656738 2.40576L32.2528 10.7144L32.2956 10.5435L0.699513 2.23489Z" fill="url(#paint162_linear_1056_2)"/>
<path d="M0.728838 2.11771L0.686035 2.28857L32.2807 10.6029L32.3235 10.432L0.728838 2.11771Z" fill="url(#paint163_linear_1056_2)"/>
<path d="M0.756642 2.00686L0.713867 2.17773L32.31 10.4864L32.3527 10.3155L0.756642 2.00686Z" fill="url(#paint164_linear_1056_2)"/>
<path d="M0.786426 1.89383L0.743652 2.0647L32.3398 10.3733L32.3825 10.2025L0.786426 1.89383Z" fill="url(#paint165_linear_1056_2)"/>
<path d="M0.815752 1.77689L0.772949 1.94775L32.3676 10.262L32.4104 10.0912L0.815752 1.77689Z" fill="url(#paint166_linear_1056_2)"/>
<path d="M0.844044 1.6658L0.80127 1.83667L32.3974 10.1453L32.4401 9.97443L0.844044 1.6658Z" fill="url(#paint167_linear_1056_2)"/>
<path d="M0.872364 1.55191L0.82959 1.72278L32.4257 10.0314L32.4685 9.86054L0.872364 1.55191Z" fill="url(#paint168_linear_1056_2)"/>
<path d="M0.90169 1.4351L0.858887 1.60596L32.4536 9.92024L32.4964 9.74938L0.90169 1.4351Z" fill="url(#paint169_linear_1056_2)"/>
<path d="M0.92754 1.32351L0.884766 1.49438L32.4809 9.80301L32.5236 9.63214L0.92754 1.32351Z" fill="url(#paint170_linear_1056_2)"/>
<path d="M0.958819 1.20731L0.916016 1.37817L32.5107 9.69245L32.5535 9.52159L0.958819 1.20731Z" fill="url(#paint171_linear_1056_2)"/>
<path d="M0.986651 1.09318L0.943848 1.26404L32.5385 9.57832L32.5813 9.40746L0.986651 1.09318Z" fill="url(#paint172_linear_1056_2)"/>
<path d="M1.01494 0.982328L0.972168 1.1532L32.5683 9.46182L32.611 9.29095L1.01494 0.982328Z" fill="url(#paint173_linear_1056_2)"/>
<path d="M1.04378 0.865638L1.00098 1.0365L32.5957 9.35078L32.6385 9.17992L1.04378 0.865638Z" fill="url(#paint174_linear_1056_2)"/>
<path d="M1.07158 0.754667L1.02881 0.925537L32.6249 9.23416L32.6677 9.06329L1.07158 0.754667Z" fill="url(#paint175_linear_1056_2)"/>
<path d="M1.0999 0.640044L1.05713 0.810913L32.6532 9.11954L32.696 8.94867L1.0999 0.640044Z" fill="url(#paint176_linear_1056_2)"/>
<path d="M1.11236 0.579731L1.08398 0.692993L32.6787 9.00727L32.707 8.89401L1.11236 0.579731Z" fill="url(#paint177_linear_1056_2)"/>
</g>
<defs>
<linearGradient id="paint0_linear_1056_2" x1="-3.91508" y1="20.6679" x2="27.7763" y2="28.5955" gradientUnits="userSpaceOnUse">
<stop stop-color="#1558BB"/>
<stop offset="1" stop-color="#07CBEB"/>
</linearGradient>
<linearGradient id="paint1_linear_1056_2" x1="-3.91219" y1="20.6569" x2="27.7766" y2="28.5954" gradientUnits="userSpaceOnUse">
<stop stop-color="#1558BB"/>
<stop offset="1" stop-color="#07CBEB"/>
</linearGradient>
<linearGradient id="paint2_linear_1056_2" x1="-3.88437" y1="20.5455" x2="27.8057" y2="28.4786" gradientUnits="userSpaceOnUse">
<stop stop-color="#1558BB"/>
<stop offset="1" stop-color="#07CBEB"/>
</linearGradient>
<linearGradient id="paint3_linear_1056_2" x1="-3.85557" y1="20.4337" x2="27.8346" y2="28.3668" gradientUnits="userSpaceOnUse">
<stop stop-color="#1558BB"/>
<stop offset="1" stop-color="#07CBEB"/>
</linearGradient>
<linearGradient id="paint4_linear_1056_2" x1="-3.82625" y1="20.3165" x2="27.8626" y2="28.255" gradientUnits="userSpaceOnUse">
<stop stop-color="#1558BB"/>
<stop offset="1" stop-color="#07CBEB"/>
</linearGradient>
<linearGradient id="paint5_linear_1056_2" x1="-3.79795" y1="20.2064" x2="27.8922" y2="28.1395" gradientUnits="userSpaceOnUse">
<stop stop-color="#1558BB"/>
<stop offset="1" stop-color="#07CBEB"/>
</linearGradient>
<linearGradient id="paint6_linear_1056_2" x1="-3.76963" y1="20.0922" x2="27.9205" y2="28.0252" gradientUnits="userSpaceOnUse">
<stop stop-color="#1558BB"/>
<stop offset="1" stop-color="#07CBEB"/>
</linearGradient>
<linearGradient id="paint7_linear_1056_2" x1="-3.74129" y1="19.9728" x2="27.9475" y2="27.9113" gradientUnits="userSpaceOnUse">
<stop stop-color="#1558BB"/>
<stop offset="1" stop-color="#07CBEB"/>
</linearGradient>
<linearGradient id="paint8_linear_1056_2" x1="-3.71348" y1="19.8626" x2="27.9766" y2="27.7956" gradientUnits="userSpaceOnUse">
<stop stop-color="#1558BB"/>
<stop offset="1" stop-color="#07CBEB"/>
</linearGradient>
<linearGradient id="paint9_linear_1056_2" x1="-3.68416" y1="19.7471" x2="28.0047" y2="27.6856" gradientUnits="userSpaceOnUse">
<stop stop-color="#1558BB"/>
<stop offset="1" stop-color="#07CBEB"/>
</linearGradient>
<linearGradient id="paint10_linear_1056_2" x1="-3.65586" y1="19.6367" x2="28.0343" y2="27.5698" gradientUnits="userSpaceOnUse">
<stop stop-color="#1558BB"/>
<stop offset="1" stop-color="#07CBEB"/>
</linearGradient>
<linearGradient id="paint11_linear_1056_2" x1="-3.62754" y1="19.5232" x2="28.0626" y2="27.4563" gradientUnits="userSpaceOnUse">
<stop stop-color="#1558BB"/>
<stop offset="1" stop-color="#07CBEB"/>
</linearGradient>
<linearGradient id="paint12_linear_1056_2" x1="-3.59872" y1="19.4055" x2="28.0901" y2="27.344" gradientUnits="userSpaceOnUse">
<stop stop-color="#1558BB"/>
<stop offset="1" stop-color="#07CBEB"/>
</linearGradient>
<linearGradient id="paint13_linear_1056_2" x1="-3.57041" y1="19.2947" x2="28.1197" y2="27.2278" gradientUnits="userSpaceOnUse">
<stop stop-color="#1558BB"/>
<stop offset="1" stop-color="#07CBEB"/>
</linearGradient>
<linearGradient id="paint14_linear_1056_2" x1="-3.54258" y1="19.1791" x2="28.1475" y2="27.1122" gradientUnits="userSpaceOnUse">
<stop stop-color="#1558BB"/>
<stop offset="1" stop-color="#07CBEB"/>
</linearGradient>
<linearGradient id="paint15_linear_1056_2" x1="-3.51278" y1="19.0622" x2="28.176" y2="27.0006" gradientUnits="userSpaceOnUse">
<stop stop-color="#1558BB"/>
<stop offset="1" stop-color="#07CBEB"/>
</linearGradient>
<linearGradient id="paint16_linear_1056_2" x1="-3.48496" y1="18.9518" x2="28.2052" y2="26.8849" gradientUnits="userSpaceOnUse">
<stop stop-color="#1558BB"/>
<stop offset="1" stop-color="#07CBEB"/>
</linearGradient>
<linearGradient id="paint17_linear_1056_2" x1="-3.45614" y1="18.836" x2="28.2327" y2="26.7744" gradientUnits="userSpaceOnUse">
<stop stop-color="#1558BB"/>
<stop offset="1" stop-color="#07CBEB"/>
</linearGradient>
<linearGradient id="paint18_linear_1056_2" x1="-3.42733" y1="18.7222" x2="28.2615" y2="26.6607" gradientUnits="userSpaceOnUse">
<stop stop-color="#1558BB"/>
<stop offset="1" stop-color="#07CBEB"/>
</linearGradient>
<linearGradient id="paint19_linear_1056_2" x1="-3.39951" y1="18.6115" x2="28.2906" y2="26.5445" gradientUnits="userSpaceOnUse">
<stop stop-color="#1558BB"/>
<stop offset="1" stop-color="#07CBEB"/>
</linearGradient>
<linearGradient id="paint20_linear_1056_2" x1="-3.36971" y1="18.4949" x2="28.3191" y2="26.4334" gradientUnits="userSpaceOnUse">
<stop stop-color="#1558BB"/>
<stop offset="1" stop-color="#07CBEB"/>
</linearGradient>
<linearGradient id="paint21_linear_1056_2" x1="-3.34238" y1="18.384" x2="28.3477" y2="26.3171" gradientUnits="userSpaceOnUse">
<stop stop-color="#1558BB"/>
<stop offset="1" stop-color="#07CBEB"/>
</linearGradient>
<linearGradient id="paint22_linear_1056_2" x1="-3.31406" y1="18.268" x2="28.3761" y2="26.201" gradientUnits="userSpaceOnUse">
<stop stop-color="#1558BB"/>
<stop offset="1" stop-color="#07CBEB"/>
</linearGradient>
<linearGradient id="paint23_linear_1056_2" x1="-3.28524" y1="18.1503" x2="28.4036" y2="26.0888" gradientUnits="userSpaceOnUse">
<stop stop-color="#1558BB"/>
<stop offset="1" stop-color="#07CBEB"/>
</linearGradient>
<linearGradient id="paint24_linear_1056_2" x1="-3.25742" y1="18.0401" x2="28.4327" y2="25.9731" gradientUnits="userSpaceOnUse">
<stop stop-color="#1558BB"/>
<stop offset="1" stop-color="#07CBEB"/>
</linearGradient>
<linearGradient id="paint25_linear_1056_2" x1="-3.22762" y1="17.9245" x2="28.4612" y2="25.8629" gradientUnits="userSpaceOnUse">
<stop stop-color="#1558BB"/>
<stop offset="1" stop-color="#07CBEB"/>
</linearGradient>
<linearGradient id="paint26_linear_1056_2" x1="-3.1993" y1="17.8102" x2="28.4895" y2="25.7487" gradientUnits="userSpaceOnUse">
<stop stop-color="#1558BB"/>
<stop offset="1" stop-color="#07CBEB"/>
</linearGradient>
<linearGradient id="paint27_linear_1056_2" x1="-3.17148" y1="17.7001" x2="28.5186" y2="25.6332" gradientUnits="userSpaceOnUse">
<stop stop-color="#1558BB"/>
<stop offset="1" stop-color="#07CBEB"/>
</linearGradient>
<linearGradient id="paint28_linear_1056_2" x1="-3.14217" y1="17.5827" x2="28.5467" y2="25.5212" gradientUnits="userSpaceOnUse">
<stop stop-color="#1558BB"/>
<stop offset="1" stop-color="#07CBEB"/>
</linearGradient>
<linearGradient id="paint29_linear_1056_2" x1="-3.11484" y1="17.4697" x2="28.5753" y2="25.4028" gradientUnits="userSpaceOnUse">
<stop stop-color="#1558BB"/>
<stop offset="1" stop-color="#07CBEB"/>
</linearGradient>
<linearGradient id="paint30_linear_1056_2" x1="-3.08603" y1="17.3566" x2="28.6041" y2="25.2896" gradientUnits="userSpaceOnUse">
<stop stop-color="#1558BB"/>
<stop offset="1" stop-color="#07CBEB"/>
</linearGradient>
<linearGradient id="paint31_linear_1056_2" x1="-3.05624" y1="17.241" x2="28.6326" y2="25.1795" gradientUnits="userSpaceOnUse">
<stop stop-color="#1558BB"/>
<stop offset="1" stop-color="#07CBEB"/>
</linearGradient>
<linearGradient id="paint32_linear_1056_2" x1="-3.02842" y1="17.1305" x2="28.6617" y2="25.0636" gradientUnits="userSpaceOnUse">
<stop stop-color="#1558BB"/>
<stop offset="1" stop-color="#07CBEB"/>
</linearGradient>
<linearGradient id="paint33_linear_1056_2" x1="-3.00059" y1="17.016" x2="28.6895" y2="24.9491" gradientUnits="userSpaceOnUse">
<stop stop-color="#1558BB"/>
<stop offset="1" stop-color="#07CBEB"/>
</linearGradient>
<linearGradient id="paint34_linear_1056_2" x1="-2.97127" y1="16.8987" x2="28.7176" y2="24.8372" gradientUnits="userSpaceOnUse">
<stop stop-color="#1558BB"/>
<stop offset="1" stop-color="#07CBEB"/>
</linearGradient>
<linearGradient id="paint35_linear_1056_2" x1="-2.94248" y1="16.7891" x2="28.7476" y2="24.7221" gradientUnits="userSpaceOnUse">
<stop stop-color="#1558BB"/>
<stop offset="1" stop-color="#07CBEB"/>
</linearGradient>
<linearGradient id="paint36_linear_1056_2" x1="-2.91366" y1="16.6713" x2="28.7752" y2="24.6098" gradientUnits="userSpaceOnUse">
<stop stop-color="#1558BB"/>
<stop offset="1" stop-color="#07CBEB"/>
</linearGradient>
<linearGradient id="paint37_linear_1056_2" x1="-2.88584" y1="16.5591" x2="28.8043" y2="24.4922" gradientUnits="userSpaceOnUse">
<stop stop-color="#1558BB"/>
<stop offset="1" stop-color="#07CBEB"/>
</linearGradient>
<linearGradient id="paint38_linear_1056_2" x1="-2.85801" y1="16.4452" x2="28.8321" y2="24.3783" gradientUnits="userSpaceOnUse">
<stop stop-color="#1558BB"/>
<stop offset="1" stop-color="#07CBEB"/>
</linearGradient>
<linearGradient id="paint39_linear_1056_2" x1="-2.82821" y1="16.3302" x2="28.8606" y2="24.2687" gradientUnits="userSpaceOnUse">
<stop stop-color="#1558BB"/>
<stop offset="1" stop-color="#07CBEB"/>
</linearGradient>
<linearGradient id="paint40_linear_1056_2" x1="-2.7999" y1="16.2195" x2="28.8902" y2="24.1526" gradientUnits="userSpaceOnUse">
<stop stop-color="#1558BB"/>
<stop offset="1" stop-color="#07CBEB"/>
</linearGradient>
<linearGradient id="paint41_linear_1056_2" x1="-2.77158" y1="16.1049" x2="28.9185" y2="24.0379" gradientUnits="userSpaceOnUse">
<stop stop-color="#1558BB"/>
<stop offset="1" stop-color="#07CBEB"/>
</linearGradient>
<linearGradient id="paint42_linear_1056_2" x1="-2.74227" y1="15.9878" x2="28.9466" y2="23.9263" gradientUnits="userSpaceOnUse">
<stop stop-color="#1558BB"/>
<stop offset="1" stop-color="#07CBEB"/>
</linearGradient>
<linearGradient id="paint43_linear_1056_2" x1="-2.71396" y1="15.8772" x2="28.9762" y2="23.8103" gradientUnits="userSpaceOnUse">
<stop stop-color="#1558BB"/>
<stop offset="1" stop-color="#07CBEB"/>
</linearGradient>
<linearGradient id="paint44_linear_1056_2" x1="-2.68514" y1="15.7606" x2="29.0037" y2="23.6991" gradientUnits="userSpaceOnUse">
<stop stop-color="#1558BB"/>
<stop offset="1" stop-color="#07CBEB"/>
</linearGradient>
<linearGradient id="paint45_linear_1056_2" x1="-2.65731" y1="15.6452" x2="29.0315" y2="23.5837" gradientUnits="userSpaceOnUse">
<stop stop-color="#1558BB"/>
<stop offset="1" stop-color="#07CBEB"/>
</linearGradient>
<linearGradient id="paint46_linear_1056_2" x1="-2.629" y1="15.5355" x2="29.0611" y2="23.4686" gradientUnits="userSpaceOnUse">
<stop stop-color="#1558BB"/>
<stop offset="1" stop-color="#07CBEB"/>
</linearGradient>
<linearGradient id="paint47_linear_1056_2" x1="-2.60018" y1="15.4179" x2="29.0886" y2="23.3564" gradientUnits="userSpaceOnUse">
<stop stop-color="#1558BB"/>
<stop offset="1" stop-color="#07CBEB"/>
</linearGradient>
<linearGradient id="paint48_linear_1056_2" x1="-2.57187" y1="15.3079" x2="29.1182" y2="23.2409" gradientUnits="userSpaceOnUse">
<stop stop-color="#1558BB"/>
<stop offset="1" stop-color="#07CBEB"/>
</linearGradient>
<linearGradient id="paint49_linear_1056_2" x1="-2.54355" y1="15.194" x2="29.1466" y2="23.127" gradientUnits="userSpaceOnUse">
<stop stop-color="#1558BB"/>
<stop offset="1" stop-color="#07CBEB"/>
</linearGradient>
<linearGradient id="paint50_linear_1056_2" x1="-2.51473" y1="15.0767" x2="29.1741" y2="23.0152" gradientUnits="userSpaceOnUse">
<stop stop-color="#1558BB"/>
<stop offset="1" stop-color="#07CBEB"/>
</linearGradient>
<linearGradient id="paint51_linear_1056_2" x1="-2.48691" y1="14.9638" x2="29.2032" y2="22.8968" gradientUnits="userSpaceOnUse">
<stop stop-color="#1558BB"/>
<stop offset="1" stop-color="#07CBEB"/>
</linearGradient>
<linearGradient id="paint52_linear_1056_2" x1="-2.45809" y1="14.8468" x2="29.2307" y2="22.7853" gradientUnits="userSpaceOnUse">
<stop stop-color="#1558BB"/>
<stop offset="1" stop-color="#07CBEB"/>
</linearGradient>
<linearGradient id="paint53_linear_1056_2" x1="-2.42879" y1="14.7345" x2="29.26" y2="22.673" gradientUnits="userSpaceOnUse">
<stop stop-color="#1558BB"/>
<stop offset="1" stop-color="#07CBEB"/>
</linearGradient>
<linearGradient id="paint54_linear_1056_2" x1="-2.40098" y1="14.624" x2="29.2891" y2="22.5571" gradientUnits="userSpaceOnUse">
<stop stop-color="#1558BB"/>
<stop offset="1" stop-color="#07CBEB"/>
</linearGradient>
<linearGradient id="paint55_linear_1056_2" x1="-2.37118" y1="14.5071" x2="29.3177" y2="22.4456" gradientUnits="userSpaceOnUse">
<stop stop-color="#1558BB"/>
<stop offset="1" stop-color="#07CBEB"/>
</linearGradient>
<linearGradient id="paint56_linear_1056_2" x1="-2.34385" y1="14.3963" x2="29.3463" y2="22.3293" gradientUnits="userSpaceOnUse">
<stop stop-color="#1558BB"/>
<stop offset="1" stop-color="#07CBEB"/>
</linearGradient>
<linearGradient id="paint57_linear_1056_2" x1="-2.31553" y1="14.282" x2="29.3746" y2="22.2151" gradientUnits="userSpaceOnUse">
<stop stop-color="#1558BB"/>
<stop offset="1" stop-color="#07CBEB"/>
</linearGradient>
<linearGradient id="paint58_linear_1056_2" x1="-2.28622" y1="14.1648" x2="29.4026" y2="22.1033" gradientUnits="userSpaceOnUse">
<stop stop-color="#1558BB"/>
<stop offset="1" stop-color="#07CBEB"/>
</linearGradient>
<linearGradient id="paint59_linear_1056_2" x1="-2.25889" y1="14.0534" x2="29.4312" y2="21.9864" gradientUnits="userSpaceOnUse">
<stop stop-color="#1558BB"/>
<stop offset="1" stop-color="#07CBEB"/>
</linearGradient>
<linearGradient id="paint60_linear_1056_2" x1="-2.23057" y1="13.9389" x2="29.4595" y2="21.8719" gradientUnits="userSpaceOnUse">
<stop stop-color="#1558BB"/>
<stop offset="1" stop-color="#07CBEB"/>
</linearGradient>
<linearGradient id="paint61_linear_1056_2" x1="-2.20077" y1="13.8233" x2="29.4881" y2="21.7618" gradientUnits="userSpaceOnUse">
<stop stop-color="#1558BB"/>
<stop offset="1" stop-color="#07CBEB"/>
</linearGradient>
<linearGradient id="paint62_linear_1056_2" x1="-2.17246" y1="13.7127" x2="29.5177" y2="21.6457" gradientUnits="userSpaceOnUse">
<stop stop-color="#1558BB"/>
<stop offset="1" stop-color="#07CBEB"/>
</linearGradient>
<linearGradient id="paint63_linear_1056_2" x1="-2.14315" y1="13.5956" x2="29.5457" y2="21.5341" gradientUnits="userSpaceOnUse">
<stop stop-color="#1558BB"/>
<stop offset="1" stop-color="#07CBEB"/>
</linearGradient>
<linearGradient id="paint64_linear_1056_2" x1="-2.11484" y1="13.4855" x2="29.5753" y2="21.4185" gradientUnits="userSpaceOnUse">
<stop stop-color="#1558BB"/>
<stop offset="1" stop-color="#07CBEB"/>
</linearGradient>
<linearGradient id="paint65_linear_1056_2" x1="-2.08652" y1="13.3712" x2="29.6036" y2="21.3043" gradientUnits="userSpaceOnUse">
<stop stop-color="#1558BB"/>
<stop offset="1" stop-color="#07CBEB"/>
</linearGradient>
<linearGradient id="paint66_linear_1056_2" x1="-2.0577" y1="13.2543" x2="29.6311" y2="21.1928" gradientUnits="userSpaceOnUse">
<stop stop-color="#1558BB"/>
<stop offset="1" stop-color="#07CBEB"/>
</linearGradient>
<linearGradient id="paint67_linear_1056_2" x1="-2.03037" y1="13.1419" x2="29.6598" y2="21.0749" gradientUnits="userSpaceOnUse">
<stop stop-color="#1558BB"/>
<stop offset="1" stop-color="#07CBEB"/>
</linearGradient>
<linearGradient id="paint68_linear_1056_2" x1="-2.00156" y1="13.0291" x2="29.6886" y2="20.9621" gradientUnits="userSpaceOnUse">
<stop stop-color="#1558BB"/>
<stop offset="1" stop-color="#07CBEB"/>
</linearGradient>
<linearGradient id="paint69_linear_1056_2" x1="-1.97225" y1="12.9127" x2="29.7166" y2="20.8512" gradientUnits="userSpaceOnUse">
<stop stop-color="#1558BB"/>
<stop offset="1" stop-color="#07CBEB"/>
</linearGradient>
<linearGradient id="paint70_linear_1056_2" x1="-1.94443" y1="12.802" x2="29.7457" y2="20.7351" gradientUnits="userSpaceOnUse">
<stop stop-color="#1558BB"/>
<stop offset="1" stop-color="#07CBEB"/>
</linearGradient>
<linearGradient id="paint71_linear_1056_2" x1="-1.91512" y1="12.6839" x2="29.7737" y2="20.6223" gradientUnits="userSpaceOnUse">
<stop stop-color="#1558BB"/>
<stop offset="1" stop-color="#07CBEB"/>
</linearGradient>
<linearGradient id="paint72_linear_1056_2" x1="-1.8868" y1="12.5707" x2="29.802" y2="20.5092" gradientUnits="userSpaceOnUse">
<stop stop-color="#1558BB"/>
<stop offset="1" stop-color="#07CBEB"/>
</linearGradient>
<linearGradient id="paint73_linear_1056_2" x1="-1.85996" y1="12.4585" x2="29.8302" y2="20.3916" gradientUnits="userSpaceOnUse">
<stop stop-color="#1558BB"/>
<stop offset="1" stop-color="#07CBEB"/>
</linearGradient>
<linearGradient id="paint74_linear_1056_2" x1="-1.83065" y1="12.3414" x2="29.8582" y2="20.2799" gradientUnits="userSpaceOnUse">
<stop stop-color="#1558BB"/>
<stop offset="1" stop-color="#07CBEB"/>
</linearGradient>
<linearGradient id="paint75_linear_1056_2" x1="-1.80234" y1="12.2301" x2="29.8878" y2="20.1632" gradientUnits="userSpaceOnUse">
<stop stop-color="#1558BB"/>
<stop offset="1" stop-color="#07CBEB"/>
</linearGradient>
<linearGradient id="paint76_linear_1056_2" x1="-1.77353" y1="12.1179" x2="29.9166" y2="20.051" gradientUnits="userSpaceOnUse">
<stop stop-color="#1558BB"/>
<stop offset="1" stop-color="#07CBEB"/>
</linearGradient>
<linearGradient id="paint77_linear_1056_2" x1="-1.74471" y1="12.0008" x2="29.9441" y2="19.9392" gradientUnits="userSpaceOnUse">
<stop stop-color="#1558BB"/>
<stop offset="1" stop-color="#07CBEB"/>
</linearGradient>
<linearGradient id="paint78_linear_1056_2" x1="-1.71641" y1="11.8906" x2="29.9737" y2="19.8237" gradientUnits="userSpaceOnUse">
<stop stop-color="#1558BB"/>
<stop offset="1" stop-color="#07CBEB"/>
</linearGradient>
<linearGradient id="paint79_linear_1056_2" x1="-1.68709" y1="11.773" x2="30.0017" y2="19.7115" gradientUnits="userSpaceOnUse">
<stop stop-color="#1558BB"/>
<stop offset="1" stop-color="#07CBEB"/>
</linearGradient>
<linearGradient id="paint80_linear_1056_2" x1="-1.65926" y1="11.6588" x2="30.0296" y2="19.5973" gradientUnits="userSpaceOnUse">
<stop stop-color="#1558BB"/>
<stop offset="1" stop-color="#07CBEB"/>
</linearGradient>
<linearGradient id="paint81_linear_1056_2" x1="-1.63193" y1="11.5466" x2="30.0582" y2="19.4797" gradientUnits="userSpaceOnUse">
<stop stop-color="#1558BB"/>
<stop offset="1" stop-color="#07CBEB"/>
</linearGradient>
<linearGradient id="paint82_linear_1056_2" x1="-1.60311" y1="11.4296" x2="30.0857" y2="19.3681" gradientUnits="userSpaceOnUse">
<stop stop-color="#1558BB"/>
<stop offset="1" stop-color="#07CBEB"/>
</linearGradient>
<linearGradient id="paint83_linear_1056_2" x1="-1.57432" y1="11.3189" x2="30.1158" y2="19.2519" gradientUnits="userSpaceOnUse">
<stop stop-color="#1558BB"/>
<stop offset="1" stop-color="#07CBEB"/>
</linearGradient>
<linearGradient id="paint84_linear_1056_2" x1="-1.54551" y1="11.2066" x2="30.1446" y2="19.1396" gradientUnits="userSpaceOnUse">
<stop stop-color="#1558BB"/>
<stop offset="1" stop-color="#07CBEB"/>
</linearGradient>
<linearGradient id="paint85_linear_1056_2" x1="-1.51668" y1="11.0893" x2="30.1721" y2="19.0277" gradientUnits="userSpaceOnUse">
<stop stop-color="#1558BB"/>
<stop offset="1" stop-color="#07CBEB"/>
</linearGradient>
<linearGradient id="paint86_linear_1056_2" x1="-1.48838" y1="10.9788" x2="30.2017" y2="18.9118" gradientUnits="userSpaceOnUse">
<stop stop-color="#1558BB"/>
<stop offset="1" stop-color="#07CBEB"/>
</linearGradient>
<linearGradient id="paint87_linear_1056_2" x1="-1.46006" y1="10.8645" x2="30.2301" y2="18.7976" gradientUnits="userSpaceOnUse">
<stop stop-color="#1558BB"/>
<stop offset="1" stop-color="#07CBEB"/>
</linearGradient>
<linearGradient id="paint88_linear_1056_2" x1="-1.43075" y1="10.7475" x2="30.2581" y2="18.6859" gradientUnits="userSpaceOnUse">
<stop stop-color="#1558BB"/>
<stop offset="1" stop-color="#07CBEB"/>
</linearGradient>
<linearGradient id="paint89_linear_1056_2" x1="-1.40342" y1="10.636" x2="30.2867" y2="18.5691" gradientUnits="userSpaceOnUse">
<stop stop-color="#1558BB"/>
<stop offset="1" stop-color="#07CBEB"/>
</linearGradient>
<linearGradient id="paint90_linear_1056_2" x1="-1.37313" y1="10.5202" x2="30.3157" y2="18.4587" gradientUnits="userSpaceOnUse">
<stop stop-color="#1558BB"/>
<stop offset="1" stop-color="#07CBEB"/>
</linearGradient>
<linearGradient id="paint91_linear_1056_2" x1="-1.34482" y1="10.4092" x2="30.3453" y2="18.3423" gradientUnits="userSpaceOnUse">
<stop stop-color="#1558BB"/>
<stop offset="1" stop-color="#07CBEB"/>
</linearGradient>
<linearGradient id="paint92_linear_1056_2" x1="-1.31699" y1="10.2952" x2="30.3731" y2="18.2282" gradientUnits="userSpaceOnUse">
<stop stop-color="#1558BB"/>
<stop offset="1" stop-color="#07CBEB"/>
</linearGradient>
<linearGradient id="paint93_linear_1056_2" x1="-1.28768" y1="10.1786" x2="30.4011" y2="18.1171" gradientUnits="userSpaceOnUse">
<stop stop-color="#1558BB"/>
<stop offset="1" stop-color="#07CBEB"/>
</linearGradient>
<linearGradient id="paint94_linear_1056_2" x1="-1.26035" y1="10.0678" x2="30.4298" y2="18.0008" gradientUnits="userSpaceOnUse">
<stop stop-color="#1558BB"/>
<stop offset="1" stop-color="#07CBEB"/>
</linearGradient>
<linearGradient id="paint95_linear_1056_2" x1="-1.23203" y1="9.95241" x2="30.4581" y2="17.8855" gradientUnits="userSpaceOnUse">
<stop stop-color="#1558BB"/>
<stop offset="1" stop-color="#07CBEB"/>
</linearGradient>
<linearGradient id="paint96_linear_1056_2" x1="-1.20321" y1="9.83522" x2="30.4856" y2="17.7737" gradientUnits="userSpaceOnUse">
<stop stop-color="#1558BB"/>
<stop offset="1" stop-color="#07CBEB"/>
</linearGradient>
<linearGradient id="paint97_linear_1056_2" x1="-1.17539" y1="9.72426" x2="30.5147" y2="17.6573" gradientUnits="userSpaceOnUse">
<stop stop-color="#1558BB"/>
<stop offset="1" stop-color="#07CBEB"/>
</linearGradient>
<linearGradient id="paint98_linear_1056_2" x1="-1.14559" y1="9.60866" x2="30.5432" y2="17.5472" gradientUnits="userSpaceOnUse">
<stop stop-color="#1558BB"/>
<stop offset="1" stop-color="#07CBEB"/>
</linearGradient>
<linearGradient id="paint99_linear_1056_2" x1="-1.11727" y1="9.49465" x2="30.5716" y2="17.4331" gradientUnits="userSpaceOnUse">
<stop stop-color="#1558BB"/>
<stop offset="1" stop-color="#07CBEB"/>
</linearGradient>
<linearGradient id="paint100_linear_1056_2" x1="-1.08848" y1="9.3838" x2="30.6016" y2="17.3169" gradientUnits="userSpaceOnUse">
<stop stop-color="#1558BB"/>
<stop offset="1" stop-color="#07CBEB"/>
</linearGradient>
<linearGradient id="paint101_linear_1056_2" x1="-1.06014" y1="9.26662" x2="30.6287" y2="17.2051" gradientUnits="userSpaceOnUse">
<stop stop-color="#1558BB"/>
<stop offset="1" stop-color="#07CBEB"/>
</linearGradient>
<linearGradient id="paint102_linear_1056_2" x1="-1.03135" y1="9.15614" x2="30.6588" y2="17.0892" gradientUnits="userSpaceOnUse">
<stop stop-color="#1558BB"/>
<stop offset="1" stop-color="#07CBEB"/>
</linearGradient>
<linearGradient id="paint103_linear_1056_2" x1="-1.00352" y1="9.04127" x2="30.6866" y2="16.9743" gradientUnits="userSpaceOnUse">
<stop stop-color="#1558BB"/>
<stop offset="1" stop-color="#07CBEB"/>
</linearGradient>
<linearGradient id="paint104_linear_1056_2" x1="-0.975181" y1="8.92397" x2="30.7136" y2="16.8625" gradientUnits="userSpaceOnUse">
<stop stop-color="#1558BB"/>
<stop offset="1" stop-color="#07CBEB"/>
</linearGradient>
<linearGradient id="paint105_linear_1056_2" x1="-0.947363" y1="8.81276" x2="30.7428" y2="16.7458" gradientUnits="userSpaceOnUse">
<stop stop-color="#1558BB"/>
<stop offset="1" stop-color="#07CBEB"/>
</linearGradient>
<linearGradient id="paint106_linear_1056_2" x1="-0.917075" y1="8.69692" x2="30.7718" y2="16.6354" gradientUnits="userSpaceOnUse">
<stop stop-color="#1558BB"/>
<stop offset="1" stop-color="#07CBEB"/>
</linearGradient>
<linearGradient id="paint107_linear_1056_2" x1="-0.888266" y1="8.58327" x2="30.8006" y2="16.5218" gradientUnits="userSpaceOnUse">
<stop stop-color="#1558BB"/>
<stop offset="1" stop-color="#07CBEB"/>
</linearGradient>
<linearGradient id="paint108_linear_1056_2" x1="-0.860449" y1="8.47255" x2="30.8297" y2="16.4056" gradientUnits="userSpaceOnUse">
<stop stop-color="#1558BB"/>
<stop offset="1" stop-color="#07CBEB"/>
</linearGradient>
<linearGradient id="paint109_linear_1056_2" x1="-0.832114" y1="8.35512" x2="30.8567" y2="16.2936" gradientUnits="userSpaceOnUse">
<stop stop-color="#1558BB"/>
<stop offset="1" stop-color="#07CBEB"/>
</linearGradient>
<linearGradient id="paint110_linear_1056_2" x1="-0.804785" y1="8.24342" x2="30.8853" y2="16.1765" gradientUnits="userSpaceOnUse">
<stop stop-color="#1558BB"/>
<stop offset="1" stop-color="#07CBEB"/>
</linearGradient>
<linearGradient id="paint111_linear_1056_2" x1="-0.775976" y1="8.12941" x2="30.9141" y2="16.0625" gradientUnits="userSpaceOnUse">
<stop stop-color="#1558BB"/>
<stop offset="1" stop-color="#07CBEB"/>
</linearGradient>
<linearGradient id="paint112_linear_1056_2" x1="-0.745688" y1="8.01357" x2="30.9431" y2="15.9521" gradientUnits="userSpaceOnUse">
<stop stop-color="#1558BB"/>
<stop offset="1" stop-color="#07CBEB"/>
</linearGradient>
<linearGradient id="paint113_linear_1056_2" x1="-0.717871" y1="7.90309" x2="30.9722" y2="15.8362" gradientUnits="userSpaceOnUse">
<stop stop-color="#1558BB"/>
<stop offset="1" stop-color="#07CBEB"/>
</linearGradient>
<linearGradient id="paint114_linear_1056_2" x1="-0.689062" y1="7.78908" x2="31.0011" y2="15.7221" gradientUnits="userSpaceOnUse">
<stop stop-color="#1558BB"/>
<stop offset="1" stop-color="#07CBEB"/>
</linearGradient>
<linearGradient id="paint115_linear_1056_2" x1="-0.660727" y1="7.67189" x2="31.0281" y2="15.6104" gradientUnits="userSpaceOnUse">
<stop stop-color="#1558BB"/>
<stop offset="1" stop-color="#07CBEB"/>
</linearGradient>
<linearGradient id="paint116_linear_1056_2" x1="-0.632422" y1="7.56129" x2="31.0577" y2="15.4944" gradientUnits="userSpaceOnUse">
<stop stop-color="#1558BB"/>
<stop offset="1" stop-color="#07CBEB"/>
</linearGradient>
<linearGradient id="paint117_linear_1056_2" x1="-0.60311" y1="7.4446" x2="31.0857" y2="15.3831" gradientUnits="userSpaceOnUse">
<stop stop-color="#1558BB"/>
<stop offset="1" stop-color="#07CBEB"/>
</linearGradient>
<linearGradient id="paint118_linear_1056_2" x1="-0.575766" y1="7.32912" x2="31.1131" y2="15.2676" gradientUnits="userSpaceOnUse">
<stop stop-color="#1558BB"/>
<stop offset="1" stop-color="#07CBEB"/>
</linearGradient>
<linearGradient id="paint119_linear_1056_2" x1="-0.547949" y1="7.2184" x2="31.1422" y2="15.1515" gradientUnits="userSpaceOnUse">
<stop stop-color="#1558BB"/>
<stop offset="1" stop-color="#07CBEB"/>
</linearGradient>
<linearGradient id="paint120_linear_1056_2" x1="-0.518149" y1="7.10243" x2="31.1707" y2="15.0409" gradientUnits="userSpaceOnUse">
<stop stop-color="#1558BB"/>
<stop offset="1" stop-color="#07CBEB"/>
</linearGradient>
<linearGradient id="paint121_linear_1056_2" x1="-0.489843" y1="6.99159" x2="31.2003" y2="14.9247" gradientUnits="userSpaceOnUse">
<stop stop-color="#1558BB"/>
<stop offset="1" stop-color="#07CBEB"/>
</linearGradient>
<linearGradient id="paint122_linear_1056_2" x1="-0.461035" y1="6.8777" x2="31.2291" y2="14.8108" gradientUnits="userSpaceOnUse">
<stop stop-color="#1558BB"/>
<stop offset="1" stop-color="#07CBEB"/>
</linearGradient>
<linearGradient id="paint123_linear_1056_2" x1="-0.431723" y1="6.76088" x2="31.2571" y2="14.6994" gradientUnits="userSpaceOnUse">
<stop stop-color="#1558BB"/>
<stop offset="1" stop-color="#07CBEB"/>
</linearGradient>
<linearGradient id="paint124_linear_1056_2" x1="-0.403906" y1="6.65004" x2="31.2862" y2="14.5831" gradientUnits="userSpaceOnUse">
<stop stop-color="#1558BB"/>
<stop offset="1" stop-color="#07CBEB"/>
</linearGradient>
<linearGradient id="paint125_linear_1056_2" x1="-0.375083" y1="6.53249" x2="31.3137" y2="14.471" gradientUnits="userSpaceOnUse">
<stop stop-color="#1558BB"/>
<stop offset="1" stop-color="#07CBEB"/>
</linearGradient>
<linearGradient id="paint126_linear_1056_2" x1="-0.347739" y1="6.41762" x2="31.3411" y2="14.3561" gradientUnits="userSpaceOnUse">
<stop stop-color="#1558BB"/>
<stop offset="1" stop-color="#07CBEB"/>
</linearGradient>
<linearGradient id="paint127_linear_1056_2" x1="-0.319433" y1="6.30727" x2="31.3707" y2="14.2403" gradientUnits="userSpaceOnUse">
<stop stop-color="#1558BB"/>
<stop offset="1" stop-color="#07CBEB"/>
</linearGradient>
<linearGradient id="paint128_linear_1056_2" x1="-0.289145" y1="6.1913" x2="31.3997" y2="14.1298" gradientUnits="userSpaceOnUse">
<stop stop-color="#1558BB"/>
<stop offset="1" stop-color="#07CBEB"/>
</linearGradient>
<linearGradient id="paint129_linear_1056_2" x1="-0.261328" y1="6.07985" x2="31.4288" y2="14.0129" gradientUnits="userSpaceOnUse">
<stop stop-color="#1558BB"/>
<stop offset="1" stop-color="#07CBEB"/>
</linearGradient>
<linearGradient id="paint130_linear_1056_2" x1="-0.233008" y1="5.96645" x2="31.4571" y2="13.8995" gradientUnits="userSpaceOnUse">
<stop stop-color="#1558BB"/>
<stop offset="1" stop-color="#07CBEB"/>
</linearGradient>
<linearGradient id="paint131_linear_1056_2" x1="-0.204184" y1="5.84926" x2="31.4846" y2="13.7878" gradientUnits="userSpaceOnUse">
<stop stop-color="#1558BB"/>
<stop offset="1" stop-color="#07CBEB"/>
</linearGradient>
<linearGradient id="paint132_linear_1056_2" x1="-0.176855" y1="5.73756" x2="31.5133" y2="13.6706" gradientUnits="userSpaceOnUse">
<stop stop-color="#1558BB"/>
<stop offset="1" stop-color="#07CBEB"/>
</linearGradient>
<linearGradient id="paint133_linear_1056_2" x1="-0.148535" y1="5.62343" x2="31.5416" y2="13.5565" gradientUnits="userSpaceOnUse">
<stop stop-color="#1558BB"/>
<stop offset="1" stop-color="#07CBEB"/>
</linearGradient>
<linearGradient id="paint134_linear_1056_2" x1="-0.118735" y1="5.50722" x2="31.5701" y2="13.4457" gradientUnits="userSpaceOnUse">
<stop stop-color="#1558BB"/>
<stop offset="1" stop-color="#07CBEB"/>
</linearGradient>
<linearGradient id="paint135_linear_1056_2" x1="-0.0904294" y1="5.3965" x2="31.5997" y2="13.3296" gradientUnits="userSpaceOnUse">
<stop stop-color="#1558BB"/>
<stop offset="1" stop-color="#07CBEB"/>
</linearGradient>
<linearGradient id="paint136_linear_1056_2" x1="-0.0616063" y1="5.27956" x2="31.6272" y2="13.2181" gradientUnits="userSpaceOnUse">
<stop stop-color="#1558BB"/>
<stop offset="1" stop-color="#07CBEB"/>
</linearGradient>
<linearGradient id="paint137_linear_1056_2" x1="-0.0337888" y1="5.16908" x2="31.6563" y2="13.1021" gradientUnits="userSpaceOnUse">
<stop stop-color="#1558BB"/>
<stop offset="1" stop-color="#07CBEB"/>
</linearGradient>
<linearGradient id="paint138_linear_1056_2" x1="-0.00498021" y1="5.05482" x2="31.6851" y2="12.9879" gradientUnits="userSpaceOnUse">
<stop stop-color="#1558BB"/>
<stop offset="1" stop-color="#07CBEB"/>
</linearGradient>
<linearGradient id="paint139_linear_1056_2" x1="0.0238431" y1="4.93764" x2="31.7127" y2="12.8761" gradientUnits="userSpaceOnUse">
<stop stop-color="#1558BB"/>
<stop offset="1" stop-color="#07CBEB"/>
</linearGradient>
<linearGradient id="paint140_linear_1056_2" x1="0.0516604" y1="4.82619" x2="31.7418" y2="12.7592" gradientUnits="userSpaceOnUse">
<stop stop-color="#1558BB"/>
<stop offset="1" stop-color="#07CBEB"/>
</linearGradient>
<linearGradient id="paint141_linear_1056_2" x1="0.0799807" y1="4.71193" x2="31.7701" y2="12.645" gradientUnits="userSpaceOnUse">
<stop stop-color="#1558BB"/>
<stop offset="1" stop-color="#07CBEB"/>
</linearGradient>
<linearGradient id="paint142_linear_1056_2" x1="0.109292" y1="4.59609" x2="31.7981" y2="12.5346" gradientUnits="userSpaceOnUse">
<stop stop-color="#1558BB"/>
<stop offset="1" stop-color="#07CBEB"/>
</linearGradient>
<linearGradient id="paint143_linear_1056_2" x1="0.138086" y1="4.48561" x2="31.8282" y2="12.4187" gradientUnits="userSpaceOnUse">
<stop stop-color="#1558BB"/>
<stop offset="1" stop-color="#07CBEB"/>
</linearGradient>
<linearGradient id="paint144_linear_1056_2" x1="0.166421" y1="4.36843" x2="31.8552" y2="12.3069" gradientUnits="userSpaceOnUse">
<stop stop-color="#1558BB"/>
<stop offset="1" stop-color="#07CBEB"/>
</linearGradient>
<linearGradient id="paint145_linear_1056_2" x1="0.194742" y1="4.25466" x2="31.8836" y2="12.1931" gradientUnits="userSpaceOnUse">
<stop stop-color="#1558BB"/>
<stop offset="1" stop-color="#07CBEB"/>
</linearGradient>
<linearGradient id="paint146_linear_1056_2" x1="0.223535" y1="4.14345" x2="31.9137" y2="12.0765" gradientUnits="userSpaceOnUse">
<stop stop-color="#1558BB"/>
<stop offset="1" stop-color="#07CBEB"/>
</linearGradient>
<linearGradient id="paint147_linear_1056_2" x1="0.252847" y1="4.02675" x2="31.9417" y2="11.9652" gradientUnits="userSpaceOnUse">
<stop stop-color="#1558BB"/>
<stop offset="1" stop-color="#07CBEB"/>
</linearGradient>
<linearGradient id="paint148_linear_1056_2" x1="0.278711" y1="3.91481" x2="31.9688" y2="11.8479" gradientUnits="userSpaceOnUse">
<stop stop-color="#1558BB"/>
<stop offset="1" stop-color="#07CBEB"/>
</linearGradient>
<linearGradient id="paint149_linear_1056_2" x1="0.308008" y1="3.80116" x2="31.9981" y2="11.7342" gradientUnits="userSpaceOnUse">
<stop stop-color="#1558BB"/>
<stop offset="1" stop-color="#07CBEB"/>
</linearGradient>
<linearGradient id="paint150_linear_1056_2" x1="0.337808" y1="3.68471" x2="32.0266" y2="11.6232" gradientUnits="userSpaceOnUse">
<stop stop-color="#1558BB"/>
<stop offset="1" stop-color="#07CBEB"/>
</linearGradient>
<linearGradient id="paint151_linear_1056_2" x1="0.366114" y1="3.57423" x2="32.0562" y2="11.5073" gradientUnits="userSpaceOnUse">
<stop stop-color="#1558BB"/>
<stop offset="1" stop-color="#07CBEB"/>
</linearGradient>
<linearGradient id="paint152_linear_1056_2" x1="0.395425" y1="3.45717" x2="32.0843" y2="11.3957" gradientUnits="userSpaceOnUse">
<stop stop-color="#1558BB"/>
<stop offset="1" stop-color="#07CBEB"/>
</linearGradient>
<linearGradient id="paint153_linear_1056_2" x1="0.423257" y1="3.3434" x2="32.1121" y2="11.2819" gradientUnits="userSpaceOnUse">
<stop stop-color="#1558BB"/>
<stop offset="1" stop-color="#07CBEB"/>
</linearGradient>
<linearGradient id="paint154_linear_1056_2" x1="0.450098" y1="3.23134" x2="32.1402" y2="11.1644" gradientUnits="userSpaceOnUse">
<stop stop-color="#1558BB"/>
<stop offset="1" stop-color="#07CBEB"/>
</linearGradient>
<linearGradient id="paint155_linear_1056_2" x1="0.478921" y1="3.11415" x2="32.1677" y2="11.0526" gradientUnits="userSpaceOnUse">
<stop stop-color="#1558BB"/>
<stop offset="1" stop-color="#07CBEB"/>
</linearGradient>
<linearGradient id="paint156_linear_1056_2" x1="0.506739" y1="3.00331" x2="32.1969" y2="10.9364" gradientUnits="userSpaceOnUse">
<stop stop-color="#1558BB"/>
<stop offset="1" stop-color="#07CBEB"/>
</linearGradient>
<linearGradient id="paint157_linear_1056_2" x1="0.5375" y1="2.89101" x2="32.2276" y2="10.8241" gradientUnits="userSpaceOnUse">
<stop stop-color="#1558BB"/>
<stop offset="1" stop-color="#07CBEB"/>
</linearGradient>
<linearGradient id="paint158_linear_1056_2" x1="0.566323" y1="2.77321" x2="32.2552" y2="10.7117" gradientUnits="userSpaceOnUse">
<stop stop-color="#1558BB"/>
<stop offset="1" stop-color="#07CBEB"/>
</linearGradient>
<linearGradient id="paint159_linear_1056_2" x1="0.594141" y1="2.66237" x2="32.2843" y2="10.5954" gradientUnits="userSpaceOnUse">
<stop stop-color="#1558BB"/>
<stop offset="1" stop-color="#07CBEB"/>
</linearGradient>
<linearGradient id="paint160_linear_1056_2" x1="0.622461" y1="2.54884" x2="32.3126" y2="10.4819" gradientUnits="userSpaceOnUse">
<stop stop-color="#1558BB"/>
<stop offset="1" stop-color="#07CBEB"/>
</linearGradient>
<linearGradient id="paint161_linear_1056_2" x1="0.651284" y1="2.43105" x2="32.3401" y2="10.3695" gradientUnits="userSpaceOnUse">
<stop stop-color="#1558BB"/>
<stop offset="1" stop-color="#07CBEB"/>
</linearGradient>
<linearGradient id="paint162_linear_1056_2" x1="0.678125" y1="2.32033" x2="32.3682" y2="10.2534" gradientUnits="userSpaceOnUse">
<stop stop-color="#1558BB"/>
<stop offset="1" stop-color="#07CBEB"/>
</linearGradient>
<linearGradient id="paint163_linear_1056_2" x1="0.707437" y1="2.20314" x2="32.3963" y2="10.1416" gradientUnits="userSpaceOnUse">
<stop stop-color="#1558BB"/>
<stop offset="1" stop-color="#07CBEB"/>
</linearGradient>
<linearGradient id="paint164_linear_1056_2" x1="0.735254" y1="2.0923" x2="32.4254" y2="10.0254" gradientUnits="userSpaceOnUse">
<stop stop-color="#1558BB"/>
<stop offset="1" stop-color="#07CBEB"/>
</linearGradient>
<linearGradient id="paint165_linear_1056_2" x1="0.765039" y1="1.97926" x2="32.4552" y2="9.91232" gradientUnits="userSpaceOnUse">
<stop stop-color="#1558BB"/>
<stop offset="1" stop-color="#07CBEB"/>
</linearGradient>
<linearGradient id="paint166_linear_1056_2" x1="0.794351" y1="1.86232" x2="32.4832" y2="9.80081" gradientUnits="userSpaceOnUse">
<stop stop-color="#1558BB"/>
<stop offset="1" stop-color="#07CBEB"/>
</linearGradient>
<linearGradient id="paint167_linear_1056_2" x1="0.822657" y1="1.75123" x2="32.5128" y2="9.6843" gradientUnits="userSpaceOnUse">
<stop stop-color="#1558BB"/>
<stop offset="1" stop-color="#07CBEB"/>
</linearGradient>
<linearGradient id="paint168_linear_1056_2" x1="0.850977" y1="1.63734" x2="32.5411" y2="9.57041" gradientUnits="userSpaceOnUse">
<stop stop-color="#1558BB"/>
<stop offset="1" stop-color="#07CBEB"/>
</linearGradient>
<linearGradient id="paint169_linear_1056_2" x1="0.880288" y1="1.52053" x2="32.5691" y2="9.45902" gradientUnits="userSpaceOnUse">
<stop stop-color="#1558BB"/>
<stop offset="1" stop-color="#07CBEB"/>
</linearGradient>
<linearGradient id="paint170_linear_1056_2" x1="0.906153" y1="1.40895" x2="32.5963" y2="9.34201" gradientUnits="userSpaceOnUse">
<stop stop-color="#1558BB"/>
<stop offset="1" stop-color="#07CBEB"/>
</linearGradient>
<linearGradient id="paint171_linear_1056_2" x1="0.937417" y1="1.29274" x2="32.6262" y2="9.23123" gradientUnits="userSpaceOnUse">
<stop stop-color="#1558BB"/>
<stop offset="1" stop-color="#07CBEB"/>
</linearGradient>
<linearGradient id="paint172_linear_1056_2" x1="0.965249" y1="1.17861" x2="32.6541" y2="9.1171" gradientUnits="userSpaceOnUse">
<stop stop-color="#1558BB"/>
<stop offset="1" stop-color="#07CBEB"/>
</linearGradient>
<linearGradient id="paint173_linear_1056_2" x1="0.993555" y1="1.06776" x2="32.6837" y2="9.00083" gradientUnits="userSpaceOnUse">
<stop stop-color="#1558BB"/>
<stop offset="1" stop-color="#07CBEB"/>
</linearGradient>
<linearGradient id="paint174_linear_1056_2" x1="1.02238" y1="0.951069" x2="32.7112" y2="8.88956" gradientUnits="userSpaceOnUse">
<stop stop-color="#1558BB"/>
<stop offset="1" stop-color="#07CBEB"/>
</linearGradient>
<linearGradient id="paint175_linear_1056_2" x1="1.0502" y1="0.840102" x2="32.7403" y2="8.77316" gradientUnits="userSpaceOnUse">
<stop stop-color="#1558BB"/>
<stop offset="1" stop-color="#07CBEB"/>
</linearGradient>
<linearGradient id="paint176_linear_1056_2" x1="1.07852" y1="0.725479" x2="32.7686" y2="8.65854" gradientUnits="userSpaceOnUse">
<stop stop-color="#1558BB"/>
<stop offset="1" stop-color="#07CBEB"/>
</linearGradient>
<linearGradient id="paint177_linear_1056_2" x1="1.09817" y1="0.636362" x2="32.787" y2="8.57485" gradientUnits="userSpaceOnUse">
<stop stop-color="#1558BB"/>
<stop offset="1" stop-color="#07CBEB"/>
</linearGradient>
</defs>
</svg>
