<svg width="469" height="351" viewBox="0 0 469 351" fill="none" xmlns="http://www.w3.org/2000/svg">
<path d="M336 62C336 31.6243 311.376 7 281 7C250.624 7 226 31.6243 226 62" stroke="#1745B3" stroke-opacity="0.3" stroke-width="10"/>
<path d="M385 1C389.666 1 389.666 6.02943 394.331 6.02943C398.997 6.02943 398.997 1 403.662 1C408.328 1 408.328 6.02943 412.993 6.02943C417.659 6.02943 417.649 1 422.315 1C426.98 1 426.98 6.02943 431.646 6.02943C436.311 6.02943 436.311 1 440.977 1C445.642 1 445.642 6.02943 450.308 6.02943C454.973 6.02943 454.973 1 459.649 1C464.324 1 464.314 6.02943 468.99 6.02943" stroke="#D7ECFF" stroke-miterlimit="10"/>
<path d="M385 9.48532C389.666 9.48532 389.666 14.5148 394.331 14.5148C398.997 14.5148 398.997 9.48532 403.662 9.48532C408.328 9.48532 408.328 14.5148 412.993 14.5148C417.659 14.5148 417.659 9.48532 422.324 9.48532C426.99 9.48532 426.99 14.5148 431.656 14.5148C436.321 14.5148 436.321 9.48532 440.987 9.48532C445.652 9.48532 445.652 14.5148 450.318 14.5148C454.983 14.5148 454.983 9.48532 459.659 9.48532C464.334 9.48532 464.324 14.5148 469 14.5148" stroke="#D7ECFF" stroke-miterlimit="10"/>
<path d="M385 17.9706C389.666 17.9706 389.666 23 394.331 23C398.997 23 398.997 17.9706 403.662 17.9706C408.328 17.9706 408.328 23 412.993 23C417.659 23 417.659 17.9706 422.324 17.9706C426.99 17.9706 426.99 23 431.656 23C436.321 23 436.321 17.9706 440.987 17.9706C445.652 17.9706 445.652 23 450.318 23C454.983 23 454.983 17.9706 459.659 17.9706C464.334 17.9706 464.324 23 469 23" stroke="#D7ECFF" stroke-miterlimit="10"/>
<path d="M148.78 202.284C121.562 175.065 77.4313 175.065 50.2126 202.284C22.9938 229.503 22.9938 273.633 50.2126 300.852C77.4313 328.07 121.562 328.07 148.78 300.852" stroke="#FFA944" stroke-opacity="0.3" stroke-width="6" stroke-miterlimit="10"/>
<path d="M99.4921 309.94C67.2538 309.94 41.1194 283.806 41.1194 251.568C41.1194 219.329 67.2538 193.195 99.4921 193.195" stroke="#FFA944" stroke-opacity="0.3" stroke-width="5" stroke-miterlimit="10"/>
<path d="M99.492 298.599C73.517 298.599 52.4602 277.543 52.4602 251.568C52.4602 225.593 73.517 204.536 99.492 204.536" stroke="#FFA944" stroke-opacity="0.3" stroke-width="4" stroke-miterlimit="10"/>
<path d="M124.734 226.331C110.796 212.392 88.1975 212.392 74.2594 226.33C60.3213 240.269 60.3213 262.867 74.2594 276.805C88.1975 290.743 110.796 290.743 124.734 276.805" stroke="#FFA944" stroke-opacity="0.3" stroke-width="3" stroke-miterlimit="10"/>
<path d="M116.687 269.687C107.172 279.203 91.7445 279.203 82.2291 269.687C72.7137 260.172 72.7137 244.745 82.2291 235.229C90.743 226.715 103.99 225.819 113.5 232.541" stroke="#FFA944" stroke-opacity="0.3" stroke-width="2" stroke-miterlimit="10"/>
<path d="M24.4022 306.665C24.1167 306.899 23.8156 307.148 23.5968 307.403C23.3624 307.055 23.3716 306.701 23.3003 306.53C23.2763 306.344 23.1059 306.384 22.6385 306.758C23.5555 306.749 23.2544 307.325 23.1674 308.116C23.0396 308.936 23.2968 309.997 23.962 309.791C23.9108 310.047 23.8848 310.291 23.8842 310.554C23.8317 310.358 23.7432 310.372 23.7002 310.179C23.6003 310.945 23.9558 311.081 24.3491 311.197C24.7802 311.294 25.2211 311.426 25.7109 312.025C26.0376 312.445 26.2084 312.763 25.7678 312.663C26.1964 312.833 26.6275 312.93 27.0641 312.944C27.3401 313.033 27.0604 313.216 26.8001 313.111C27.3487 313.267 27.8166 313.25 28.3508 313.223L28.3069 313.261C28.7191 313.058 29.509 312.661 29.8865 312.467C30.154 312.648 29.5532 312.654 29.517 312.832C29.936 312.672 30.3047 312.539 30.7673 312.31C30.8511 312.474 30.6163 312.713 30.2452 312.919C29.8489 313.138 29.4732 313.196 29.1379 313.193C29.0815 313.563 29.1276 313.746 29.2387 313.792C29.3468 313.848 29.5359 313.783 29.8223 313.644C30.0961 313.512 30.4172 313.363 30.7832 313.271C31.1273 313.214 31.6129 313.076 32.2362 313.099C31.7732 313.296 31.2634 313.542 30.8001 313.707C30.9685 314.098 31.4676 314.049 32.0423 313.961C32.6391 313.869 33.3394 313.685 34.1993 313.658C33.9899 313.59 33.164 313.545 32.7194 313.359C32.2653 313.171 32.1769 312.859 32.9538 312.437C33.3142 312.427 33.8947 312.288 34.6864 311.756C34.6567 312.271 35.4751 311.884 36.4522 311.558L36.5282 312.202C37.1673 311.914 37.1218 311.795 37.2338 311.61C37.3081 311.445 37.3443 311.267 37.5005 311.076C38.2453 310.917 38.5373 311.347 38.8223 311.702C40.0122 311.465 37.7956 311.171 39.1377 310.658C39.6592 310.637 40.066 310.516 40.4783 310.313C40.6891 310.213 40.8967 310.091 41.1198 309.952C41.2263 309.85 41.3169 309.732 41.4577 309.588C41.7912 309.727 41.4176 310.006 41.5362 310.16C41.6006 309.96 41.6966 309.76 41.8148 309.556C41.8906 309.549 41.8354 309.721 41.8173 309.809C42.096 309.531 41.9243 309.119 42.4713 308.791C42.6695 308.372 42.8866 308.578 43.0343 308.804C43.2072 309.018 43.2254 309.255 43.9215 308.66C43.8571 308.859 43.4461 309.189 43.2279 309.508C43.793 309.091 44.108 308.961 44.4008 308.835C44.7127 308.715 45.0396 308.516 45.9388 308.301C45.8913 308.611 45.8026 308.919 45.6507 309.227C45.9659 308.804 46.4184 308.508 47.0053 308.382C47.5702 308.26 48.2699 308.338 48.7906 308.548C49.0349 308.311 49.0241 308.182 49.0827 308.033C49.1287 307.89 49.156 307.773 49.1646 307.681C49.4686 308.042 49.6689 308.463 49.8028 308.895C49.6942 309.102 49.491 309.015 49.2272 308.888C49.288 308.96 49.3267 309.036 49.3746 309.083C49.3096 309.22 49.2377 309.312 49.1656 309.373C49.0935 309.434 49.0241 309.453 48.8347 309.487C48.5157 309.531 48.1771 309.506 47.8385 309.481C48.0862 309.266 48.321 309.027 48.5779 308.784C47.7714 308.776 46.8784 308.972 46.1865 309.358C46.3507 309.337 46.503 309.387 46.5988 309.48C46.3808 309.505 46.1948 309.56 46.0754 309.637C45.9529 309.724 46.2528 309.674 46.5789 309.705C46.1227 309.947 45.6758 310.16 45.2098 310.367L45.7587 310.229C45.4591 310.637 45.0451 310.976 44.6172 311.195C45.0737 311.311 45.5118 311.484 45.6894 311.845C45.87 312.198 45.7457 312.746 45.1709 313.454C45.001 312.905 44.3947 312.994 43.8349 312.677C44.2718 312.723 44.4247 312.51 44.4636 312.291C44.5151 312.066 44.4435 311.864 44.7517 311.69C44.4279 311.88 44.0791 311.789 43.9775 311.745C44.0647 311.931 44.0672 312.184 44.0197 312.495C43.5021 312.275 43.4693 312.475 43.1122 312.507C44.1537 312.926 43.1962 313.322 42.7113 314.174C42.431 313.968 42.3984 313.548 43.0325 313.08C42.5042 313.057 42.3888 313.545 42.3899 313.965C42.3626 314.408 42.3449 314.855 41.7702 314.942C41.9237 314.792 42.0434 314.747 41.9973 314.564C41.8163 315.125 40.7383 315.797 40.7563 315.383L40.9098 315.232C39.7516 316.12 37.6731 318.266 38.1203 319.03C38.0374 318.961 37.5487 318.163 37.4931 317.977C37.5312 319.26 37.5788 320.547 37.6484 321.83C37.3001 321.15 35.4503 320.533 36.0177 319.392C35.7 319.563 35.3068 319.772 34.9754 320.475C35.2148 320.384 36.1393 320.808 35.9554 321.085C35.3767 321.087 35.106 321.21 34.873 321.314C34.6118 321.44 34.3349 321.582 33.5008 321.985C34.004 321.696 34.6492 322.66 34.2136 323.066C34.1111 322.928 32.9991 322.727 33.0629 322.464C33.063 323.115 33.1095 323.656 33.2057 324.107C33.1992 323.769 32.1981 323.908 31.7051 324.264C31.8656 324.19 31.6919 324.533 31.5668 324.987C31.4195 325.443 31.4 326.025 31.4624 326.256C31.5514 325.98 31.6277 325.71 31.7517 325.456C31.5594 326.476 32.1392 326.894 32.651 327.164C33.204 327.437 33.7308 327.628 34.3179 328.153C34.0051 328.179 32.6971 328.618 33.3591 329.368C33.7604 329.329 34.7262 329.136 35.7269 328.639C36.2429 328.374 36.7767 327.99 37.1852 327.733C37.5999 327.457 37.9235 327.235 38.1816 327.119C38.1985 327.229 38.225 327.343 38.2545 327.447C38.5378 327.318 38.799 327.192 39.0161 327.072C38.8243 327.504 38.2681 328.187 37.2595 328.839C36.2573 329.503 34.9465 329.984 34.1274 329.983C34.3703 330.24 34.3678 330.313 34.413 330.401C34.4707 330.482 34.5791 330.57 35.1747 330.678C35.4284 331.064 34.2163 330.978 33.9016 330.814C34.6836 331.224 35.7266 331.476 36.9288 331.527C37.0202 330.852 39.7144 330.838 39.3453 330.289L39.0647 330.377L38.6481 330.463L37.7833 330.636C37.1868 330.759 36.5587 330.882 35.9269 330.952C36.0374 330.609 36.7511 330.188 37.5378 329.801C38.3436 329.419 39.182 329.133 39.8467 329.189C40.213 329.455 39.5771 330.384 39.6078 330.615C39.7984 330.382 40.9727 330.162 41.1072 330.331L40.4972 330.691C41.2967 330.949 41.8039 329.799 42.7748 330.438C43.1073 330.482 43.77 331.295 43.8326 330.905C43.2905 330.142 43.1721 327.771 43.5269 327.192C43.6506 327.232 45.2797 327.915 45.6599 328.3C46.2129 328.898 44.8393 329.738 45.3155 330.248C45.3327 330.065 45.6372 329.837 45.7661 329.763C46.1155 329.918 45.6232 330.337 46.3876 330.247C46.5136 329.563 47.9377 330.295 46.7424 329.668C47.4899 329.468 47.528 329.806 48.41 329.775C48.1306 329.338 49.1889 328.271 49.9333 328.08C49.8781 328.252 50.0574 328.478 50.1406 328.578C51.6686 328.629 52.4813 328.944 53.9012 328.939C54.0357 329.109 54.7207 329.298 54.4263 329.592C54.6338 329.469 54.8149 329.234 55.2512 329.217C56.1014 329.806 54.2749 329.312 54.9207 330.014C54.9737 329.621 56.0537 329.465 56.671 329.212C56.4784 328.604 55.2247 329.103 54.5979 329.353C54.5959 328.512 55.6812 327.622 57.1636 327.227C58.3474 327.01 57.6814 327.773 57.8794 327.647C58.9174 327.719 59.6188 327.336 60.2674 327.051C60.5949 326.915 60.9259 326.801 61.3056 326.829C61.6854 326.857 62.1392 327.014 62.5866 327.484C62.8381 327.974 62.6221 328.188 62.4115 328.32C62.1883 328.458 61.9173 328.55 61.8654 328.743C60.913 328.373 60.5639 327.924 59.8016 327.91C60.0871 328.002 60.3536 328.088 60.6044 328.189C60.1946 328.32 59.5447 328.478 59.1953 328.324C59.3452 328.445 59.6399 328.509 60.0261 328.549C60.4059 328.577 60.8999 328.642 61.3515 328.903C61.8063 329.155 62.1993 329.565 62.3876 330.057C62.5885 330.542 62.5748 331.073 62.4239 331.476C62.6063 331.693 62.7347 332.207 62.9787 331.939C62.9768 331.749 62.9593 331.575 62.9448 331.392C63.1695 331.086 63.3077 331.309 63.4207 331.545C63.5337 331.781 63.5964 332.043 63.7375 331.605C63.8555 332.022 64.0091 332.523 64.0308 333.108C64.0585 333.674 64.0061 334.13 63.7299 334.66L63.0819 334.683C63.2688 334.722 63.6294 334.092 63.5185 333.752C63.6789 334.297 62.2764 335.095 62.8559 335.808L63.5142 335.232C63.5605 336.066 63.7842 337.263 63.1726 338.085C63.9173 337.925 63.2115 337.866 64.1533 337.487C63.6231 337.599 63.8956 337.015 64.1208 336.446C64.3365 335.875 64.5179 335.345 63.9171 335.677C64.9372 335.218 64.6494 334.579 65.5545 333.694C65.4502 333.691 65.3308 333.768 65.2798 333.731C65.2512 333.722 65.2475 333.668 65.2623 333.557C65.2736 333.424 65.319 333.218 65.3886 332.905C65.3342 332.845 65.2854 332.703 65.2498 332.618L65.2774 332.533C65.2774 332.533 65.262 332.58 65.2464 332.596C65.2312 332.556 65.2282 332.566 65.2372 332.625C65.1009 332.917 64.9576 333.133 64.8382 333.21C64.661 332.88 64.6394 332.295 64.5895 331.733C64.5396 331.17 64.452 330.627 64.2917 330.408C64.2538 329.776 64.5718 330.582 64.7037 330.173C64.5305 329.928 64.3511 329.702 64.131 329.505C64.5647 329.235 63.8932 327.537 64.937 328.83C64.7174 328.37 64.4444 327.946 64.1023 327.573C63.7144 326.723 62.5933 325.931 61.7521 325.933C61.0846 325.591 59.7751 326.199 60.5118 325.869C59.6964 325.922 58.6889 326.049 58.3355 326.134L58.3186 326.024C56.8413 325.978 55.2712 326.775 53.5745 325.976C53.076 326.088 52.5587 326.226 51.7258 326.105L51.5574 325.715C50.9137 325.854 49.6309 325.335 49.363 325.743C48.6695 324.7 46.2585 325.53 45.1309 325.345L45.0917 325.858C44.3134 325.828 43.5717 325.977 42.6124 326.183L42.677 326.634C41.8521 327.01 40.5392 326.324 39.2305 326.375C39.3173 326.203 39.6498 326.247 39.8912 326.346C39.6907 326.218 39.4969 326.135 39.2909 326.089C39.2148 326.065 39.0502 326.054 39.0342 326.038C38.9962 326.026 38.9676 326.017 38.9329 326.027C38.7939 326.034 38.6336 326.14 38.4292 326.253C38.0486 326.456 37.3591 326.77 37.4176 326.295C37.1119 326.396 37.0474 326.27 37.109 326.111C37.1186 326.114 37.1376 326.12 37.1723 326.11C37.1628 326.107 37.1499 326.082 37.1339 326.067C37.1677 325.962 37.2487 325.841 37.3015 325.742C37.1983 325.867 37.1204 325.978 37.1084 326.048C37.016 325.976 36.8223 325.893 36.5935 325.787C36.801 325.665 37.0181 325.546 37.2415 325.439C37.232 325.436 37.2225 325.433 37.213 325.43C37.426 325.226 36.8492 325.418 36.3586 325.701C36.2159 325.655 36.0541 325.603 35.8923 325.551C36.4402 325.318 36.3539 325.227 36.2894 325.101C36.2249 324.975 36.2264 324.807 36.8392 324.732C36.316 324.595 37.0472 324.021 36.3465 323.522C36.4607 323.559 36.5743 323.533 36.4773 323.638C36.7981 323.458 37.0498 323.329 37.0684 322.977C37.256 323.08 37.4311 323.189 37.603 323.307C37.5992 322.928 37.6642 322.466 37.6918 322.054C38.3828 321.899 38.7051 321.877 38.6178 322.636C39.1277 321.12 39.2466 321.631 39.6221 320.27L39.853 320.597C40.1535 320.284 40.2841 319.423 40.7084 319.475C41.3181 319.409 42.2082 318.603 43.2426 317.676C44.3335 316.704 45.2206 315.908 47.194 314.642C46.3838 314.58 46.8182 314.374 47.3689 314.099C47.9291 313.828 48.6778 313.429 48.189 313.25C48.6786 313.198 49.2382 312.863 49.0913 313.352C49.3629 312.998 49.5529 312.702 49.8159 312.44C50.0599 312.172 50.3389 311.926 50.454 311.732C50.741 311.33 50.9711 310.942 50.7147 310.597C51.0957 310.426 51.0709 310.796 51.3161 310.654C51.2836 310.56 51.2083 310.304 51.4216 310.131C51.635 309.959 51.6384 310.306 51.6971 310.483C51.8772 309.826 51.6674 309.402 51.3622 309.24C51.0475 309.076 50.6432 309.124 50.2548 309.188C50.6448 308.337 50.4351 307.912 49.762 307.653C49.8203 307.472 49.8688 307.256 49.9471 307.177C50.0348 307.1 50.1841 307.158 50.4129 307.589C50.3502 307.328 50.0479 306.505 49.4734 305.973C48.9081 305.413 48.2108 305.262 47.9444 305.501C47.9204 305.315 47.3258 305.302 47.1526 305.383C46.1279 305.368 46.1208 305.292 44.8833 305.513L45.1403 305.596C44.6673 306.053 44.4435 306.128 44.1623 306.152C43.8811 306.177 43.5612 306.127 43.0537 306.299L43.1065 306.201C40.8709 306.226 42.0653 306.758 39.8668 306.701L40.0956 307.132C40.2135 308.168 38.3549 306.991 37.4319 307.671L37.8792 307.815C37.6478 308.077 37.1523 307.854 36.6435 307.574C36.3828 307.438 36.1283 307.282 35.8931 307.164C35.7755 307.105 35.6643 307.059 35.5692 307.028C35.4992 306.985 35.4767 306.957 35.4387 306.944C35.4067 306.913 35.4126 306.862 35.4343 306.827C35.4405 306.808 35.4592 306.783 35.4749 306.767C35.5252 306.741 35.5691 306.703 35.6099 306.674C34.8122 306.28 35.6669 307.312 35.0882 307.64C35.0154 307.312 35.1675 306.71 34.9557 306.715C34.9259 306.579 34.7522 306.923 34.4078 307.274C34.0886 307.612 33.5515 307.975 33.649 307.607C33.4814 307.931 33.418 308.226 32.9345 308.585C32.6576 308.727 32.6109 308.481 32.5716 308.342C32.5197 308.21 32.4463 308.144 31.5573 308.751C31.6258 308.636 31.7228 308.531 31.8293 308.429C31.4956 308.584 31.0722 308.626 30.6231 308.618C30.1583 308.625 29.7054 308.564 29.1409 308.718C30.8783 307.565 30.2569 307.407 29.924 307.005C29.5914 306.636 29.661 306.322 31.1518 306.13L31.7878 305.526L32.022 305.549C32.6289 305.198 32.2792 305.012 32.0737 304.704C32.3387 304.632 32.4001 304.767 32.4857 304.795C33.0619 304.539 33.2949 304.436 33.4226 304.235C33.5598 304.038 33.5195 303.804 33.954 302.978L34.3839 303.274C34.5373 302.798 36.8977 302.287 37.9166 300.756C37.9394 300.816 37.9719 300.911 37.9069 301.047C39.0983 299.372 42.4679 299.218 41.9244 297.352L42.6751 296.196C41.2612 297.127 42.3891 295.421 41.6637 295.618C42.1173 295.123 43.3462 294.994 42.7637 295.563L42.6056 295.564C42.9499 296.484 44.4612 294.534 44.8143 295.068C46.1069 294.024 47.4609 293.116 48.8118 292.217L49.814 291.552L50.8601 290.849C51.8144 290.138 52.9112 289.441 53.6939 288.642C53.3273 288.671 52.9448 288.685 52.5684 288.679C52.9386 288.378 53.2768 288.046 53.5647 287.739C53.9675 287.533 54.4952 287.493 53.8513 288.252C54.6768 287.94 54.4104 286.908 54.2298 286.882C54.7595 286.086 54.8713 286.196 54.9666 286.552C55.0394 286.88 54.9652 287.371 55.0923 287.107C55.1911 286.866 55.2708 286.618 55.3156 286.349L55.175 286.525C55.1277 286.215 54.9932 286.046 54.9213 285.812C54.8368 285.586 54.8275 285.288 54.7933 284.71C54.83 283.944 55.1616 284.219 55.1333 283.916C55.1775 283.909 55.2079 283.782 55.0085 283.455C54.8036 282.885 54.5042 282.347 54.1044 281.893C54.0946 282.184 54.0941 282.446 54.0367 282.722C53.3425 282.236 52.9445 281.645 52.9747 282.464C52.9906 282.154 52.702 281.745 52.1932 281.466C52.063 281.413 51.942 281.332 51.7772 281.29C51.5966 281.263 51.4192 281.227 51.2291 281.197C50.8491 281.138 50.4564 281.085 50.0511 281.038C49.6554 280.995 49.2501 280.948 48.8734 280.911C48.4937 280.883 48.0891 280.899 47.7569 280.887C47.0041 280.875 46.7573 280.859 46.5856 280.772C45.7295 281.179 44.8914 281.171 43.8472 281.119C44.1015 281.243 44.2597 281.892 43.3639 281.803C43.6921 280.459 41.72 281.231 40.9769 280.277C41.6377 280.9 38.4205 280.483 39.4572 281.374C38.7099 281.28 39.3984 280.872 38.823 280.571C37.0545 281.135 34.8709 280.348 32.6633 280.645C32.6367 280.825 33.0186 281.074 32.5597 281.357L31.3435 280.534C30.9082 280.646 31.0091 281.572 30.1687 281.017C30.2903 281.162 30.4758 281.368 30.1888 281.444C25.7967 280.858 21.4647 282.824 16.9223 281.759C17.5606 282.028 17.1662 282.111 16.7146 282.176C17.0154 282.22 16.7632 282.611 16.8477 282.838L14.946 282.414C14.703 283.103 12.9947 282.731 12.9 283.384L13.4578 283.185C12.7958 284.033 14.7534 284.674 14.7662 285.645C15.5126 284.698 17.1601 286.595 18.3989 285.23C18.7262 285.388 18.1745 285.567 18.3631 285.764C18.6654 285.315 19.0878 285.178 19.8983 285.272L19.8203 285.383C22.0307 285.045 23.0266 285.345 25.5413 285.399L25.3186 284.949C25.8596 284.966 25.9843 285.1 26.2446 285.205C26.7967 284.438 24.7339 285.296 25.2252 284.457C26.0184 285.353 29.0268 284.169 29.5781 285.229C30.403 285.18 29.2976 284.698 30.1226 284.648L30.3562 284.934L30.5453 284.543C31.0927 284.572 31.3902 284.92 31.4244 285.173C31.2945 285.152 31.0584 285.265 30.9132 285.292C31.6372 285.588 32.8875 285.067 33.1288 285.165L32.3242 285.022C34.5686 284.61 37.3292 284.912 39.5048 284.258L39.335 284.035C41.0003 283.595 40.6748 284.246 42.5069 284.038L42.4378 284.089C42.8056 283.861 43.2946 283.746 43.8009 283.772C43.3386 284.033 44.6756 284.285 44.0681 284.573C45.879 284.138 44.9596 284.219 46.169 283.401L46.4383 283.771C46.8398 283.439 46.9488 283.264 47.669 283.181C47.3353 283.336 47.4474 283.477 47.5217 283.637C47.596 283.798 47.6071 283.959 47.3404 284.167C47.7746 284.58 48.0984 284.391 48.5586 284.234C48.9745 284.085 49.4415 283.972 48.9925 284.616C49.7884 284.2 49.7546 283.979 49.4851 283.902C49.2281 283.82 48.8462 283.896 49.0948 283.777C49.0868 283.606 49.3474 283.417 49.713 283.293C50.0752 283.147 50.5431 283.13 50.7215 283.261C50.9503 283.366 50.7551 283.776 50.5001 284.209C50.2546 284.644 49.952 285.062 50.0567 285.421C50.0401 285.342 49.9235 285.378 49.9069 285.299C49.7476 285.5 49.9128 285.574 50.0184 285.703C50.1271 285.822 50.1858 285.999 49.7827 286.173C50.2325 286.245 50.1515 286.366 50.1113 286.458C50.0646 286.537 50.0622 286.61 50.5881 286.706C50.7155 286.474 50.7728 286.198 50.7353 285.924C50.845 286.137 51.1858 286.384 51.2393 286.674C51.3053 286.958 51.046 287.274 50.3875 287.524C50.2788 287.405 50.2668 287.149 50.2496 287.007C49.7728 287.084 50.0381 287.369 49.5644 287.437C49.1923 287.223 49.3141 287.073 49.5084 286.894C49.7061 286.737 49.9661 286.485 49.5847 286.299C49.2977 286.374 49.4193 286.518 49.4172 286.623C49.4215 286.74 49.365 286.785 48.8796 286.628C49.4983 286.828 49.2625 286.972 49.0326 287.066C48.787 287.176 48.5725 287.223 48.6843 287.658L48.3395 287.326C48.353 287.415 48.3841 287.677 48.2521 287.76C48.1961 287.543 48.112 287.347 48.0122 287.168C48.0515 287.307 48.0205 287.37 47.9293 287.425C47.7565 287.537 47.5518 287.619 47.3531 287.681C46.9403 287.821 46.5175 287.926 46.284 288.292C47.6269 287.223 46.9407 288.504 47.7232 288.325C46.4477 290.131 46.0006 288.096 44.2839 289.738C44.4901 289.49 45.4077 289.218 45.1469 289.701C44.7346 289.905 44.1486 290.125 43.7783 290.101C42.6123 291.143 44.2708 290.333 43.9262 290.978C43.147 290.853 43.4615 291.638 43.0371 292.205L42.7392 291.825C41.1381 292.685 42.9872 292.914 41.4919 293.608L41.6185 292.661L41.0621 293.312L40.8575 292.773C40.395 293.654 40.1019 293.749 39.3028 294.174C39.6774 294.316 39.75 294.938 39.1383 295.434C38.5353 295.545 39.0948 294.884 38.2547 295.633C38.2666 295.237 38.2493 294.77 38.9076 294.814C38.8523 294.659 38.9194 294.418 38.8641 294.264C38.201 294.365 37.6676 295.107 37.3539 295.363C37.4859 295.28 37.6526 295.187 37.7696 295.182L36.9088 296.712C36.599 296.728 36.6662 296.487 36.7334 296.246C36.5081 296.488 36.467 296.811 36.1097 297.137C35.97 296.756 35.6887 296.455 36.1162 295.879L35.1614 297.178C34.9711 297.117 34.2487 297.304 34.3159 297.063C33.5003 297.41 33.1267 298.96 32.0434 299.42C32.0443 299.515 31.9919 299.645 31.8356 299.836C31.6094 299.984 31.3798 300.11 31.1407 300.232C31.0556 300.268 30.8294 300.415 30.6471 300.525L30.0752 300.897C29.3118 301.408 28.5276 302.048 27.988 302.809C27.414 302.96 26.8086 303.143 26.1655 303.346C25.5451 303.934 26.1975 303.703 26.712 303.606C27.2517 303.496 27.5587 303.522 26.811 304.342C26.5578 304.639 26.3822 304.792 26.2346 304.892C26.0774 304.988 25.9227 305.012 25.7772 305.007C25.4735 305.004 25.1816 304.899 24.8675 305.123C24.8234 305.456 25.023 305.814 24.9384 306.207C24.8709 306.417 24.863 306.572 24.7227 306.779C24.5855 306.976 24.379 307.193 24.119 307.446C24.0784 307.18 24.3353 306.938 24.4181 306.681L24.3991 306.674L24.4022 306.665ZM32.9569 312.427C32.5796 312.652 31.6781 313.265 31.5617 313.007C32.2746 312.197 32.3941 312.446 32.9569 312.427ZM46.8784 310.569C46.6374 310.502 46.8633 310.322 47.2648 309.989C47.3106 310.141 47.205 310.338 46.8784 310.569ZM63.0114 326.948C63.0114 326.948 62.9828 326.939 62.9702 326.945C62.3889 326.369 62.5965 326.573 63.0114 326.948ZM64.0361 328.234C64.1857 328.325 64.2326 328.277 64.2443 328.175C64.0828 328.155 63.8617 327.863 63.5865 327.543C63.582 327.72 63.6692 327.906 64.0392 328.225L64.0361 328.234ZM54.8751 283.707L54.8275 284.017C54.5342 283.46 54.681 283.592 54.8751 283.707Z" fill="#00984F" fill-opacity="0.5"/>
</svg>
