<svg width="40" height="30" viewBox="0 0 40 30" fill="none" xmlns="http://www.w3.org/2000/svg">
<path d="M20.0021 13.7639C16.2074 13.7639 13.1201 10.6766 13.1201 6.88194C13.1201 3.08728 16.2074 0 20.0021 0C23.7971 0 26.884 3.08728 26.884 6.88194C26.884 10.6766 23.7967 13.7639 20.0021 13.7639ZM20.0021 1.65279C17.1185 1.65279 14.7728 3.99884 14.7728 6.88202C14.7728 9.7652 17.1189 12.1112 20.0021 12.1112C22.8852 12.1112 25.2313 9.7652 25.2313 6.88202C25.2313 3.99884 22.8852 1.65279 20.0021 1.65279Z" fill="white"/>
<path d="M19.9996 29.0553C15.7592 29.0553 11.7638 27.4171 8.74881 24.4426C8.58887 24.2847 8.50007 24.0687 8.503 23.8439C8.52489 22.0925 8.93023 20.4146 9.70786 18.8573C11.6693 14.9288 15.6126 12.4885 19.9997 12.4885C26.2635 12.4885 31.4233 17.5826 31.5014 23.8439C31.5042 24.0687 31.4154 24.2848 31.2551 24.4426C28.2405 27.4175 24.2434 29.0553 19.9996 29.0553ZM10.166 23.5129C12.8376 26.0238 16.3154 27.4025 19.9996 27.4025C23.6869 27.4025 27.1666 26.0242 29.8383 23.5133C29.5875 18.3139 25.2458 14.1408 19.9996 14.1408C16.2431 14.1408 12.8657 16.2306 11.1865 19.5951C10.5729 20.824 10.2305 22.1399 10.166 23.5129Z" fill="white"/>
<path d="M32.6149 12.2026C30.1078 12.2026 28.0679 10.1627 28.0679 7.65548C28.0679 5.14831 30.1078 3.10889 32.6149 3.10889C35.1221 3.10889 37.162 5.14878 37.162 7.65596C37.162 10.1631 35.1225 12.2026 32.6149 12.2026ZM32.6149 4.7616C31.0192 4.7616 29.7207 6.06018 29.7207 7.65588C29.7207 9.25158 31.0192 10.5502 32.6149 10.5502C34.2106 10.5502 35.5092 9.25158 35.5092 7.65588C35.5092 6.06018 34.211 4.7616 32.6149 4.7616Z" fill="white"/>
<path d="M32.6119 21.5981C31.6661 21.5981 30.7306 21.468 29.8316 21.2109C29.3924 21.0857 29.1382 20.6283 29.2639 20.1895C29.3895 19.7503 29.8456 19.4954 30.2852 19.6218C31.0368 19.8362 31.8198 19.9449 32.6119 19.9449C34.748 19.9449 36.7655 19.1648 38.3319 17.741C38.1125 14.7835 35.6169 12.4333 32.6119 12.4333C30.4261 12.4333 28.4615 13.6497 27.4847 15.6077C27.4343 15.7073 27.0059 16.7386 26.2675 16.3535C25.4701 15.9374 25.9399 15.0015 26.0068 14.8677C27.2646 12.3473 29.7957 10.7805 32.6119 10.7805C36.6342 10.7805 39.9487 14.0508 39.9999 18.0711C40.0028 18.2954 39.914 18.5115 39.7541 18.6693C37.8431 20.5581 35.3062 21.5981 32.6119 21.5981Z" fill="white"/>
<path d="M7.3835 12.2026C4.87632 12.2026 2.83643 10.1627 2.83643 7.65548C2.83643 5.14831 4.87632 3.10889 7.3835 3.10889C9.89067 3.10889 11.9306 5.14878 11.9306 7.65596C11.9306 10.1631 9.89067 12.2026 7.3835 12.2026ZM7.3835 4.7616C5.7874 4.7616 4.48921 6.06018 4.48921 7.65588C4.48921 9.25158 5.7878 10.5502 7.3835 10.5502C8.97919 10.5502 10.2778 9.25158 10.2778 7.65588C10.2778 6.06018 8.97919 4.7616 7.3835 4.7616Z" fill="white"/>
<path d="M7.38354 21.5983C4.68757 21.5983 2.15224 20.5579 0.245083 18.6693C0.0856245 18.5114 -0.00278752 18.2962 6.70393e-05 18.0718C0.0512905 14.0519 3.36377 10.7812 7.38354 10.7812C10.2023 10.7812 12.7354 12.348 13.9944 14.8705C14.0592 14.9998 14.4245 16.0464 13.7423 16.346C13.0684 16.6418 12.5668 15.7105 12.5164 15.6097C11.5384 13.6504 9.57211 12.434 7.38393 12.434C4.38134 12.434 1.8874 14.7841 1.6684 17.7421C3.23143 19.1655 5.2469 19.9456 7.38393 19.9456C8.18178 19.9456 8.96639 19.8353 9.71595 19.6187C10.1544 19.4911 10.6125 19.7443 10.7394 20.1827C10.8663 20.6211 10.6138 21.0793 10.1754 21.2062C9.27635 21.466 8.3368 21.5983 7.38354 21.5983Z" fill="white"/>
</svg>
