<svg width="407" height="320" viewBox="0 0 407 320" fill="none" xmlns="http://www.w3.org/2000/svg">
<path d="M54.4723 152.805H36.1194V134.495H18.3528V152.805H0V170.481H18.3528V188.791H36.1194V170.481H54.4723V152.805Z" fill="white" fill-opacity="0.04"/>
<path d="M177.895 140.283V202.628H240.472V252.316H177.895V314.661H128.023V252.316H65.4456V202.628H128.023V140.283H177.895ZM183.231 134.966H122.664V197.312H60.0864V257.655H122.664V320H183.231V257.655H245.808V197.312H183.231V134.966Z" fill="white" fill-opacity="0.04"/>
<path d="M407 268.381H390.202V251.646H373.939V268.381H357.116V284.584H373.939V301.319H390.202V284.584H407V268.381Z" fill="white" fill-opacity="0.04"/>
<path d="M331.779 133.149V165.453H364.202V191.204H331.779V223.507H305.932V191.204H273.509V165.453H305.932V133.149H331.779ZM334.557 130.381H303.179V162.685H270.756V193.947H303.179V226.25H334.557V193.947H366.981V162.685H334.557V130.381Z" fill="white" fill-opacity="0.04"/>
<path d="M172.797 34.9697V59.5273H197.446V79.1073H172.797V103.665H153.144V79.1073H128.495V59.5273H153.144V34.9697H172.797ZM174.913 32.8618H151.054V57.4194H126.405V81.1898H151.054V105.747H174.913V81.1898H199.562V57.4194H174.913V32.8618Z" fill="white" fill-opacity="0.04"/>
<path d="M102.693 28.6108H73.9758V0H46.1967V28.6108H17.4795V56.2871H46.1967V84.898H73.9758V56.2871H102.693V28.6108Z" fill="white" fill-opacity="0.04"/>
<path d="M254.163 78.8591C255.474 75.7265 253.988 72.1278 250.844 70.8212C247.7 69.5146 244.088 70.995 242.776 74.1276C241.465 77.2603 242.951 80.859 246.095 82.1655C249.239 83.4721 252.851 81.9918 254.163 78.8591Z" fill="white" fill-opacity="0.04"/>
</svg>
