<svg width="180" height="40" viewBox="0 0 180 40" fill="none" xmlns="http://www.w3.org/2000/svg">
<path d="M59.7881 9.81055H64.8125L69.7051 23.9463H69.793L74.7148 9.81055H79.7539V29H75.9014V23.2725L76.2676 14.8057L76.1943 14.791L71.0527 29H68.4746L63.3477 14.835L63.2744 14.8496L63.6406 23.2725V29H59.7881V9.81055ZM95.1494 17.5889V20.5625H87.1953V26.041H96.4971V29H83.3428V9.81055H96.4678V12.7695H87.1953V17.5889H95.1494ZM105.242 12.7695H102.693V26.041H105.242C106.609 26.041 107.684 25.582 108.465 24.6641C109.256 23.7461 109.651 22.5254 109.651 21.002V17.7939C109.651 16.2803 109.256 15.0645 108.465 14.1465C107.684 13.2285 106.609 12.7695 105.242 12.7695ZM105.433 29H98.8408V9.81055H105.433C107.806 9.81055 109.744 10.5576 111.248 12.0518C112.762 13.5361 113.519 15.46 113.519 17.8232V21.002C113.519 23.3652 112.762 25.2891 111.248 26.7734C109.744 28.2578 107.806 29 105.433 29ZM124.534 29H120.696V22.0566L114.236 9.81055H118.455L122.645 18.6436H122.718L126.907 9.81055H131.126L124.534 22.2471V29ZM136.854 20.9873V29H133.001V9.81055H136.854V17.6475H138.538L143.621 9.81055H148.323L141.863 18.7461L148.836 29H144.148L138.992 20.9873H136.854ZM162.269 17.5889V20.5625H154.314V26.041H163.616V29H150.462V9.81055H163.587V12.7695H154.314V17.5889H162.269ZM179.495 9.81055V12.7695H174.061V29H170.208V12.7695H164.803V9.81055H179.495Z" fill="url(#paint0_linear_683_10663)"/>
<mask id="mask0_683_10663" style="mask-type:luminance" maskUnits="userSpaceOnUse" x="6" y="0" width="40" height="21">
<path d="M25.999 2.59802C35.3769 2.59802 42.9792 10.3898 42.9792 20.0013C42.9792 20.1398 42.9773 20.2777 42.9746 20.4157C43.0621 20.3985 43.1491 20.3809 43.2362 20.3628C43.7756 20.2517 44.6178 20.0561 45.5131 19.7774C45.3993 9.17019 36.8161 0 25.999 0C15.1819 0 6.59547 8.84126 6.48486 19.7904C7.3901 20.0789 8.27404 20.2856 8.93767 20.4195C8.96623 20.4255 8.99524 20.4311 9.0238 20.4366C9.02017 20.2917 9.01836 20.1463 9.01836 20.0008C9.01836 10.3893 16.6207 2.59756 25.9985 2.59756L25.999 2.59802Z" fill="white"/>
</mask>
<g mask="url(#mask0_683_10663)">
<path d="M5.38821 17.0826L4.98828 19.8154L44.6154 25.9071L45.0153 23.1742L5.38821 17.0826Z" fill="#1558BB"/>
<path d="M5.40516 16.9799L5.38281 17.1324L45.0089 23.2312L45.0313 23.0786L5.40516 16.9799Z" fill="#1558BB"/>
<path d="M5.41981 16.8781L5.39746 17.0306L45.0236 23.1294L45.0459 22.9768L5.41981 16.8781Z" fill="#1558BB"/>
<path d="M5.43495 16.7763L5.4126 16.9288L45.0387 23.0276L45.061 22.875L5.43495 16.7763Z" fill="#1558BB"/>
<path d="M5.44959 16.675L5.42725 16.8275L45.0533 22.9262L45.0757 22.7737L5.44959 16.675Z" fill="#1558BB"/>
<path d="M5.46517 16.5815L5.44287 16.734L45.071 22.8186L45.0933 22.666L5.46517 16.5815Z" fill="#1558BB"/>
<path d="M5.47835 16.4793L5.45605 16.6318L45.0842 22.7164L45.1065 22.5638L5.47835 16.4793Z" fill="#1558BB"/>
<path d="M5.4965 16.3677L5.47412 16.5203L45.0992 22.6261L45.1216 22.4735L5.4965 16.3677Z" fill="#1558BB"/>
<path d="M5.50819 16.2678L5.48584 16.4203L45.1119 22.519L45.1343 22.3665L5.50819 16.2678Z" fill="#1558BB"/>
<path d="M5.5243 16.1675L5.50195 16.3201L45.1281 22.4188L45.1504 22.2663L5.5243 16.1675Z" fill="#1558BB"/>
<path d="M5.53895 16.0656L5.5166 16.2181L45.1427 22.3169L45.1651 22.1643L5.53895 16.0656Z" fill="#1558BB"/>
<path d="M5.55452 15.9722L5.53223 16.1248L45.1604 22.2093L45.1827 22.0568L5.55452 15.9722Z" fill="#1558BB"/>
<path d="M5.56825 15.862L5.5459 16.0145L45.172 22.1132L45.1943 21.9607L5.56825 15.862Z" fill="#1558BB"/>
<path d="M5.5829 15.7607L5.56055 15.9132L45.1866 22.0119L45.209 21.8594L5.5829 15.7607Z" fill="#1558BB"/>
<path d="M5.59803 15.6592L5.57568 15.8118L45.2018 21.9105L45.2241 21.758L5.59803 15.6592Z" fill="#1558BB"/>
<path d="M5.61219 15.5572L5.58984 15.7097L45.2159 21.8084L45.2383 21.6559L5.61219 15.5572Z" fill="#1558BB"/>
<path d="M5.62825 15.4634L5.60596 15.616L45.2341 21.7005L45.2564 21.548L5.62825 15.4634Z" fill="#1558BB"/>
<path d="M5.64241 15.3617L5.62012 15.5143L45.2483 21.5988L45.2706 21.4463L5.64241 15.3617Z" fill="#1558BB"/>
<path d="M5.65858 15.2526L5.63623 15.4052L45.2623 21.5039L45.2847 21.3513L5.65858 15.2526Z" fill="#1558BB"/>
<path d="M5.67372 15.1508L5.65137 15.3033L45.2775 21.4021L45.2998 21.2495L5.67372 15.1508Z" fill="#1558BB"/>
<path d="M5.68885 15.0513L5.6665 15.2039L45.2926 21.3026L45.315 21.15L5.68885 15.0513Z" fill="#1558BB"/>
<path d="M5.70301 14.9482L5.68066 15.1007L45.3068 21.1994L45.3291 21.0469L5.70301 14.9482Z" fill="#1558BB"/>
<path d="M5.71614 14.8538L5.69385 15.0063L45.322 21.0909L45.3443 20.9383L5.71614 14.8538Z" fill="#1558BB"/>
<path d="M5.73331 14.7419L5.71094 14.8944L45.336 21.0002L45.3584 20.8477L5.73331 14.7419Z" fill="#1558BB"/>
<path d="M5.74647 14.6428L5.72412 14.7953L45.3502 20.894L45.3726 20.7415L5.74647 14.6428Z" fill="#1558BB"/>
<path d="M5.76161 14.5418L5.73926 14.6943L45.3654 20.7931L45.3877 20.6405L5.76161 14.5418Z" fill="#1558BB"/>
<path d="M5.77723 14.4402L5.75488 14.5928L45.381 20.6915L45.4033 20.539L5.77723 14.4402Z" fill="#1558BB"/>
<path d="M5.79085 14.3464L5.76855 14.4989L45.3967 20.5834L45.419 20.4309L5.79085 14.3464Z" fill="#1558BB"/>
<path d="M5.80696 14.2446L5.78467 14.3971L45.4128 20.4816L45.4351 20.3291L5.80696 14.2446Z" fill="#1558BB"/>
<path d="M5.82118 14.1352L5.79883 14.2877L45.4249 20.3864L45.4473 20.2339L5.82118 14.1352Z" fill="#1558BB"/>
<path d="M5.83631 14.0337L5.81396 14.1863L45.4401 20.285L45.4624 20.1325L5.83631 14.0337Z" fill="#1558BB"/>
<path d="M5.85047 13.9314L5.82812 14.084L45.4542 20.1827L45.4766 20.0302L5.85047 13.9314Z" fill="#1558BB"/>
<path d="M5.86659 13.8307L5.84424 13.9833L45.4703 20.082L45.4927 19.9295L5.86659 13.8307Z" fill="#1558BB"/>
<path d="M5.88021 13.7363L5.85791 13.8888L45.4861 19.9733L45.5084 19.8208L5.88021 13.7363Z" fill="#1558BB"/>
<path d="M5.89588 13.6271L5.87354 13.7797L45.4996 19.8784L45.522 19.7258L5.89588 13.6271Z" fill="#1558BB"/>
<path d="M5.91151 13.5254L5.88916 13.678L45.5153 19.7767L45.5376 19.6242L5.91151 13.5254Z" fill="#1558BB"/>
<path d="M5.92616 13.4245L5.90381 13.577L45.5299 19.6757L45.5523 19.5232L5.92616 13.4245Z" fill="#1558BB"/>
<path d="M5.94081 13.3227L5.91846 13.4752L45.5446 19.5739L45.5669 19.4214L5.94081 13.3227Z" fill="#1558BB"/>
<path d="M5.95443 13.2276L5.93213 13.3801L45.5603 19.4647L45.5826 19.3121L5.95443 13.2276Z" fill="#1558BB"/>
<path d="M5.96663 13.1238L5.94434 13.2764L45.5725 19.3609L45.5948 19.2084L5.96663 13.1238Z" fill="#1558BB"/>
<path d="M5.98524 13.0168L5.96289 13.1693L45.589 19.268L45.6113 19.1155L5.98524 13.0168Z" fill="#1558BB"/>
<path d="M5.9994 12.9164L5.97705 13.069L45.6032 19.1677L45.6255 19.0152L5.9994 12.9164Z" fill="#1558BB"/>
<path d="M6.01454 12.8145L5.99219 12.967L45.6183 19.0658L45.6406 18.9132L6.01454 12.8145Z" fill="#1558BB"/>
<path d="M6.03016 12.7128L6.00781 12.8654L45.6339 18.9641L45.6563 18.8115L6.03016 12.7128Z" fill="#1558BB"/>
<path d="M6.04427 12.6192L6.02197 12.7717L45.6502 18.8563L45.6724 18.7037L6.04427 12.6192Z" fill="#1558BB"/>
<path d="M6.05848 12.5096L6.03613 12.6621L45.6622 18.7608L45.6846 18.6083L6.05848 12.5096Z" fill="#1558BB"/>
<path d="M6.07508 12.4092L6.05273 12.5618L45.6788 18.6605L45.7012 18.508L6.07508 12.4092Z" fill="#1558BB"/>
<path d="M6.08924 12.3061L6.06689 12.4586L45.693 18.5573L45.7153 18.4048L6.08924 12.3061Z" fill="#1558BB"/>
<path d="M6.10438 12.2054L6.08203 12.3579L45.7081 18.4566L45.7305 18.3041L6.10438 12.2054Z" fill="#1558BB"/>
<path d="M6.11952 12.1034L6.09717 12.256L45.7233 18.3547L45.7456 18.2022L6.11952 12.1034Z" fill="#1558BB"/>
<path d="M6.13362 12.0091L6.11133 12.1616L45.7395 18.2462L45.7618 18.0936L6.13362 12.0091Z" fill="#1558BB"/>
<path d="M6.14881 11.9L6.12646 12.0525L45.7526 18.1512L45.7749 17.9987L6.14881 11.9Z" fill="#1558BB"/>
<path d="M6.16346 11.7989L6.14111 11.9514L45.7672 18.0501L45.7896 17.8976L6.16346 11.7989Z" fill="#1558BB"/>
<path d="M6.1786 11.6972L6.15625 11.8497L45.7824 17.9485L45.8047 17.7959L6.1786 11.6972Z" fill="#1558BB"/>
<path d="M6.19374 11.5954L6.17139 11.7479L45.7975 17.8466L45.8198 17.6941L6.19374 11.5954Z" fill="#1558BB"/>
<path d="M6.20589 11.4989L6.18359 11.6515L45.8118 17.736L45.8341 17.5835L6.20589 11.4989Z" fill="#1558BB"/>
<path d="M6.22496 11.3971L6.20264 11.5497L45.8298 17.6413L45.8521 17.4888L6.22496 11.3971Z" fill="#1558BB"/>
<path d="M6.23866 11.2909L6.21631 11.4435L45.8424 17.5422L45.8648 17.3897L6.23866 11.2909Z" fill="#1558BB"/>
<path d="M6.25233 11.1891L6.22998 11.3417L45.8561 17.4404L45.8784 17.2879L6.25233 11.1891Z" fill="#1558BB"/>
<path d="M6.26795 11.0873L6.24561 11.2399L45.8717 17.3386L45.8941 17.1861L6.26795 11.0873Z" fill="#1558BB"/>
<path d="M6.28309 10.986L6.26074 11.1385L45.8868 17.2373L45.9092 17.0847L6.28309 10.986Z" fill="#1558BB"/>
<path d="M6.2972 10.8915L6.2749 11.0441L45.9031 17.1286L45.9254 16.9761L6.2972 10.8915Z" fill="#1558BB"/>
<path d="M6.3119 10.7819L6.28955 10.9344L45.9157 17.0332L45.938 16.8806L6.3119 10.7819Z" fill="#1558BB"/>
<path d="M6.32655 10.6811L6.3042 10.8336L45.9303 16.9323L45.9527 16.7798L6.32655 10.6811Z" fill="#1558BB"/>
<path d="M6.34217 10.5796L6.31982 10.7322L45.9459 16.8309L45.9683 16.6784L6.34217 10.5796Z" fill="#1558BB"/>
<path d="M6.35682 10.478L6.33447 10.6305L45.9606 16.7292L45.9829 16.5767L6.35682 10.478Z" fill="#1558BB"/>
<path d="M6.37093 10.3837L6.34863 10.5363L45.9768 16.6208L45.9991 16.4683L6.37093 10.3837Z" fill="#1558BB"/>
<path d="M6.38607 10.2824L6.36377 10.4349L45.9919 16.5195L46.0142 16.3669L6.38607 10.2824Z" fill="#1558BB"/>
<path d="M6.40174 10.1735L6.37939 10.326L46.0055 16.4248L46.0278 16.2722L6.40174 10.1735Z" fill="#1558BB"/>
<path d="M6.41639 10.0717L6.39404 10.2242L46.0201 16.323L46.0425 16.1704L6.41639 10.0717Z" fill="#1558BB"/>
<path d="M6.43055 9.96941L6.4082 10.1219L46.0343 16.2207L46.0567 16.0681L6.43055 9.96941Z" fill="#1558BB"/>
<path d="M6.44618 9.8681L6.42383 10.0206L46.0499 16.1194L46.0723 15.9668L6.44618 9.8681Z" fill="#1558BB"/>
<path d="M6.46275 9.77153L6.44043 9.92407L46.0676 16.0157L46.0899 15.8632L6.46275 9.77153Z" fill="#1558BB"/>
<path d="M6.47499 9.66534L6.45264 9.81787L46.0787 15.9166L46.1011 15.7641L6.47499 9.66534Z" fill="#1558BB"/>
<path d="M6.49159 9.56377L6.46924 9.71631L46.0953 15.815L46.1177 15.6625L6.49159 9.56377Z" fill="#1558BB"/>
<path d="M6.50526 9.46184L6.48291 9.61438L46.109 15.7131L46.1314 15.5606L6.50526 9.46184Z" fill="#1558BB"/>
<path d="M6.52088 9.3604L6.49854 9.51294L46.1246 15.6117L46.147 15.4591L6.52088 9.3604Z" fill="#1558BB"/>
<path d="M6.5345 9.26616L6.51221 9.4187L46.1404 15.5032L46.1627 15.3507L6.5345 9.26616Z" fill="#1558BB"/>
<path d="M6.55013 9.16447L6.52783 9.31702L46.156 15.4016L46.1783 15.249L6.55013 9.16447Z" fill="#1558BB"/>
<path d="M6.56532 9.05608L6.54297 9.20862L46.1691 15.3073L46.1914 15.1548L6.56532 9.05608Z" fill="#1558BB"/>
<path d="M6.58045 8.95428L6.55811 9.10681L46.1842 15.2055L46.2066 15.053L6.58045 8.95428Z" fill="#1558BB"/>
<path d="M6.59461 8.85247L6.57227 9.005L46.1984 15.1037L46.2207 14.9512L6.59461 8.85247Z" fill="#1558BB"/>
<path d="M6.61024 8.75054L6.58789 8.90308L46.214 15.0018L46.2363 14.8493L6.61024 8.75054Z" fill="#1558BB"/>
<path d="M6.62484 8.65715L6.60254 8.80969L46.2307 14.8942L46.253 14.7417L6.62484 8.65715Z" fill="#1558BB"/>
<path d="M6.64002 8.54815L6.61768 8.70068L46.2438 14.7994L46.2661 14.6469L6.64002 8.54815Z" fill="#1558BB"/>
<path d="M6.65467 8.4461L6.63232 8.59863L46.2584 14.6974L46.2808 14.5448L6.65467 8.4461Z" fill="#1558BB"/>
<path d="M6.66981 8.34392L6.64746 8.49646L46.2736 14.5952L46.2959 14.4426L6.66981 8.34392Z" fill="#1558BB"/>
<path d="M6.68446 8.24297L6.66211 8.39551L46.2882 14.4942L46.3106 14.3417L6.68446 8.24297Z" fill="#1558BB"/>
<path d="M6.70103 8.1458L6.67871 8.29834L46.3058 14.39L46.3282 14.2374L6.70103 8.1458Z" fill="#1558BB"/>
<path d="M6.71617 8.0446L6.69385 8.19714L46.321 14.2888L46.3433 14.1362L6.71617 8.0446Z" fill="#1558BB"/>
<path d="M6.7284 7.93804L6.70605 8.09058L46.3322 14.1893L46.3545 14.0368L6.7284 7.93804Z" fill="#1558BB"/>
<path d="M6.74403 7.83684L6.72168 7.98938L46.3478 14.0881L46.3701 13.9356L6.74403 7.83684Z" fill="#1558BB"/>
<path d="M6.75868 7.73504L6.73633 7.88757L46.3624 13.9863L46.3848 13.8338L6.75868 7.73504Z" fill="#1558BB"/>
<path d="M6.77333 7.63262L6.75098 7.78516L46.3771 13.8839L46.3994 13.7313L6.77333 7.63262Z" fill="#1558BB"/>
<path d="M6.78743 7.53898L6.76514 7.69153L46.3933 13.7761L46.4156 13.6235L6.78743 7.53898Z" fill="#1558BB"/>
<path d="M6.80311 7.43059L6.78076 7.58313L46.4069 13.6819L46.4292 13.5293L6.80311 7.43059Z" fill="#1558BB"/>
<path d="M6.81825 7.32879L6.7959 7.48132L46.422 13.58L46.4443 13.4275L6.81825 7.32879Z" fill="#1558BB"/>
<path d="M6.83241 7.22698L6.81006 7.37952L46.4362 13.4782L46.4585 13.3257L6.83241 7.22698Z" fill="#1558BB"/>
<path d="M6.84803 7.12517L6.82568 7.27771L46.4518 13.3764L46.4741 13.2239L6.84803 7.12517Z" fill="#1558BB"/>
<path d="M6.86312 7.03166L6.84082 7.1842L46.469 13.2687L46.4913 13.1162L6.86312 7.03166Z" fill="#1558BB"/>
<path d="M6.87679 6.92973L6.85449 7.08228L46.4827 13.1668L46.505 13.0143L6.87679 6.92973Z" fill="#1558BB"/>
<path d="M6.89344 6.82171L6.87109 6.97424L46.4972 13.073L46.5195 12.9204L6.89344 6.82171Z" fill="#1558BB"/>
<path d="M6.90663 6.71892L6.88428 6.87146L46.5104 12.9702L46.5327 12.8176L6.90663 6.71892Z" fill="#1558BB"/>
<path d="M6.92225 6.61749L6.8999 6.77002L46.526 12.8687L46.5484 12.7162L6.92225 6.61749Z" fill="#1558BB"/>
<path d="M6.93739 6.51568L6.91504 6.66821L46.5411 12.7669L46.5635 12.6144L6.93739 6.51568Z" fill="#1558BB"/>
<path d="M6.95396 6.41887L6.93164 6.57141L46.5588 12.663L46.5811 12.5105L6.95396 6.41887Z" fill="#1558BB"/>
<path d="M6.96717 6.31267L6.94482 6.46521L46.5709 12.5639L46.5933 12.4114L6.96717 6.31267Z" fill="#1558BB"/>
<path d="M6.98231 6.21136L6.95996 6.36389L46.5861 12.4626L46.6084 12.3101L6.98231 6.21136Z" fill="#1558BB"/>
<path d="M6.99647 6.10955L6.97412 6.26208L46.6002 12.3608L46.6226 12.2083L6.99647 6.10955Z" fill="#1558BB"/>
<path d="M7.01063 6.00713L6.98828 6.15967L46.6144 12.2584L46.6367 12.1059L7.01063 6.00713Z" fill="#1558BB"/>
<path d="M7.02669 5.91398L7.00439 6.06653L46.6326 12.1511L46.6549 11.9985L7.02669 5.91398Z" fill="#1558BB"/>
<path d="M7.04085 5.81267L7.01855 5.96521L46.6467 12.0498L46.669 11.8972L7.04085 5.81267Z" fill="#1558BB"/>
<path d="M7.05555 5.70318L7.0332 5.85571L46.6593 11.9544L46.6817 11.8019L7.05555 5.70318Z" fill="#1558BB"/>
<path d="M7.07069 5.60137L7.04834 5.75391L46.6744 11.8526L46.6968 11.7001L7.07069 5.60137Z" fill="#1558BB"/>
<path d="M7.08534 5.49969L7.06299 5.65222L46.6891 11.7509L46.7114 11.5984L7.08534 5.49969Z" fill="#1558BB"/>
<path d="M7.10096 5.39837L7.07861 5.5509L46.7047 11.6496L46.7271 11.4971L7.10096 5.39837Z" fill="#1558BB"/>
<path d="M7.11409 5.304L7.0918 5.45654L46.72 11.5411L46.7423 11.3885L7.11409 5.304Z" fill="#1558BB"/>
<path d="M7.12977 5.19524L7.10742 5.34778L46.7335 11.4465L46.7559 11.294L7.12977 5.19524Z" fill="#1558BB"/>
<path d="M7.14588 5.09344L7.12354 5.24597L46.7496 11.3447L46.772 11.1922L7.14588 5.09344Z" fill="#1558BB"/>
<path d="M7.16004 4.99212L7.1377 5.14465L46.7638 11.2434L46.7861 11.0908L7.16004 4.99212Z" fill="#1558BB"/>
<path d="M7.17518 4.89031L7.15283 5.04285L46.7789 11.1416L46.8013 10.989L7.17518 4.89031Z" fill="#1558BB"/>
<path d="M7.19127 4.79314L7.16895 4.94568L46.7961 11.0373L46.8184 10.8848L7.19127 4.79314Z" fill="#1558BB"/>
<path d="M7.2015 4.69292L7.1792 4.84546L46.8074 10.93L46.8297 10.7775L7.2015 4.69292Z" fill="#1558BB"/>
<path d="M7.21961 4.58575L7.19727 4.73828L46.8234 10.837L46.8457 10.6845L7.21961 4.58575Z" fill="#1558BB"/>
<path d="M7.23573 4.48406L7.21338 4.6366L46.8395 10.7353L46.8618 10.5828L7.23573 4.48406Z" fill="#1558BB"/>
<path d="M7.2494 4.38225L7.22705 4.53479L46.8532 10.6335L46.8755 10.481L7.2494 4.38225Z" fill="#1558BB"/>
<path d="M7.26405 4.28081L7.2417 4.43335L46.8678 10.5321L46.8902 10.3795L7.26405 4.28081Z" fill="#1558BB"/>
<path d="M7.27962 4.1873L7.25732 4.33984L46.8855 10.4244L46.9078 10.2718L7.27962 4.1873Z" fill="#1558BB"/>
<path d="M7.29378 4.08513L7.27148 4.23767L46.8997 10.3222L46.922 10.1697L7.29378 4.08513Z" fill="#1558BB"/>
<path d="M7.30848 3.97588L7.28613 4.12842L46.9122 10.2271L46.9346 10.0746L7.30848 3.97588Z" fill="#1558BB"/>
<path d="M7.32411 3.87408L7.30176 4.02661L46.9279 10.1253L46.9502 9.9728L7.32411 3.87408Z" fill="#1558BB"/>
<path d="M7.33827 3.77288L7.31592 3.92542L46.942 10.0241L46.9644 9.8716L7.33827 3.77288Z" fill="#1558BB"/>
<path d="M7.35389 3.67144L7.33154 3.82397L46.9576 9.9227L46.98 9.77016L7.35389 3.67144Z" fill="#1558BB"/>
<path d="M7.368 3.57731L7.3457 3.72986L46.9739 9.8144L46.9962 9.66186L7.368 3.57731Z" fill="#1558BB"/>
<path d="M7.38368 3.46844L7.36133 3.62097L46.9874 9.71969L47.0098 9.56716L7.38368 3.46844Z" fill="#1558BB"/>
<path d="M7.39881 3.36651L7.37646 3.51904L47.0026 9.61777L47.0249 9.46523L7.39881 3.36651Z" fill="#1558BB"/>
<path d="M7.41297 3.26482L7.39062 3.41736L47.0167 9.51608L47.0391 9.36354L7.41297 3.26482Z" fill="#1558BB"/>
<path d="M7.42811 3.16302L7.40576 3.31555L47.0319 9.41427L47.0542 9.26174L7.42811 3.16302Z" fill="#1558BB"/>
<path d="M7.4388 3.06804L7.4165 3.22058L47.0447 9.30513L47.067 9.15258L7.4388 3.06804Z" fill="#1558BB"/>
<path d="M7.46031 2.96489L7.43799 3.11743L47.0651 9.20906L47.0874 9.05652L7.46031 2.96489Z" fill="#1558BB"/>
<path d="M7.47157 2.85808L7.44922 3.01062L47.0753 9.10934L47.0977 8.95681L7.47157 2.85808Z" fill="#1558BB"/>
<path d="M7.48719 2.75664L7.46484 2.90918L47.0909 9.0079L47.1133 8.85537L7.48719 2.75664Z" fill="#1558BB"/>
<path d="M7.50331 2.65545L7.48096 2.80798L47.1071 8.90671L47.1294 8.75417L7.50331 2.65545Z" fill="#1558BB"/>
<path d="M7.51698 2.55413L7.49463 2.70667L47.1207 8.80539L47.1431 8.65285L7.51698 2.55413Z" fill="#1558BB"/>
<path d="M7.5306 2.45976L7.5083 2.6123L47.1365 8.69685L47.1588 8.5443L7.5306 2.45976Z" fill="#1558BB"/>
<path d="M7.54725 2.35052L7.5249 2.50305L47.151 8.60177L47.1734 8.44924L7.54725 2.35052Z" fill="#1558BB"/>
<path d="M7.5619 2.2492L7.53955 2.40173L47.1657 8.50046L47.188 8.34792L7.5619 2.2492Z" fill="#1558BB"/>
<path d="M7.57655 2.14727L7.5542 2.2998L47.1803 8.39853L47.2026 8.24599L7.57655 2.14727Z" fill="#1558BB"/>
<path d="M7.5912 2.04607L7.56885 2.19861L47.1949 8.29733L47.2173 8.14479L7.5912 2.04607Z" fill="#1558BB"/>
<path d="M7.60628 1.95183L7.58398 2.10437L47.2122 8.18891L47.2345 8.03637L7.60628 1.95183Z" fill="#1558BB"/>
<path d="M7.62142 1.85051L7.59912 2.00305L47.2273 8.0876L47.2496 7.93505L7.62142 1.85051Z" fill="#1558BB"/>
<path d="M7.63661 1.74114L7.61426 1.89368L47.2404 7.9924L47.2627 7.83987L7.63661 1.74114Z" fill="#1558BB"/>
<path d="M7.65125 1.63933L7.62891 1.79187L47.255 7.89059L47.2774 7.73806L7.65125 1.63933Z" fill="#1558BB"/>
<path d="M7.66639 1.53753L7.64404 1.69006L47.2701 7.78879L47.2925 7.63625L7.66639 1.53753Z" fill="#1558BB"/>
<path d="M7.68104 1.4367L7.65869 1.58923L47.2848 7.68796L47.3071 7.53542L7.68104 1.4367Z" fill="#1558BB"/>
<path d="M7.6981 1.33928L7.67578 1.49182L47.3029 7.58345L47.3252 7.43091L7.6981 1.33928Z" fill="#1558BB"/>
<path d="M7.71229 1.23357L7.68994 1.38611L47.316 7.48483L47.3384 7.33229L7.71229 1.23357Z" fill="#1558BB"/>
<path d="M7.72547 1.13128L7.70312 1.28381L47.3292 7.38254L47.3516 7.23L7.72547 1.13128Z" fill="#1558BB"/>
<path d="M7.74061 1.02984L7.71826 1.18237L47.3444 7.2811L47.3667 7.12856L7.74061 1.02984Z" fill="#1558BB"/>
<path d="M7.75526 0.928519L7.73291 1.08105L47.359 7.17978L47.3814 7.02724L7.75526 0.928519Z" fill="#1558BB"/>
<path d="M7.76888 0.834395L7.74658 0.986938L47.3748 7.07148L47.3971 6.91894L7.76888 0.834395Z" fill="#1558BB"/>
<path d="M7.7845 0.733076L7.76221 0.88562L47.3904 6.97016L47.4127 6.81762L7.7845 0.733076Z" fill="#1558BB"/>
<path d="M7.79969 0.623587L7.77734 0.776123L47.4034 6.87485L47.4258 6.72231L7.79969 0.623587Z" fill="#1558BB"/>
<path d="M7.81483 0.521905L7.79248 0.674438L47.4186 6.77316L47.4409 6.62063L7.81483 0.521905Z" fill="#1558BB"/>
<path d="M7.82899 0.420584L7.80664 0.57312L47.4327 6.67184L47.4551 6.51931L7.82899 0.420584Z" fill="#1558BB"/>
<path d="M7.84413 0.318778L7.82178 0.471313L47.4479 6.57004L47.4702 6.4175L7.84413 0.318778Z" fill="#1558BB"/>
<path d="M7.86019 0.224653L7.83789 0.377197L47.4661 6.46174L47.4884 6.3092L7.86019 0.224653Z" fill="#1558BB"/>
<path d="M7.8744 0.115655L7.85205 0.268188L47.4782 6.36691L47.5005 6.21438L7.8744 0.115655Z" fill="#1558BB"/>
<path d="M7.88905 0.0138459L7.8667 0.166382L47.4928 6.2651L47.5151 6.11257L7.88905 0.0138459Z" fill="#1558BB"/>
<path d="M7.9037 -0.0879607L7.88135 0.0645752L47.5074 6.1633L47.5298 6.01076L7.9037 -0.0879607Z" fill="#1558BB"/>
<path d="M7.91834 -0.188791L7.896 -0.0362549L47.5221 6.06247L47.5444 5.90993L7.91834 -0.188791Z" fill="#1558BB"/>
<path d="M7.93492 -0.286451L7.9126 -0.133911L47.5397 5.95772L47.5621 5.80518L7.93492 -0.286451Z" fill="#1558BB"/>
<path d="M7.94957 -0.388258L7.92725 -0.235718L47.5544 5.85591L47.5767 5.70337L7.94957 -0.388258Z" fill="#1558BB"/>
<path d="M7.96424 -0.493722L7.94189 -0.341187L47.568 5.75754L47.5903 5.605L7.96424 -0.493722Z" fill="#1558BB"/>
<path d="M7.97889 -0.595651L7.95654 -0.443115L47.5826 5.65561L47.605 5.50307L7.97889 -0.595651Z" fill="#1558BB"/>
<path d="M7.99354 -0.697092L7.97119 -0.544556L47.5973 5.55417L47.6196 5.40163L7.99354 -0.697092Z" fill="#1558BB"/>
<path d="M8.00868 -0.798776L7.98633 -0.64624L47.6124 5.45248L47.6348 5.29995L8.00868 -0.798776Z" fill="#1558BB"/>
<path d="M8.02278 -0.8929L8.00049 -0.740356L47.6287 5.34419L47.651 5.19164L8.02278 -0.8929Z" fill="#1558BB"/>
<path d="M8.03749 -1.00178L8.01514 -0.849243L47.6412 5.24948L47.6636 5.09694L8.03749 -1.00178Z" fill="#1558BB"/>
<path d="M8.05262 -1.10358L8.03027 -0.95105L47.6564 5.14767L47.6787 4.99514L8.05262 -1.10358Z" fill="#1558BB"/>
<path d="M8.06678 -1.20503L8.04443 -1.05249L47.6705 5.04623L47.6929 4.8937L8.06678 -1.20503Z" fill="#1558BB"/>
<path d="M8.08241 -1.30622L8.06006 -1.15369L47.6862 4.94504L47.7085 4.7925L8.08241 -1.30622Z" fill="#1558BB"/>
<path d="M8.09749 -1.40071L8.0752 -1.24817L47.7034 4.83638L47.7257 4.68383L8.09749 -1.40071Z" fill="#1558BB"/>
<path d="M8.11165 -1.50252L8.08936 -1.34998L47.7175 4.73457L47.7398 4.58203L8.11165 -1.50252Z" fill="#1558BB"/>
<path d="M8.12684 -1.61164L8.10449 -1.45911L47.7306 4.63962L47.7529 4.48708L8.12684 -1.61164Z" fill="#1558BB"/>
<path d="M8.14149 -1.71308L8.11914 -1.56055L47.7452 4.53818L47.7676 4.38564L8.14149 -1.71308Z" fill="#1558BB"/>
<path d="M8.15614 -1.8144L8.13379 -1.66187L47.7599 4.43686L47.7822 4.28432L8.15614 -1.8144Z" fill="#1558BB"/>
<path d="M8.17127 -1.91621L8.14893 -1.76367L47.775 4.33505L47.7974 4.18251L8.17127 -1.91621Z" fill="#1558BB"/>
<path d="M8.18834 -2.0135L8.16602 -1.86096L47.7931 4.23067L47.8155 4.07813L8.18834 -2.0135Z" fill="#1558BB"/>
<path d="M8.20106 -2.11933L8.17871 -1.9668L47.8048 4.13193L47.8272 3.97939L8.20106 -2.11933Z" fill="#1558BB"/>
<path d="M8.21668 -2.22102L8.19434 -2.06848L47.8204 4.03024L47.8428 3.8777L8.21668 -2.22102Z" fill="#1558BB"/>
<path d="M8.23182 -2.32234L8.20947 -2.1698L47.8356 3.92892L47.8579 3.77639L8.23182 -2.32234Z" fill="#1558BB"/>
<path d="M8.24647 -2.42414L8.22412 -2.27161L47.8502 3.82712L47.8726 3.67458L8.24647 -2.42414Z" fill="#1558BB"/>
<path d="M8.26204 -2.51839L8.23975 -2.36584L47.8679 3.7187L47.8902 3.56616L8.26204 -2.51839Z" fill="#1558BB"/>
<path d="M8.27425 -2.62044L8.25195 -2.4679L47.8801 3.61665L47.9024 3.4641L8.27425 -2.62044Z" fill="#1558BB"/>
<path d="M8.29041 -2.72907L8.26807 -2.57654L47.8942 3.52218L47.9165 3.36965L8.29041 -2.72907Z" fill="#1558BB"/>
<path d="M8.30409 -2.83039L8.28174 -2.67786L47.9078 3.42087L47.9302 3.26833L8.30409 -2.83039Z" fill="#1558BB"/>
<path d="M8.32069 -2.93183L8.29834 -2.7793L47.9244 3.31943L47.9468 3.16689L8.32069 -2.93183Z" fill="#1558BB"/>
<path d="M8.33534 -3.03352L8.31299 -2.88098L47.9391 3.21774L47.9614 3.06521L8.33534 -3.03352Z" fill="#1558BB"/>
<path d="M8.34944 -3.12788L8.32715 -2.97534L47.9553 3.1092L47.9776 2.95666L8.34944 -3.12788Z" fill="#1558BB"/>
<path d="M8.36556 -3.22969L8.34326 -3.07715L47.9714 3.0074L47.9937 2.85485L8.36556 -3.22969Z" fill="#1558BB"/>
<path d="M8.37928 -3.33869L8.35693 -3.18616L47.983 2.91257L48.0054 2.76003L8.37928 -3.33869Z" fill="#1558BB"/>
<path d="M8.39442 -3.43977L8.37207 -3.28723L47.9982 2.81149L48.0205 2.65896L8.39442 -3.43977Z" fill="#1558BB"/>
<path d="M8.40809 -3.5417L8.38574 -3.38916L48.0118 2.70956L48.0342 2.55703L8.40809 -3.5417Z" fill="#1558BB"/>
<path d="M8.42618 -3.64618L8.40381 -3.49365L48.0289 2.61216L48.0512 2.45963L8.42618 -3.64618Z" fill="#1558BB"/>
<path d="M8.43587 -3.73836L8.41357 -3.58582L48.0418 2.49873L48.0641 2.34619L8.43587 -3.73836Z" fill="#1558BB"/>
<path d="M8.45399 -3.84663L8.43164 -3.69409L48.0577 2.40463L48.0801 2.2521L8.45399 -3.84663Z" fill="#1558BB"/>
<path d="M8.46913 -3.94795L8.44678 -3.79541L48.0729 2.30331L48.0952 2.15078L8.46913 -3.94795Z" fill="#1558BB"/>
<path d="M8.48475 -4.04963L8.4624 -3.89709L48.0885 2.20163L48.1109 2.04909L8.48475 -4.04963Z" fill="#1558BB"/>
<path d="M8.49891 -4.15095L8.47656 -3.99841L48.1027 2.10031L48.125 1.94777L8.49891 -4.15095Z" fill="#1558BB"/>
<path d="M8.51253 -4.24605L8.49023 -4.09351L48.1184 1.99104L48.1407 1.83849L8.51253 -4.24605Z" fill="#1558BB"/>
<path d="M8.52767 -4.34724L8.50537 -4.1947L48.1335 1.88984L48.1558 1.7373L8.52767 -4.34724Z" fill="#1558BB"/>
<path d="M8.5278 -4.36468L8.52051 -4.31506L48.1435 1.80492L48.1508 1.75531L8.5278 -4.36468Z" fill="#1558BB"/>
</g>
<mask id="mask1_683_10663" style="mask-type:luminance" maskUnits="userSpaceOnUse" x="0" y="6" width="52" height="34">
<path d="M7.32554 12.571C3.84782 13.4231 -1.82478 15.4641 0.574535 19.0294C1.70915 20.7149 4.05271 21.8309 6.6551 22.5473L6.64196 22.5436C6.64876 22.5993 6.65646 22.6546 6.66372 22.7099C6.68094 22.9529 6.71721 23.1945 6.77206 23.4319C7.67548 28.7729 10.6655 33.5452 15.1432 36.6245C21.1997 40.7878 30.0191 41.3081 36.2039 37.0143C36.5439 36.7783 36.7506 36.4675 36.4732 35.9346C36.0557 35.1323 34.5208 35.4947 32.9035 36.0159C29.7875 37.0204 28.5735 37.5398 25.2218 36.6747C24.507 36.4903 21.3488 35.45 21.803 34.3401C21.9408 34.0038 22.323 33.9582 22.6951 33.9912C24.2318 34.1269 25.8723 35.1569 27.4389 34.4493C27.991 34.1998 28.4004 33.6539 28.2698 33.3538C28.1402 33.0569 26.0804 32.4924 25.6937 32.3879C24.4499 32.0525 23.255 31.8601 22.1086 31.8104C20.6344 31.7468 19.3321 31.9712 18.1649 32.6611C17.4917 33.0588 17.304 33.4263 16.4274 33.3682C15.3861 33.299 14.1695 32.4836 12.7774 30.9226C11.0059 28.6721 9.80509 25.9983 9.29513 23.1331C11.3522 23.4941 13.3757 23.6507 14.9296 23.68L15.8163 24.94C16.0502 25.2726 16.4233 25.4301 16.8181 25.3627C17.2129 25.2954 17.5157 25.0227 17.6322 24.6301L18.0098 23.3562L19.8239 28.8337C19.979 29.3016 20.4146 29.5906 20.8946 29.5432C21.3747 29.4958 21.7486 29.1278 21.8139 28.6381L23.6108 16.4992L25.3007 30.3599C25.3379 30.9109 25.7817 31.337 26.3206 31.3398C26.8596 31.3421 27.307 30.9202 27.3492 30.3697L28.8192 20.9468L30.2988 28.0602C30.3677 28.5861 30.7992 28.9731 31.3169 28.9727C31.8346 28.9727 32.2661 28.5852 32.3346 28.0593L34.0671 20.6071L35.6029 23.1443C35.7892 23.4872 36.1174 23.6846 36.4999 23.6846C38.5067 23.6846 40.6853 23.4644 42.7111 23.1048C41.862 27.9366 39.0674 32.0752 35.1885 34.6384C36.7076 34.598 37.3376 35.2089 37.0779 36.4698C41.5366 33.3138 44.6507 28.3046 45.3611 22.5287L45.2527 22.557C47.8116 21.8894 50.962 20.6443 51.8351 18.2558C52.9974 15.0757 47.7459 13.2921 44.5537 12.5353C44.585 12.6184 44.6149 12.7025 44.6448 12.7861C47.1316 13.6837 50.7068 15.3433 49.9117 17.5171C49.2059 19.4475 45.0632 20.4877 43.3321 20.8445C41.3593 21.2511 39.1508 21.5266 37.0997 21.573L34.7321 17.4493C34.5131 17.046 34.0852 16.8411 33.6432 16.9275C33.2008 17.014 32.8767 17.3652 32.8173 17.8224L31.3142 24.1743L29.5703 12.3406C29.5001 11.8049 29.0518 11.4137 28.5241 11.4286C27.9969 11.4435 27.5699 11.8593 27.5287 12.3982L26.3891 23.6665L24.9698 7.87721C24.9335 7.33642 24.5079 6.91596 23.9793 6.89831C23.4508 6.88019 22.9993 7.27092 22.9277 7.80752L20.3693 23.9304L18.9282 20.254C18.7822 19.8136 18.3929 19.5325 17.9391 19.54C17.4854 19.5474 17.105 19.842 16.9731 20.2866L16.2701 21.9851C16.0715 21.7222 15.7877 21.5795 15.46 21.5795C13.2941 21.5795 10.9687 21.3305 8.84636 20.9017C6.91575 20.5114 3.45027 19.5934 2.2658 17.8335C0.813424 15.675 4.60891 13.8329 7.22445 12.8507C7.25799 12.7569 7.29154 12.6635 7.32644 12.5701L7.32554 12.571Z" fill="white"/>
</mask>
<g mask="url(#mask1_683_10663)">
<path d="M-6.35267 33.5474L-6.37158 33.623L44.9744 47.1154L44.9933 47.0398L-6.35267 33.5474Z" fill="url(#paint1_linear_683_10663)"/>
<path d="M-6.32253 33.4286L-6.39209 33.7063L44.9493 47.217L45.0188 46.9394L-6.32253 33.4286Z" fill="url(#paint2_linear_683_10663)"/>
<path d="M-6.27766 33.2477L-6.34717 33.5254L44.9965 47.0269L45.066 46.7492L-6.27766 33.2477Z" fill="url(#paint3_linear_683_10663)"/>
<path d="M-6.23079 33.066L-6.30029 33.3436L45.0434 46.8451L45.1129 46.5675L-6.23079 33.066Z" fill="url(#paint4_linear_683_10663)"/>
<path d="M-6.18289 32.8755L-6.25244 33.1532L45.0889 46.6639L45.1585 46.3863L-6.18289 32.8755Z" fill="url(#paint5_linear_683_10663)"/>
<path d="M-6.13703 32.6967L-6.20654 32.9744L45.1371 46.4759L45.2066 46.1982L-6.13703 32.6967Z" fill="url(#paint6_linear_683_10663)"/>
<path d="M-6.09114 32.511L-6.16064 32.7887L45.183 46.2902L45.2525 46.0126L-6.09114 32.511Z" fill="url(#paint7_linear_683_10663)"/>
<path d="M-6.0447 32.317L-6.11426 32.5946L45.2271 46.1053L45.2967 45.8277L-6.0447 32.317Z" fill="url(#paint8_linear_683_10663)"/>
<path d="M-5.99934 32.1377L-6.06885 32.4154L45.2748 45.9169L45.3443 45.6393L-5.99934 32.1377Z" fill="url(#paint9_linear_683_10663)"/>
<path d="M-5.95193 31.9501L-6.02148 32.2278L45.3199 45.7385L45.3894 45.4608L-5.95193 31.9501Z" fill="url(#paint10_linear_683_10663)"/>
<path d="M-5.90608 31.7708L-5.97559 32.0485L45.3681 45.55L45.4376 45.2723L-5.90608 31.7708Z" fill="url(#paint11_linear_683_10663)"/>
<path d="M-5.85969 31.5865L-5.9292 31.8641L45.4145 45.3657L45.484 45.088L-5.85969 31.5865Z" fill="url(#paint12_linear_683_10663)"/>
<path d="M-5.81277 31.3952L-5.88232 31.6729L45.459 45.1836L45.5286 44.9059L-5.81277 31.3952Z" fill="url(#paint13_linear_683_10663)"/>
<path d="M-5.76692 31.215L-5.83643 31.4927L45.5072 44.9942L45.5767 44.7165L-5.76692 31.215Z" fill="url(#paint14_linear_683_10663)"/>
<path d="M-5.722 31.0273L-5.7915 31.3049L45.5522 44.8065L45.6217 44.5288L-5.722 31.0273Z" fill="url(#paint15_linear_683_10663)"/>
<path d="M-5.67312 30.8371L-5.74268 31.1147L45.5987 44.6255L45.6682 44.3478L-5.67312 30.8371Z" fill="url(#paint16_linear_683_10663)"/>
<path d="M-5.62825 30.6578L-5.69775 30.9354L45.6459 44.4369L45.7154 44.1593L-5.62825 30.6578Z" fill="url(#paint17_linear_683_10663)"/>
<path d="M-5.58181 30.4695L-5.65137 30.7472L45.69 44.2579L45.7596 43.9802L-5.58181 30.4695Z" fill="url(#paint18_linear_683_10663)"/>
<path d="M-5.53445 30.2847L-5.604 30.5624L45.7374 44.0731L45.8069 43.7954L-5.53445 30.2847Z" fill="url(#paint19_linear_683_10663)"/>
<path d="M-5.48957 30.1048L-5.55908 30.3824L45.7846 43.884L45.8541 43.6063L-5.48957 30.1048Z" fill="url(#paint20_linear_683_10663)"/>
<path d="M-5.44119 29.9155L-5.51074 30.1931L45.8306 43.7038L45.9002 43.4262L-5.44119 29.9155Z" fill="url(#paint21_linear_683_10663)"/>
<path d="M-5.39631 29.7352L-5.46582 30.0128L45.8778 43.5143L45.9474 43.2367L-5.39631 29.7352Z" fill="url(#paint22_linear_683_10663)"/>
<path d="M-5.3509 29.5466L-5.42041 29.8242L45.9233 43.3257L45.9928 43.0481L-5.3509 29.5466Z" fill="url(#paint23_linear_683_10663)"/>
<path d="M-5.30398 29.3554L-5.37354 29.6331L45.9678 43.1438L46.0374 42.8661L-5.30398 29.3554Z" fill="url(#paint24_linear_683_10663)"/>
<path d="M-5.25862 29.1763L-5.32812 29.454L46.0155 42.9555L46.085 42.6778L-5.25862 29.1763Z" fill="url(#paint25_linear_683_10663)"/>
<path d="M-5.20974 28.9885L-5.2793 29.2661L46.0621 42.7768L46.1316 42.4992L-5.20974 28.9885Z" fill="url(#paint26_linear_683_10663)"/>
<path d="M-5.16384 28.8027L-5.2334 29.0803L46.108 42.591L46.1775 42.3134L-5.16384 28.8027Z" fill="url(#paint27_linear_683_10663)"/>
<path d="M-5.11897 28.6238L-5.18848 28.9015L46.1552 42.403L46.2247 42.1253L-5.11897 28.6238Z" fill="url(#paint28_linear_683_10663)"/>
<path d="M-5.07107 28.433L-5.14062 28.7107L46.2007 42.2214L46.2703 41.9437L-5.07107 28.433Z" fill="url(#paint29_linear_683_10663)"/>
<path d="M-5.02717 28.2494L-5.09668 28.5271L46.247 42.0286L46.3165 41.751L-5.02717 28.2494Z" fill="url(#paint30_linear_683_10663)"/>
<path d="M-4.9803 28.0656L-5.0498 28.3433L46.2939 41.8448L46.3634 41.5671L-4.9803 28.0656Z" fill="url(#paint31_linear_683_10663)"/>
<path d="M-4.93142 27.8779L-5.00098 28.1555L46.3404 41.6662L46.4099 41.3886L-4.93142 27.8779Z" fill="url(#paint32_linear_683_10663)"/>
<path d="M-4.88606 27.6983L-4.95557 27.976L46.3881 41.4775L46.4576 41.1998L-4.88606 27.6983Z" fill="url(#paint33_linear_683_10663)"/>
<path d="M-4.84114 27.5121L-4.91064 27.7898L46.433 41.2913L46.5025 41.0136L-4.84114 27.5121Z" fill="url(#paint34_linear_683_10663)"/>
<path d="M-4.79324 27.3216L-4.86279 27.5992L46.4786 41.1099L46.5481 40.8323L-4.79324 27.3216Z" fill="url(#paint35_linear_683_10663)"/>
<path d="M-4.7469 27.1434L-4.81641 27.421L46.5273 40.9225L46.5968 40.6449L-4.7469 27.1434Z" fill="url(#paint36_linear_683_10663)"/>
<path d="M-4.69998 26.952L-4.76953 27.2296L46.5718 40.7403L46.6414 40.4627L-4.69998 26.952Z" fill="url(#paint37_linear_683_10663)"/>
<path d="M-4.6551 26.7697L-4.72461 27.0474L46.6191 40.5489L46.6886 40.2712L-4.6551 26.7697Z" fill="url(#paint38_linear_683_10663)"/>
<path d="M-4.60969 26.5846L-4.6792 26.8623L46.6645 40.3638L46.734 40.0862L-4.60969 26.5846Z" fill="url(#paint39_linear_683_10663)"/>
<path d="M-4.56082 26.3978L-4.63037 26.6754L46.711 40.1861L46.7806 39.9085L-4.56082 26.3978Z" fill="url(#paint40_linear_683_10663)"/>
<path d="M-4.51545 26.2179L-4.58496 26.4956L46.7587 39.9971L46.8282 39.7195L-4.51545 26.2179Z" fill="url(#paint41_linear_683_10663)"/>
<path d="M-4.46907 26.0317L-4.53857 26.3093L46.8051 39.8108L46.8746 39.5332L-4.46907 26.0317Z" fill="url(#paint42_linear_683_10663)"/>
<path d="M-4.42166 25.8414L-4.49121 26.119L46.8502 39.6297L46.9197 39.3521L-4.42166 25.8414Z" fill="url(#paint43_linear_683_10663)"/>
<path d="M-4.3758 25.6615L-4.44531 25.9392L46.8984 39.4407L46.9679 39.1631L-4.3758 25.6615Z" fill="url(#paint44_linear_683_10663)"/>
<path d="M-4.32839 25.4722L-4.39795 25.7499L46.9434 39.2606L47.013 38.9829L-4.32839 25.4722Z" fill="url(#paint45_linear_683_10663)"/>
<path d="M-4.28347 25.2845L-4.35303 25.5621L46.9883 39.0728L47.0579 38.7952L-4.28347 25.2845Z" fill="url(#paint46_linear_683_10663)"/>
<path d="M-4.23762 25.1064L-4.30713 25.384L47.0365 38.8856L47.106 38.6079L-4.23762 25.1064Z" fill="url(#paint47_linear_683_10663)"/>
<path d="M-4.19021 24.9152L-4.25977 25.1929L47.0816 38.7036L47.1512 38.4259L-4.19021 24.9152Z" fill="url(#paint48_linear_683_10663)"/>
<path d="M-4.14436 24.7365L-4.21387 25.0142L47.1298 38.5157L47.1993 38.238L-4.14436 24.7365Z" fill="url(#paint49_linear_683_10663)"/>
<path d="M-4.09846 24.5513L-4.16797 24.829L47.1757 38.3305L47.2452 38.0528L-4.09846 24.5513Z" fill="url(#paint50_linear_683_10663)"/>
<path d="M-4.05203 24.3608L-4.12158 24.6384L47.2198 38.1491L47.2893 37.8715L-4.05203 24.3608Z" fill="url(#paint51_linear_683_10663)"/>
<path d="M-4.00666 24.1773L-4.07617 24.455L47.2675 37.9565L47.337 37.6788L-4.00666 24.1773Z" fill="url(#paint52_linear_683_10663)"/>
<path d="M-3.95974 23.9872L-4.0293 24.2649L47.3121 37.7756L47.3816 37.4979L-3.95974 23.9872Z" fill="url(#paint53_linear_683_10663)"/>
<path d="M-3.91238 23.8047L-3.98193 24.0824L47.3594 37.5931L47.429 37.3155L-3.91238 23.8047Z" fill="url(#paint54_linear_683_10663)"/>
<path d="M-3.86653 23.6253L-3.93604 23.903L47.4076 37.4045L47.4771 37.1268L-3.86653 23.6253Z" fill="url(#paint55_linear_683_10663)"/>
<path d="M-3.81863 23.4351L-3.88818 23.7128L47.4532 37.2235L47.5227 36.9458L-3.81863 23.4351Z" fill="url(#paint56_linear_683_10663)"/>
<path d="M-3.77375 23.2552L-3.84326 23.5328L47.5004 37.0344L47.5699 36.7567L-3.77375 23.2552Z" fill="url(#paint57_linear_683_10663)"/>
<path d="M-3.72786 23.0694L-3.79736 23.347L47.5463 36.8486L47.6158 36.5709L-3.72786 23.0694Z" fill="url(#paint58_linear_683_10663)"/>
<path d="M-3.67996 22.8791L-3.74951 23.1567L47.5919 36.6674L47.6614 36.3898L-3.67996 22.8791Z" fill="url(#paint59_linear_683_10663)"/>
<path d="M-3.63557 22.6978L-3.70508 22.9755L47.6386 36.477L47.7081 36.1993L-3.63557 22.6978Z" fill="url(#paint60_linear_683_10663)"/>
<path d="M-3.58967 22.5118L-3.65918 22.7894L47.6845 36.2909L47.754 36.0133L-3.58967 22.5118Z" fill="url(#paint61_linear_683_10663)"/>
<path d="M-3.54177 22.324L-3.61133 22.6017L47.73 36.1124L47.7996 35.8347L-3.54177 22.324Z" fill="url(#paint62_linear_683_10663)"/>
<path d="M-3.49543 22.1443L-3.56494 22.422L47.7787 35.9235L47.8482 35.6459L-3.49543 22.1443Z" fill="url(#paint63_linear_683_10663)"/>
<path d="M-3.44753 21.954L-3.51709 22.2317L47.8243 35.7424L47.8938 35.4647L-3.44753 21.954Z" fill="url(#paint64_linear_683_10663)"/>
<path d="M-3.40217 21.7751L-3.47168 22.0527L47.872 35.5543L47.9415 35.2766L-3.40217 21.7751Z" fill="url(#paint65_linear_683_10663)"/>
<path d="M-3.35579 21.5894L-3.42529 21.8671L47.9184 35.3686L47.9879 35.0909L-3.35579 21.5894Z" fill="url(#paint66_linear_683_10663)"/>
<path d="M-3.30935 21.3994L-3.37891 21.677L47.9625 35.1877L48.032 34.9101L-3.30935 21.3994Z" fill="url(#paint67_linear_683_10663)"/>
<path d="M-3.26496 21.2166L-3.33447 21.4943L48.0092 34.9958L48.0787 34.7181L-3.26496 21.2166Z" fill="url(#paint68_linear_683_10663)"/>
<path d="M-3.21809 21.0335L-3.2876 21.3112L48.0561 34.8127L48.1256 34.535L-3.21809 21.0335Z" fill="url(#paint69_linear_683_10663)"/>
<path d="M-3.17019 20.8443L-3.23975 21.1219L48.1016 34.6327L48.1712 34.355L-3.17019 20.8443Z" fill="url(#paint70_linear_683_10663)"/>
<path d="M-3.12483 20.6645L-3.19434 20.9421L48.1493 34.4437L48.2188 34.166L-3.12483 20.6645Z" fill="url(#paint71_linear_683_10663)"/>
<path d="M-3.07742 20.4725L-3.14697 20.7501L48.1944 34.2608L48.2639 33.9832L-3.07742 20.4725Z" fill="url(#paint72_linear_683_10663)"/>
<path d="M-3.03103 20.2885L-3.10059 20.5662L48.2408 34.0769L48.3103 33.7992L-3.03103 20.2885Z" fill="url(#paint73_linear_683_10663)"/>
<path d="M-2.98762 20.1062L-3.05713 20.3839L48.2865 33.8854L48.356 33.6078L-2.98762 20.1062Z" fill="url(#paint74_linear_683_10663)"/>
<path d="M-2.93972 19.916L-3.00928 20.1936L48.3321 33.7043L48.4016 33.4267L-2.93972 19.916Z" fill="url(#paint75_linear_683_10663)"/>
<path d="M-2.89436 19.7352L-2.96387 20.0128L48.3798 33.5143L48.4493 33.2367L-2.89436 19.7352Z" fill="url(#paint76_linear_683_10663)"/>
<path d="M-2.84748 19.5528L-2.91699 19.8304L48.4267 33.332L48.4962 33.0543L-2.84748 19.5528Z" fill="url(#paint77_linear_683_10663)"/>
<path d="M-2.80007 19.3624L-2.86963 19.64L48.4717 33.1507L48.5413 32.8731L-2.80007 19.3624Z" fill="url(#paint78_linear_683_10663)"/>
<path d="M-2.75422 19.1835L-2.82373 19.4612L48.5199 32.9627L48.5894 32.685L-2.75422 19.1835Z" fill="url(#paint79_linear_683_10663)"/>
<path d="M-2.70681 18.9922L-2.77637 19.2699L48.565 32.7806L48.6346 32.503L-2.70681 18.9922Z" fill="url(#paint80_linear_683_10663)"/>
<path d="M-2.6614 18.8068L-2.73096 19.0845L48.6104 32.5952L48.68 32.3175L-2.6614 18.8068Z" fill="url(#paint81_linear_683_10663)"/>
<path d="M-2.6175 18.6244L-2.68701 18.9021L48.6567 32.4036L48.7262 32.126L-2.6175 18.6244Z" fill="url(#paint82_linear_683_10663)"/>
<path d="M-2.57009 18.4343L-2.63965 18.7119L48.7017 32.2226L48.7713 31.945L-2.57009 18.4343Z" fill="url(#paint83_linear_683_10663)"/>
<path d="M-2.52327 18.2543L-2.59277 18.532L48.7509 32.0335L48.8204 31.7558L-2.52327 18.2543Z" fill="url(#paint84_linear_683_10663)"/>
<path d="M-2.47639 18.0718L-2.5459 18.3495L48.7978 31.851L48.8673 31.5733L-2.47639 18.0718Z" fill="url(#paint85_linear_683_10663)"/>
<path d="M-2.42947 17.8812L-2.49902 18.1588L48.8423 31.6695L48.9119 31.3919L-2.42947 17.8812Z" fill="url(#paint86_linear_683_10663)"/>
<path d="M-2.38362 17.7017L-2.45312 17.9794L48.8905 31.4809L48.96 31.2032L-2.38362 17.7017Z" fill="url(#paint87_linear_683_10663)"/>
<path d="M-2.33772 17.5159L-2.40723 17.7936L48.9364 31.2951L49.0059 31.0174L-2.33772 17.5159Z" fill="url(#paint88_linear_683_10663)"/>
<path d="M-2.29031 17.3257L-2.35986 17.6034L48.9815 31.1141L49.0511 30.8365L-2.29031 17.3257Z" fill="url(#paint89_linear_683_10663)"/>
<path d="M-2.24543 17.1446L-2.31494 17.4222L49.0287 30.9238L49.0982 30.6461L-2.24543 17.1446Z" fill="url(#paint90_linear_683_10663)"/>
<path d="M-2.19656 16.9565L-2.26611 17.2341L49.0753 30.7448L49.1448 30.4672L-2.19656 16.9565Z" fill="url(#paint91_linear_683_10663)"/>
<path d="M-2.15071 16.7762L-2.22021 17.0538L49.1234 30.5554L49.193 30.2777L-2.15071 16.7762Z" fill="url(#paint92_linear_683_10663)"/>
<path d="M-2.1053 16.5909L-2.1748 16.8685L49.1689 30.37L49.2384 30.0924L-2.1053 16.5909Z" fill="url(#paint93_linear_683_10663)"/>
<path d="M-2.05789 16.4014L-2.12744 16.6791L49.2139 30.1898L49.2835 29.9121L-2.05789 16.4014Z" fill="url(#paint94_linear_683_10663)"/>
<path d="M-2.01301 16.2212L-2.08252 16.4989L49.2611 30.0004L49.3307 29.7228L-2.01301 16.2212Z" fill="url(#paint95_linear_683_10663)"/>
<path d="M-1.96711 16.0339L-2.03662 16.3115L49.307 29.813L49.3766 29.5354L-1.96711 16.0339Z" fill="url(#paint96_linear_683_10663)"/>
<path d="M-1.92019 15.8434L-1.98975 16.1211L49.3516 29.6318L49.4212 29.3542L-1.92019 15.8434Z" fill="url(#paint97_linear_683_10663)"/>
<path d="M-1.87532 15.663L-1.94482 15.9407L49.3988 29.4422L49.4683 29.1645L-1.87532 15.663Z" fill="url(#paint98_linear_683_10663)"/>
<path d="M-1.82644 15.4753L-1.896 15.7529L49.4454 29.2636L49.5149 28.986L-1.82644 15.4753Z" fill="url(#paint99_linear_683_10663)"/>
<path d="M-1.78054 15.29L-1.8501 15.5676L49.4913 29.0783L49.5608 28.8007L-1.78054 15.29Z" fill="url(#paint100_linear_683_10663)"/>
<path d="M-1.7342 15.1099L-1.80371 15.3876L49.54 28.8891L49.6095 28.6114L-1.7342 15.1099Z" fill="url(#paint101_linear_683_10663)"/>
<path d="M-1.68777 14.9194L-1.75732 15.197L49.584 28.7077L49.6536 28.4301L-1.68777 14.9194Z" fill="url(#paint102_linear_683_10663)"/>
<path d="M-1.64143 14.7399L-1.71094 15.0176L49.6327 28.5191L49.7022 28.2414L-1.64143 14.7399Z" fill="url(#paint103_linear_683_10663)"/>
<path d="M-1.59602 14.5531L-1.66553 14.8308L49.6781 28.3323L49.7476 28.0547L-1.59602 14.5531Z" fill="url(#paint104_linear_683_10663)"/>
<path d="M-1.55007 14.3626L-1.61963 14.6403L49.7217 28.151L49.7913 27.8733L-1.55007 14.3626Z" fill="url(#paint105_linear_683_10663)"/>
<path d="M-1.50471 14.1818L-1.57422 14.4595L49.7694 27.961L49.839 27.6833L-1.50471 14.1818Z" fill="url(#paint106_linear_683_10663)"/>
<path d="M-1.45535 13.9937L-1.5249 14.2714L49.8165 27.7821L49.886 27.5044L-1.45535 13.9937Z" fill="url(#paint107_linear_683_10663)"/>
<path d="M-1.40896 13.8089L-1.47852 14.0865L49.8629 27.5973L49.9324 27.3196L-1.40896 13.8089Z" fill="url(#paint108_linear_683_10663)"/>
<path d="M-1.3636 13.6291L-1.43311 13.9067L49.9106 27.4083L49.9801 27.1306L-1.3636 13.6291Z" fill="url(#paint109_linear_683_10663)"/>
<path d="M-1.31716 13.4383L-1.38672 13.7159L49.9546 27.2266L50.0242 26.949L-1.31716 13.4383Z" fill="url(#paint110_linear_683_10663)"/>
<path d="M-1.27278 13.2568L-1.34229 13.5344L50.0014 27.0359L50.0709 26.7583L-1.27278 13.2568Z" fill="url(#paint111_linear_683_10663)"/>
<path d="M-1.22639 13.0715L-1.2959 13.3491L50.0478 26.8506L50.1173 26.573L-1.22639 13.0715Z" fill="url(#paint112_linear_683_10663)"/>
<path d="M-1.17703 12.8832L-1.24658 13.1609L50.0948 26.6716L50.1643 26.3939L-1.17703 12.8832Z" fill="url(#paint113_linear_683_10663)"/>
<path d="M-1.13166 12.7037L-1.20117 12.9813L50.1425 26.4828L50.212 26.2052L-1.13166 12.7037Z" fill="url(#paint114_linear_683_10663)"/>
<path d="M-1.08479 12.5184L-1.1543 12.796L50.1894 26.2975L50.2589 26.0199L-1.08479 12.5184Z" fill="url(#paint115_linear_683_10663)"/>
<path d="M-1.03884 12.3279L-1.1084 12.6056L50.233 26.1163L50.3025 25.8386L-1.03884 12.3279Z" fill="url(#paint116_linear_683_10663)"/>
<path d="M-0.992992 12.1482L-1.0625 12.4259L50.2812 25.9274L50.3507 25.6498L-0.992992 12.1482Z" fill="url(#paint117_linear_683_10663)"/>
<path d="M-0.945581 11.9587L-1.01514 12.2363L50.3262 25.747L50.3958 25.4694L-0.945581 11.9587Z" fill="url(#paint118_linear_683_10663)"/>
<path d="M-0.90066 11.7711L-0.970215 12.0487L50.3712 25.5594L50.4407 25.2818L-0.90066 11.7711Z" fill="url(#paint119_linear_683_10663)"/>
<path d="M-0.855297 11.591L-0.924805 11.8687L50.4189 25.3702L50.4884 25.0925L-0.855297 11.591Z" fill="url(#paint120_linear_683_10663)"/>
<path d="M-0.806909 11.4026L-0.876465 11.6803L50.4649 25.191L50.5345 24.9134L-0.806909 11.4026Z" fill="url(#paint121_linear_683_10663)"/>
<path d="M-0.761059 11.2225L-0.830566 11.5001L50.5131 25.0016L50.5826 24.724L-0.761059 11.2225Z" fill="url(#paint122_linear_683_10663)"/>
<path d="M-0.714183 11.0375L-0.783691 11.3152L50.56 24.8167L50.6295 24.539L-0.714183 11.0375Z" fill="url(#paint123_linear_683_10663)"/>
<path d="M-0.666773 10.8476L-0.736328 11.1252L50.605 24.6359L50.6746 24.3583L-0.666773 10.8476Z" fill="url(#paint124_linear_683_10663)"/>
<path d="M-0.62141 10.6675L-0.690918 10.9452L50.6527 24.4467L50.7223 24.169L-0.62141 10.6675Z" fill="url(#paint125_linear_683_10663)"/>
<path d="M-0.574976 10.4765L-0.644531 10.7542L50.6968 24.2649L50.7664 23.9872L-0.574976 10.4765Z" fill="url(#paint126_linear_683_10663)"/>
<path d="M-0.530543 10.2899L-0.600098 10.5675L50.7413 24.0782L50.8108 23.8006L-0.530543 10.2899Z" fill="url(#paint127_linear_683_10663)"/>
<path d="M-0.484692 10.1105L-0.554199 10.3882L50.7895 23.8897L50.859 23.612L-0.484692 10.1105Z" fill="url(#paint128_linear_683_10663)"/>
<path d="M-0.435327 9.92206L-0.504883 10.1997L50.8365 23.7104L50.906 23.4328L-0.435327 9.92206Z" fill="url(#paint129_linear_683_10663)"/>
<path d="M-0.389965 9.74102L-0.459473 10.0187L50.8842 23.5202L50.9537 23.2425L-0.389965 9.74102Z" fill="url(#paint130_linear_683_10663)"/>
<path d="M-0.343578 9.55669L-0.413086 9.83435L50.9306 23.3359L51.0001 23.0582L-0.343578 9.55669Z" fill="url(#paint131_linear_683_10663)"/>
<path d="M-0.296655 9.36615L-0.366211 9.6438L50.9752 23.1545L51.0447 22.8769L-0.296655 9.36615Z" fill="url(#paint132_linear_683_10663)"/>
<path d="M-0.252758 9.18474L-0.322266 9.4624L51.0214 22.9639L51.0909 22.6863L-0.252758 9.18474Z" fill="url(#paint133_linear_683_10663)"/>
<path d="M-0.206371 8.99931L-0.275879 9.27698L51.0678 22.7785L51.1373 22.5008L-0.206371 8.99931Z" fill="url(#paint134_linear_683_10663)"/>
<path d="M-0.158472 8.81049L-0.228027 9.08813L51.1133 22.5988L51.1829 22.3212L-0.158472 8.81049Z" fill="url(#paint135_linear_683_10663)"/>
<path d="M-0.112133 8.63054L-0.181641 8.9082L51.162 22.4097L51.2315 22.1321L-0.112133 8.63054Z" fill="url(#paint136_linear_683_10663)"/>
<path d="M-0.065699 8.44049L-0.135254 8.71814L51.2061 22.2288L51.2757 21.9512L-0.065699 8.44049Z" fill="url(#paint137_linear_683_10663)"/>
<path d="M-0.0198478 8.26091L-0.0893555 8.53857L51.2543 22.0401L51.3238 21.7624L-0.0198478 8.26091Z" fill="url(#paint138_linear_683_10663)"/>
<path d="M0.0265389 8.07524L-0.0429688 8.35291L51.3007 21.8544L51.3702 21.5768L0.0265389 8.07524Z" fill="url(#paint139_linear_683_10663)"/>
<path d="M0.0734619 7.88482L0.00390625 8.16248L51.3453 21.6732L51.4148 21.3955L0.0734619 7.88482Z" fill="url(#paint140_linear_683_10663)"/>
<path d="M0.118824 7.70378L0.0493164 7.98145L51.393 21.483L51.4625 21.2053L0.118824 7.70378Z" fill="url(#paint141_linear_683_10663)"/>
<path d="M0.164723 7.51799L0.0952148 7.79565L51.4389 21.2972L51.5084 21.0195L0.164723 7.51799Z" fill="url(#paint142_linear_683_10663)"/>
<path d="M0.212622 7.32989L0.143066 7.60754L51.4844 21.1182L51.554 20.8406L0.212622 7.32989Z" fill="url(#paint143_linear_683_10663)"/>
<path d="M0.258961 7.15019L0.189453 7.42786L51.5331 20.9294L51.6026 20.6517L0.258961 7.15019Z" fill="url(#paint144_linear_683_10663)"/>
<path d="M0.305395 6.95978L0.23584 7.23743L51.5772 20.7481L51.6468 20.4705L0.305395 6.95978Z" fill="url(#paint145_linear_683_10663)"/>
<path d="M0.351294 6.77496L0.281738 7.05261L51.6231 20.5633L51.6927 20.2857L0.351294 6.77496Z" fill="url(#paint146_linear_683_10663)"/>
<path d="M0.397633 6.59429L0.328125 6.87195L51.6718 20.3735L51.7413 20.0958L0.397633 6.59429Z" fill="url(#paint147_linear_683_10663)"/>
<path d="M0.44602 6.40472L0.376465 6.68237L51.7178 20.1931L51.7874 19.9154L0.44602 6.40472Z" fill="url(#paint148_linear_683_10663)"/>
<path d="M0.487965 6.22283L0.418457 6.50049L51.7621 20.002L51.8316 19.7243L0.487965 6.22283Z" fill="url(#paint149_linear_683_10663)"/>
<path d="M0.535328 6.03801L0.46582 6.31567L51.8095 19.8172L51.879 19.5395L0.535328 6.03801Z" fill="url(#paint150_linear_683_10663)"/>
<path d="M0.583716 5.84881L0.51416 6.12646L51.8555 19.6372L51.9251 19.3595L0.583716 5.84881Z" fill="url(#paint151_linear_683_10663)"/>
<path d="M0.629566 5.66924L0.560059 5.9469L51.9037 19.4484L51.9732 19.1708L0.629566 5.66924Z" fill="url(#paint152_linear_683_10663)"/>
<path d="M0.676977 5.47906L0.607422 5.75671L51.9488 19.2674L52.0183 18.9898L0.676977 5.47906Z" fill="url(#paint153_linear_683_10663)"/>
<path d="M0.722388 5.29425L0.652832 5.5719L51.9942 19.0826L52.0638 18.805L0.722388 5.29425Z" fill="url(#paint154_linear_683_10663)"/>
<path d="M0.766285 5.11211L0.696777 5.38977L52.0404 18.8913L52.1099 18.6136L0.766285 5.11211Z" fill="url(#paint155_linear_683_10663)"/>
<path d="M0.812719 4.92169L0.743164 5.19934L52.0845 18.71L52.1541 18.4324L0.812719 4.92169Z" fill="url(#paint156_linear_683_10663)"/>
<path d="M0.858571 4.7415L0.789062 5.01917L52.1327 18.5207L52.2022 18.243L0.858571 4.7415Z" fill="url(#paint157_linear_683_10663)"/>
<path d="M0.908375 4.55901L0.838867 4.83667L52.1825 18.3382L52.252 18.0605L0.908375 4.55901Z" fill="url(#paint158_linear_683_10663)"/>
<path d="M0.954809 4.36761L0.885254 4.64526L52.2266 18.156L52.2962 17.8783L0.954809 4.36761Z" fill="url(#paint159_linear_683_10663)"/>
<path d="M1.00017 4.18755L0.930664 4.46521L52.2743 17.9667L52.3438 17.6891L1.00017 4.18755Z" fill="url(#paint160_linear_683_10663)"/>
<path d="M1.04656 4.0031L0.977051 4.28076L52.3207 17.7823L52.3902 17.5046L1.04656 4.0031Z" fill="url(#paint161_linear_683_10663)"/>
<path d="M1.09299 3.81171L1.02344 4.08936L52.3648 17.6001L52.4344 17.3224L1.09299 3.81171Z" fill="url(#paint162_linear_683_10663)"/>
<path d="M1.13689 3.63164L1.06738 3.9093L52.411 17.4108L52.4806 17.1332L1.13689 3.63164Z" fill="url(#paint163_linear_683_10663)"/>
<path d="M1.1843 3.44122L1.11475 3.71887L52.4561 17.2296L52.5257 16.9519L1.1843 3.44122Z" fill="url(#paint164_linear_683_10663)"/>
<path d="M1.22966 3.26115L1.16016 3.53882L52.5038 17.0403L52.5733 16.7627L1.22966 3.26115Z" fill="url(#paint165_linear_683_10663)"/>
<path d="M1.278 3.07756L1.2085 3.35522L52.5522 16.8567L52.6217 16.5791L1.278 3.07756Z" fill="url(#paint166_linear_683_10663)"/>
<path d="M1.3259 2.88751L1.25635 3.16516L52.5977 16.6759L52.6673 16.3982L1.3259 2.88751Z" fill="url(#paint167_linear_683_10663)"/>
<path d="M1.37127 2.70695L1.30176 2.98462L52.6454 16.4861L52.7149 16.2085L1.37127 2.70695Z" fill="url(#paint168_linear_683_10663)"/>
<path d="M1.41765 2.5219L1.34814 2.79956L52.6918 16.3011L52.7613 16.0234L1.41765 2.5219Z" fill="url(#paint169_linear_683_10663)"/>
<path d="M1.46506 2.33209L1.39551 2.60974L52.7369 16.1204L52.8064 15.8428L1.46506 2.33209Z" fill="url(#paint170_linear_683_10663)"/>
<path d="M1.5075 2.1508L1.43799 2.42847L52.7817 15.93L52.8512 15.6523L1.5075 2.1508Z" fill="url(#paint171_linear_683_10663)"/>
<path d="M1.55832 1.96185L1.48877 2.2395L52.8301 15.7502L52.8997 15.4726L1.55832 1.96185Z" fill="url(#paint172_linear_683_10663)"/>
<path d="M1.60325 1.77643L1.53369 2.05408L52.8751 15.5648L52.9446 15.2871L1.60325 1.77643Z" fill="url(#paint173_linear_683_10663)"/>
<path d="M1.64959 1.59636L1.58008 1.87402L52.9237 15.3755L52.9932 15.0979L1.64959 1.59636Z" fill="url(#paint174_linear_683_10663)"/>
<path d="M1.69602 1.40668L1.62646 1.68433L52.9678 15.195L53.0374 14.9174L1.69602 1.40668Z" fill="url(#paint175_linear_683_10663)"/>
<path d="M1.74138 1.22624L1.67188 1.50391L53.0155 15.0054L53.085 14.7278L1.74138 1.22624Z" fill="url(#paint176_linear_683_10663)"/>
<path d="M1.78728 1.04009L1.71777 1.31775L53.0614 14.8193L53.131 14.5416L1.78728 1.04009Z" fill="url(#paint177_linear_683_10663)"/>
<path d="M1.80734 0.942048L1.76123 1.1261L53.1026 14.6368L53.1487 14.4528L1.80734 0.942048Z" fill="url(#paint178_linear_683_10663)"/>
</g>
<defs>
<linearGradient id="paint0_linear_683_10663" x1="58.001" y1="20.5" x2="180.001" y2="20.5" gradientUnits="userSpaceOnUse">
<stop stop-color="#1745B3"/>
<stop offset="1" stop-color="#07CBEB"/>
</linearGradient>
<linearGradient id="paint1_linear_683_10663" x1="-6.36213" y1="33.5852" x2="45.1364" y2="46.4676" gradientUnits="userSpaceOnUse">
<stop stop-color="#1558BB"/>
<stop offset="1" stop-color="#07CBEB"/>
</linearGradient>
<linearGradient id="paint2_linear_683_10663" x1="-6.35731" y1="33.5675" x2="45.137" y2="46.4675" gradientUnits="userSpaceOnUse">
<stop stop-color="#1558BB"/>
<stop offset="1" stop-color="#07CBEB"/>
</linearGradient>
<linearGradient id="paint3_linear_683_10663" x1="-6.31241" y1="33.3866" x2="45.184" y2="46.2778" gradientUnits="userSpaceOnUse">
<stop stop-color="#1558BB"/>
<stop offset="1" stop-color="#07CBEB"/>
</linearGradient>
<linearGradient id="paint4_linear_683_10663" x1="-6.26554" y1="33.2048" x2="45.2309" y2="46.096" gradientUnits="userSpaceOnUse">
<stop stop-color="#1558BB"/>
<stop offset="1" stop-color="#07CBEB"/>
</linearGradient>
<linearGradient id="paint5_linear_683_10663" x1="-6.21766" y1="33.0144" x2="45.2767" y2="45.9144" gradientUnits="userSpaceOnUse">
<stop stop-color="#1558BB"/>
<stop offset="1" stop-color="#07CBEB"/>
</linearGradient>
<linearGradient id="paint6_linear_683_10663" x1="-6.17179" y1="32.8355" x2="45.3247" y2="45.7268" gradientUnits="userSpaceOnUse">
<stop stop-color="#1558BB"/>
<stop offset="1" stop-color="#07CBEB"/>
</linearGradient>
<linearGradient id="paint7_linear_683_10663" x1="-6.12589" y1="32.6499" x2="45.3705" y2="45.5411" gradientUnits="userSpaceOnUse">
<stop stop-color="#1558BB"/>
<stop offset="1" stop-color="#07CBEB"/>
</linearGradient>
<linearGradient id="paint8_linear_683_10663" x1="-6.07948" y1="32.4558" x2="45.4149" y2="45.3558" gradientUnits="userSpaceOnUse">
<stop stop-color="#1558BB"/>
<stop offset="1" stop-color="#07CBEB"/>
</linearGradient>
<linearGradient id="paint9_linear_683_10663" x1="-6.03409" y1="32.2766" x2="45.4623" y2="45.1678" gradientUnits="userSpaceOnUse">
<stop stop-color="#1558BB"/>
<stop offset="1" stop-color="#07CBEB"/>
</linearGradient>
<linearGradient id="paint10_linear_683_10663" x1="-5.98671" y1="32.089" x2="45.5076" y2="44.989" gradientUnits="userSpaceOnUse">
<stop stop-color="#1558BB"/>
<stop offset="1" stop-color="#07CBEB"/>
</linearGradient>
<linearGradient id="paint11_linear_683_10663" x1="-5.94083" y1="31.9096" x2="45.5556" y2="44.8009" gradientUnits="userSpaceOnUse">
<stop stop-color="#1558BB"/>
<stop offset="1" stop-color="#07CBEB"/>
</linearGradient>
<linearGradient id="paint12_linear_683_10663" x1="-5.89445" y1="31.7253" x2="45.602" y2="44.6165" gradientUnits="userSpaceOnUse">
<stop stop-color="#1558BB"/>
<stop offset="1" stop-color="#07CBEB"/>
</linearGradient>
<linearGradient id="paint13_linear_683_10663" x1="-5.84755" y1="31.534" x2="45.6468" y2="44.4341" gradientUnits="userSpaceOnUse">
<stop stop-color="#1558BB"/>
<stop offset="1" stop-color="#07CBEB"/>
</linearGradient>
<linearGradient id="paint14_linear_683_10663" x1="-5.80167" y1="31.3538" x2="45.6948" y2="44.2451" gradientUnits="userSpaceOnUse">
<stop stop-color="#1558BB"/>
<stop offset="1" stop-color="#07CBEB"/>
</linearGradient>
<linearGradient id="paint15_linear_683_10663" x1="-5.75675" y1="31.1661" x2="45.7397" y2="44.0573" gradientUnits="userSpaceOnUse">
<stop stop-color="#1558BB"/>
<stop offset="1" stop-color="#07CBEB"/>
</linearGradient>
<linearGradient id="paint16_linear_683_10663" x1="-5.7079" y1="30.9759" x2="45.7864" y2="43.876" gradientUnits="userSpaceOnUse">
<stop stop-color="#1558BB"/>
<stop offset="1" stop-color="#07CBEB"/>
</linearGradient>
<linearGradient id="paint17_linear_683_10663" x1="-5.663" y1="30.7966" x2="45.8334" y2="43.6878" gradientUnits="userSpaceOnUse">
<stop stop-color="#1558BB"/>
<stop offset="1" stop-color="#07CBEB"/>
</linearGradient>
<linearGradient id="paint18_linear_683_10663" x1="-5.61659" y1="30.6084" x2="45.8778" y2="43.5084" gradientUnits="userSpaceOnUse">
<stop stop-color="#1558BB"/>
<stop offset="1" stop-color="#07CBEB"/>
</linearGradient>
<linearGradient id="paint19_linear_683_10663" x1="-5.56923" y1="30.4236" x2="45.9251" y2="43.3236" gradientUnits="userSpaceOnUse">
<stop stop-color="#1558BB"/>
<stop offset="1" stop-color="#07CBEB"/>
</linearGradient>
<linearGradient id="paint20_linear_683_10663" x1="-5.52433" y1="30.2436" x2="45.9721" y2="43.1348" gradientUnits="userSpaceOnUse">
<stop stop-color="#1558BB"/>
<stop offset="1" stop-color="#07CBEB"/>
</linearGradient>
<linearGradient id="paint21_linear_683_10663" x1="-5.47596" y1="30.0543" x2="46.0184" y2="42.9543" gradientUnits="userSpaceOnUse">
<stop stop-color="#1558BB"/>
<stop offset="1" stop-color="#07CBEB"/>
</linearGradient>
<linearGradient id="paint22_linear_683_10663" x1="-5.43107" y1="29.874" x2="46.0654" y2="42.7652" gradientUnits="userSpaceOnUse">
<stop stop-color="#1558BB"/>
<stop offset="1" stop-color="#07CBEB"/>
</linearGradient>
<linearGradient id="paint23_linear_683_10663" x1="-5.38566" y1="29.6854" x2="46.1108" y2="42.5766" gradientUnits="userSpaceOnUse">
<stop stop-color="#1558BB"/>
<stop offset="1" stop-color="#07CBEB"/>
</linearGradient>
<linearGradient id="paint24_linear_683_10663" x1="-5.33876" y1="29.4942" x2="46.1556" y2="42.3943" gradientUnits="userSpaceOnUse">
<stop stop-color="#1558BB"/>
<stop offset="1" stop-color="#07CBEB"/>
</linearGradient>
<linearGradient id="paint25_linear_683_10663" x1="-5.29337" y1="29.3151" x2="46.2031" y2="42.2064" gradientUnits="userSpaceOnUse">
<stop stop-color="#1558BB"/>
<stop offset="1" stop-color="#07CBEB"/>
</linearGradient>
<linearGradient id="paint26_linear_683_10663" x1="-5.24452" y1="29.1273" x2="46.2498" y2="42.0273" gradientUnits="userSpaceOnUse">
<stop stop-color="#1558BB"/>
<stop offset="1" stop-color="#07CBEB"/>
</linearGradient>
<linearGradient id="paint27_linear_683_10663" x1="-5.19862" y1="28.9415" x2="46.2957" y2="41.8415" gradientUnits="userSpaceOnUse">
<stop stop-color="#1558BB"/>
<stop offset="1" stop-color="#07CBEB"/>
</linearGradient>
<linearGradient id="paint28_linear_683_10663" x1="-5.15372" y1="28.7627" x2="46.3427" y2="41.6539" gradientUnits="userSpaceOnUse">
<stop stop-color="#1558BB"/>
<stop offset="1" stop-color="#07CBEB"/>
</linearGradient>
<linearGradient id="paint29_linear_683_10663" x1="-5.10585" y1="28.5719" x2="46.3885" y2="41.4719" gradientUnits="userSpaceOnUse">
<stop stop-color="#1558BB"/>
<stop offset="1" stop-color="#07CBEB"/>
</linearGradient>
<linearGradient id="paint30_linear_683_10663" x1="-5.06193" y1="28.3883" x2="46.4345" y2="41.2795" gradientUnits="userSpaceOnUse">
<stop stop-color="#1558BB"/>
<stop offset="1" stop-color="#07CBEB"/>
</linearGradient>
<linearGradient id="paint31_linear_683_10663" x1="-5.01505" y1="28.2044" x2="46.4814" y2="41.0957" gradientUnits="userSpaceOnUse">
<stop stop-color="#1558BB"/>
<stop offset="1" stop-color="#07CBEB"/>
</linearGradient>
<linearGradient id="paint32_linear_683_10663" x1="-4.9662" y1="28.0167" x2="46.5281" y2="40.9167" gradientUnits="userSpaceOnUse">
<stop stop-color="#1558BB"/>
<stop offset="1" stop-color="#07CBEB"/>
</linearGradient>
<linearGradient id="paint33_linear_683_10663" x1="-4.92081" y1="27.8371" x2="46.5756" y2="40.7283" gradientUnits="userSpaceOnUse">
<stop stop-color="#1558BB"/>
<stop offset="1" stop-color="#07CBEB"/>
</linearGradient>
<linearGradient id="paint34_linear_683_10663" x1="-4.87589" y1="27.651" x2="46.6205" y2="40.5422" gradientUnits="userSpaceOnUse">
<stop stop-color="#1558BB"/>
<stop offset="1" stop-color="#07CBEB"/>
</linearGradient>
<linearGradient id="paint35_linear_683_10663" x1="-4.82802" y1="27.4604" x2="46.6663" y2="40.3605" gradientUnits="userSpaceOnUse">
<stop stop-color="#1558BB"/>
<stop offset="1" stop-color="#07CBEB"/>
</linearGradient>
<linearGradient id="paint36_linear_683_10663" x1="-4.78165" y1="27.2822" x2="46.7148" y2="40.1734" gradientUnits="userSpaceOnUse">
<stop stop-color="#1558BB"/>
<stop offset="1" stop-color="#07CBEB"/>
</linearGradient>
<linearGradient id="paint37_linear_683_10663" x1="-4.73475" y1="27.0908" x2="46.7596" y2="39.9908" gradientUnits="userSpaceOnUse">
<stop stop-color="#1558BB"/>
<stop offset="1" stop-color="#07CBEB"/>
</linearGradient>
<linearGradient id="paint38_linear_683_10663" x1="-4.68986" y1="26.9085" x2="46.8066" y2="39.7998" gradientUnits="userSpaceOnUse">
<stop stop-color="#1558BB"/>
<stop offset="1" stop-color="#07CBEB"/>
</linearGradient>
<linearGradient id="paint39_linear_683_10663" x1="-4.64445" y1="26.7235" x2="46.852" y2="39.6147" gradientUnits="userSpaceOnUse">
<stop stop-color="#1558BB"/>
<stop offset="1" stop-color="#07CBEB"/>
</linearGradient>
<linearGradient id="paint40_linear_683_10663" x1="-4.59559" y1="26.5366" x2="46.8988" y2="39.4366" gradientUnits="userSpaceOnUse">
<stop stop-color="#1558BB"/>
<stop offset="1" stop-color="#07CBEB"/>
</linearGradient>
<linearGradient id="paint41_linear_683_10663" x1="-4.55021" y1="26.3568" x2="46.9462" y2="39.248" gradientUnits="userSpaceOnUse">
<stop stop-color="#1558BB"/>
<stop offset="1" stop-color="#07CBEB"/>
</linearGradient>
<linearGradient id="paint42_linear_683_10663" x1="-4.50382" y1="26.1705" x2="46.9926" y2="39.0617" gradientUnits="userSpaceOnUse">
<stop stop-color="#1558BB"/>
<stop offset="1" stop-color="#07CBEB"/>
</linearGradient>
<linearGradient id="paint43_linear_683_10663" x1="-4.45643" y1="25.9802" x2="47.0379" y2="38.8802" gradientUnits="userSpaceOnUse">
<stop stop-color="#1558BB"/>
<stop offset="1" stop-color="#07CBEB"/>
</linearGradient>
<linearGradient id="paint44_linear_683_10663" x1="-4.41056" y1="25.8004" x2="47.0859" y2="38.6916" gradientUnits="userSpaceOnUse">
<stop stop-color="#1558BB"/>
<stop offset="1" stop-color="#07CBEB"/>
</linearGradient>
<linearGradient id="paint45_linear_683_10663" x1="-4.36317" y1="25.6111" x2="47.1312" y2="38.5111" gradientUnits="userSpaceOnUse">
<stop stop-color="#1558BB"/>
<stop offset="1" stop-color="#07CBEB"/>
</linearGradient>
<linearGradient id="paint46_linear_683_10663" x1="-4.31825" y1="25.4233" x2="47.1761" y2="38.3234" gradientUnits="userSpaceOnUse">
<stop stop-color="#1558BB"/>
<stop offset="1" stop-color="#07CBEB"/>
</linearGradient>
<linearGradient id="paint47_linear_683_10663" x1="-4.27238" y1="25.2452" x2="47.2241" y2="38.1364" gradientUnits="userSpaceOnUse">
<stop stop-color="#1558BB"/>
<stop offset="1" stop-color="#07CBEB"/>
</linearGradient>
<linearGradient id="paint48_linear_683_10663" x1="-4.22499" y1="25.054" x2="47.2694" y2="37.9541" gradientUnits="userSpaceOnUse">
<stop stop-color="#1558BB"/>
<stop offset="1" stop-color="#07CBEB"/>
</linearGradient>
<linearGradient id="paint49_linear_683_10663" x1="-4.17911" y1="24.8753" x2="47.3173" y2="37.7666" gradientUnits="userSpaceOnUse">
<stop stop-color="#1558BB"/>
<stop offset="1" stop-color="#07CBEB"/>
</linearGradient>
<linearGradient id="paint50_linear_683_10663" x1="-4.13321" y1="24.6901" x2="47.3632" y2="37.5814" gradientUnits="userSpaceOnUse">
<stop stop-color="#1558BB"/>
<stop offset="1" stop-color="#07CBEB"/>
</linearGradient>
<linearGradient id="paint51_linear_683_10663" x1="-4.0868" y1="24.4996" x2="47.4075" y2="37.3996" gradientUnits="userSpaceOnUse">
<stop stop-color="#1558BB"/>
<stop offset="1" stop-color="#07CBEB"/>
</linearGradient>
<linearGradient id="paint52_linear_683_10663" x1="-4.04142" y1="24.3161" x2="47.455" y2="37.2074" gradientUnits="userSpaceOnUse">
<stop stop-color="#1558BB"/>
<stop offset="1" stop-color="#07CBEB"/>
</linearGradient>
<linearGradient id="paint53_linear_683_10663" x1="-3.99452" y1="24.1261" x2="47.4998" y2="37.0261" gradientUnits="userSpaceOnUse">
<stop stop-color="#1558BB"/>
<stop offset="1" stop-color="#07CBEB"/>
</linearGradient>
<linearGradient id="paint54_linear_683_10663" x1="-3.94716" y1="23.9436" x2="47.5472" y2="36.8436" gradientUnits="userSpaceOnUse">
<stop stop-color="#1558BB"/>
<stop offset="1" stop-color="#07CBEB"/>
</linearGradient>
<linearGradient id="paint55_linear_683_10663" x1="-3.90128" y1="23.7641" x2="47.5952" y2="36.6553" gradientUnits="userSpaceOnUse">
<stop stop-color="#1558BB"/>
<stop offset="1" stop-color="#07CBEB"/>
</linearGradient>
<linearGradient id="paint56_linear_683_10663" x1="-3.85341" y1="23.5739" x2="47.6409" y2="36.474" gradientUnits="userSpaceOnUse">
<stop stop-color="#1558BB"/>
<stop offset="1" stop-color="#07CBEB"/>
</linearGradient>
<linearGradient id="paint57_linear_683_10663" x1="-3.80851" y1="23.394" x2="47.6879" y2="36.2852" gradientUnits="userSpaceOnUse">
<stop stop-color="#1558BB"/>
<stop offset="1" stop-color="#07CBEB"/>
</linearGradient>
<linearGradient id="paint58_linear_683_10663" x1="-3.76261" y1="23.2082" x2="47.7338" y2="36.0994" gradientUnits="userSpaceOnUse">
<stop stop-color="#1558BB"/>
<stop offset="1" stop-color="#07CBEB"/>
</linearGradient>
<linearGradient id="paint59_linear_683_10663" x1="-3.71473" y1="23.0179" x2="47.7796" y2="35.918" gradientUnits="userSpaceOnUse">
<stop stop-color="#1558BB"/>
<stop offset="1" stop-color="#07CBEB"/>
</linearGradient>
<linearGradient id="paint60_linear_683_10663" x1="-3.67032" y1="22.8366" x2="47.8261" y2="35.7279" gradientUnits="userSpaceOnUse">
<stop stop-color="#1558BB"/>
<stop offset="1" stop-color="#07CBEB"/>
</linearGradient>
<linearGradient id="paint61_linear_683_10663" x1="-3.62443" y1="22.6506" x2="47.872" y2="35.5418" gradientUnits="userSpaceOnUse">
<stop stop-color="#1558BB"/>
<stop offset="1" stop-color="#07CBEB"/>
</linearGradient>
<linearGradient id="paint62_linear_683_10663" x1="-3.57655" y1="22.4629" x2="47.9178" y2="35.3629" gradientUnits="userSpaceOnUse">
<stop stop-color="#1558BB"/>
<stop offset="1" stop-color="#07CBEB"/>
</linearGradient>
<linearGradient id="paint63_linear_683_10663" x1="-3.53019" y1="22.2832" x2="47.9663" y2="35.1744" gradientUnits="userSpaceOnUse">
<stop stop-color="#1558BB"/>
<stop offset="1" stop-color="#07CBEB"/>
</linearGradient>
<linearGradient id="paint64_linear_683_10663" x1="-3.48231" y1="22.0929" x2="48.012" y2="34.9929" gradientUnits="userSpaceOnUse">
<stop stop-color="#1558BB"/>
<stop offset="1" stop-color="#07CBEB"/>
</linearGradient>
<linearGradient id="paint65_linear_683_10663" x1="-3.43693" y1="21.9139" x2="48.0595" y2="34.8051" gradientUnits="userSpaceOnUse">
<stop stop-color="#1558BB"/>
<stop offset="1" stop-color="#07CBEB"/>
</linearGradient>
<linearGradient id="paint66_linear_683_10663" x1="-3.39054" y1="21.7282" x2="48.1059" y2="34.6195" gradientUnits="userSpaceOnUse">
<stop stop-color="#1558BB"/>
<stop offset="1" stop-color="#07CBEB"/>
</linearGradient>
<linearGradient id="paint67_linear_683_10663" x1="-3.34413" y1="21.5382" x2="48.1502" y2="34.4382" gradientUnits="userSpaceOnUse">
<stop stop-color="#1558BB"/>
<stop offset="1" stop-color="#07CBEB"/>
</linearGradient>
<linearGradient id="paint68_linear_683_10663" x1="-3.29972" y1="21.3554" x2="48.1967" y2="34.2467" gradientUnits="userSpaceOnUse">
<stop stop-color="#1558BB"/>
<stop offset="1" stop-color="#07CBEB"/>
</linearGradient>
<linearGradient id="paint69_linear_683_10663" x1="-3.25284" y1="21.1723" x2="48.2436" y2="34.0636" gradientUnits="userSpaceOnUse">
<stop stop-color="#1558BB"/>
<stop offset="1" stop-color="#07CBEB"/>
</linearGradient>
<linearGradient id="paint70_linear_683_10663" x1="-3.20497" y1="20.9831" x2="48.2894" y2="33.8832" gradientUnits="userSpaceOnUse">
<stop stop-color="#1558BB"/>
<stop offset="1" stop-color="#07CBEB"/>
</linearGradient>
<linearGradient id="paint71_linear_683_10663" x1="-3.15958" y1="20.8033" x2="48.3369" y2="33.6945" gradientUnits="userSpaceOnUse">
<stop stop-color="#1558BB"/>
<stop offset="1" stop-color="#07CBEB"/>
</linearGradient>
<linearGradient id="paint72_linear_683_10663" x1="-3.1122" y1="20.6113" x2="48.3821" y2="33.5113" gradientUnits="userSpaceOnUse">
<stop stop-color="#1558BB"/>
<stop offset="1" stop-color="#07CBEB"/>
</linearGradient>
<linearGradient id="paint73_linear_683_10663" x1="-3.06581" y1="20.4273" x2="48.4285" y2="33.3274" gradientUnits="userSpaceOnUse">
<stop stop-color="#1558BB"/>
<stop offset="1" stop-color="#07CBEB"/>
</linearGradient>
<linearGradient id="paint74_linear_683_10663" x1="-3.02238" y1="20.2451" x2="48.4741" y2="33.1363" gradientUnits="userSpaceOnUse">
<stop stop-color="#1558BB"/>
<stop offset="1" stop-color="#07CBEB"/>
</linearGradient>
<linearGradient id="paint75_linear_683_10663" x1="-2.9745" y1="20.0548" x2="48.5198" y2="32.9548" gradientUnits="userSpaceOnUse">
<stop stop-color="#1558BB"/>
<stop offset="1" stop-color="#07CBEB"/>
</linearGradient>
<linearGradient id="paint76_linear_683_10663" x1="-2.92911" y1="19.874" x2="48.5673" y2="32.7652" gradientUnits="userSpaceOnUse">
<stop stop-color="#1558BB"/>
<stop offset="1" stop-color="#07CBEB"/>
</linearGradient>
<linearGradient id="paint77_linear_683_10663" x1="-2.88224" y1="19.6916" x2="48.6142" y2="32.5828" gradientUnits="userSpaceOnUse">
<stop stop-color="#1558BB"/>
<stop offset="1" stop-color="#07CBEB"/>
</linearGradient>
<linearGradient id="paint78_linear_683_10663" x1="-2.83485" y1="19.5012" x2="48.6595" y2="32.4012" gradientUnits="userSpaceOnUse">
<stop stop-color="#1558BB"/>
<stop offset="1" stop-color="#07CBEB"/>
</linearGradient>
<linearGradient id="paint79_linear_683_10663" x1="-2.78898" y1="19.3223" x2="48.7075" y2="32.2136" gradientUnits="userSpaceOnUse">
<stop stop-color="#1558BB"/>
<stop offset="1" stop-color="#07CBEB"/>
</linearGradient>
<linearGradient id="paint80_linear_683_10663" x1="-2.74159" y1="19.1311" x2="48.7528" y2="32.0311" gradientUnits="userSpaceOnUse">
<stop stop-color="#1558BB"/>
<stop offset="1" stop-color="#07CBEB"/>
</linearGradient>
<linearGradient id="paint81_linear_683_10663" x1="-2.69618" y1="18.9456" x2="48.7982" y2="31.8457" gradientUnits="userSpaceOnUse">
<stop stop-color="#1558BB"/>
<stop offset="1" stop-color="#07CBEB"/>
</linearGradient>
<linearGradient id="paint82_linear_683_10663" x1="-2.65226" y1="18.7633" x2="48.8442" y2="31.6545" gradientUnits="userSpaceOnUse">
<stop stop-color="#1558BB"/>
<stop offset="1" stop-color="#07CBEB"/>
</linearGradient>
<linearGradient id="paint83_linear_683_10663" x1="-2.60487" y1="18.5731" x2="48.8895" y2="31.4731" gradientUnits="userSpaceOnUse">
<stop stop-color="#1558BB"/>
<stop offset="1" stop-color="#07CBEB"/>
</linearGradient>
<linearGradient id="paint84_linear_683_10663" x1="-2.55802" y1="18.3932" x2="48.9384" y2="31.2844" gradientUnits="userSpaceOnUse">
<stop stop-color="#1558BB"/>
<stop offset="1" stop-color="#07CBEB"/>
</linearGradient>
<linearGradient id="paint85_linear_683_10663" x1="-2.51114" y1="18.2107" x2="48.9853" y2="31.1019" gradientUnits="userSpaceOnUse">
<stop stop-color="#1558BB"/>
<stop offset="1" stop-color="#07CBEB"/>
</linearGradient>
<linearGradient id="paint86_linear_683_10663" x1="-2.46425" y1="18.02" x2="49.0301" y2="30.92" gradientUnits="userSpaceOnUse">
<stop stop-color="#1558BB"/>
<stop offset="1" stop-color="#07CBEB"/>
</linearGradient>
<linearGradient id="paint87_linear_683_10663" x1="-2.41837" y1="17.8405" x2="49.0781" y2="30.7318" gradientUnits="userSpaceOnUse">
<stop stop-color="#1558BB"/>
<stop offset="1" stop-color="#07CBEB"/>
</linearGradient>
<linearGradient id="paint88_linear_683_10663" x1="-2.37247" y1="17.6547" x2="49.124" y2="30.546" gradientUnits="userSpaceOnUse">
<stop stop-color="#1558BB"/>
<stop offset="1" stop-color="#07CBEB"/>
</linearGradient>
<linearGradient id="paint89_linear_683_10663" x1="-2.32509" y1="17.4646" x2="49.1693" y2="30.3646" gradientUnits="userSpaceOnUse">
<stop stop-color="#1558BB"/>
<stop offset="1" stop-color="#07CBEB"/>
</linearGradient>
<linearGradient id="paint90_linear_683_10663" x1="-2.28019" y1="17.2834" x2="49.2163" y2="30.1746" gradientUnits="userSpaceOnUse">
<stop stop-color="#1558BB"/>
<stop offset="1" stop-color="#07CBEB"/>
</linearGradient>
<linearGradient id="paint91_linear_683_10663" x1="-2.23134" y1="17.0953" x2="49.263" y2="29.9954" gradientUnits="userSpaceOnUse">
<stop stop-color="#1558BB"/>
<stop offset="1" stop-color="#07CBEB"/>
</linearGradient>
<linearGradient id="paint92_linear_683_10663" x1="-2.18546" y1="16.915" x2="49.311" y2="29.8062" gradientUnits="userSpaceOnUse">
<stop stop-color="#1558BB"/>
<stop offset="1" stop-color="#07CBEB"/>
</linearGradient>
<linearGradient id="paint93_linear_683_10663" x1="-2.14005" y1="16.7297" x2="49.3564" y2="29.6209" gradientUnits="userSpaceOnUse">
<stop stop-color="#1558BB"/>
<stop offset="1" stop-color="#07CBEB"/>
</linearGradient>
<linearGradient id="paint94_linear_683_10663" x1="-2.09266" y1="16.5403" x2="49.4017" y2="29.4403" gradientUnits="userSpaceOnUse">
<stop stop-color="#1558BB"/>
<stop offset="1" stop-color="#07CBEB"/>
</linearGradient>
<linearGradient id="paint95_linear_683_10663" x1="-2.04777" y1="16.3601" x2="49.4487" y2="29.2513" gradientUnits="userSpaceOnUse">
<stop stop-color="#1558BB"/>
<stop offset="1" stop-color="#07CBEB"/>
</linearGradient>
<linearGradient id="paint96_linear_683_10663" x1="-2.00187" y1="16.1727" x2="49.4946" y2="29.0639" gradientUnits="userSpaceOnUse">
<stop stop-color="#1558BB"/>
<stop offset="1" stop-color="#07CBEB"/>
</linearGradient>
<linearGradient id="paint97_linear_683_10663" x1="-1.95497" y1="15.9823" x2="49.5394" y2="28.8823" gradientUnits="userSpaceOnUse">
<stop stop-color="#1558BB"/>
<stop offset="1" stop-color="#07CBEB"/>
</linearGradient>
<linearGradient id="paint98_linear_683_10663" x1="-1.91007" y1="15.8018" x2="49.5864" y2="28.6931" gradientUnits="userSpaceOnUse">
<stop stop-color="#1558BB"/>
<stop offset="1" stop-color="#07CBEB"/>
</linearGradient>
<linearGradient id="paint99_linear_683_10663" x1="-1.86122" y1="15.6141" x2="49.6331" y2="28.5142" gradientUnits="userSpaceOnUse">
<stop stop-color="#1558BB"/>
<stop offset="1" stop-color="#07CBEB"/>
</linearGradient>
<linearGradient id="paint100_linear_683_10663" x1="-1.81532" y1="15.4288" x2="49.679" y2="28.3289" gradientUnits="userSpaceOnUse">
<stop stop-color="#1558BB"/>
<stop offset="1" stop-color="#07CBEB"/>
</linearGradient>
<linearGradient id="paint101_linear_683_10663" x1="-1.76896" y1="15.2487" x2="49.7275" y2="28.14" gradientUnits="userSpaceOnUse">
<stop stop-color="#1558BB"/>
<stop offset="1" stop-color="#07CBEB"/>
</linearGradient>
<linearGradient id="paint102_linear_683_10663" x1="-1.72255" y1="15.0582" x2="49.7718" y2="27.9582" gradientUnits="userSpaceOnUse">
<stop stop-color="#1558BB"/>
<stop offset="1" stop-color="#07CBEB"/>
</linearGradient>
<linearGradient id="paint103_linear_683_10663" x1="-1.67618" y1="14.8787" x2="49.8203" y2="27.77" gradientUnits="userSpaceOnUse">
<stop stop-color="#1558BB"/>
<stop offset="1" stop-color="#07CBEB"/>
</linearGradient>
<linearGradient id="paint104_linear_683_10663" x1="-1.63077" y1="14.692" x2="49.8657" y2="27.5832" gradientUnits="userSpaceOnUse">
<stop stop-color="#1558BB"/>
<stop offset="1" stop-color="#07CBEB"/>
</linearGradient>
<linearGradient id="paint105_linear_683_10663" x1="-1.58485" y1="14.5014" x2="49.9095" y2="27.4015" gradientUnits="userSpaceOnUse">
<stop stop-color="#1558BB"/>
<stop offset="1" stop-color="#07CBEB"/>
</linearGradient>
<linearGradient id="paint106_linear_683_10663" x1="-1.53946" y1="14.3206" x2="49.957" y2="27.2119" gradientUnits="userSpaceOnUse">
<stop stop-color="#1558BB"/>
<stop offset="1" stop-color="#07CBEB"/>
</linearGradient>
<linearGradient id="paint107_linear_683_10663" x1="-1.49012" y1="14.1325" x2="50.0042" y2="27.0326" gradientUnits="userSpaceOnUse">
<stop stop-color="#1558BB"/>
<stop offset="1" stop-color="#07CBEB"/>
</linearGradient>
<linearGradient id="paint108_linear_683_10663" x1="-1.44374" y1="13.9477" x2="50.0506" y2="26.8478" gradientUnits="userSpaceOnUse">
<stop stop-color="#1558BB"/>
<stop offset="1" stop-color="#07CBEB"/>
</linearGradient>
<linearGradient id="paint109_linear_683_10663" x1="-1.39835" y1="13.7679" x2="50.0981" y2="26.6591" gradientUnits="userSpaceOnUse">
<stop stop-color="#1558BB"/>
<stop offset="1" stop-color="#07CBEB"/>
</linearGradient>
<linearGradient id="paint110_linear_683_10663" x1="-1.35194" y1="13.5771" x2="50.1424" y2="26.4772" gradientUnits="userSpaceOnUse">
<stop stop-color="#1558BB"/>
<stop offset="1" stop-color="#07CBEB"/>
</linearGradient>
<linearGradient id="paint111_linear_683_10663" x1="-1.30753" y1="13.3956" x2="50.1889" y2="26.2868" gradientUnits="userSpaceOnUse">
<stop stop-color="#1558BB"/>
<stop offset="1" stop-color="#07CBEB"/>
</linearGradient>
<linearGradient id="paint112_linear_683_10663" x1="-1.26114" y1="13.2103" x2="50.2353" y2="26.1015" gradientUnits="userSpaceOnUse">
<stop stop-color="#1558BB"/>
<stop offset="1" stop-color="#07CBEB"/>
</linearGradient>
<linearGradient id="paint113_linear_683_10663" x1="-1.2118" y1="13.0221" x2="50.2825" y2="25.9221" gradientUnits="userSpaceOnUse">
<stop stop-color="#1558BB"/>
<stop offset="1" stop-color="#07CBEB"/>
</linearGradient>
<linearGradient id="paint114_linear_683_10663" x1="-1.16642" y1="12.8425" x2="50.33" y2="25.7337" gradientUnits="userSpaceOnUse">
<stop stop-color="#1558BB"/>
<stop offset="1" stop-color="#07CBEB"/>
</linearGradient>
<linearGradient id="paint115_linear_683_10663" x1="-1.11954" y1="12.6572" x2="50.3769" y2="25.5484" gradientUnits="userSpaceOnUse">
<stop stop-color="#1558BB"/>
<stop offset="1" stop-color="#07CBEB"/>
</linearGradient>
<linearGradient id="paint116_linear_683_10663" x1="-1.07362" y1="12.4668" x2="50.4207" y2="25.3668" gradientUnits="userSpaceOnUse">
<stop stop-color="#1558BB"/>
<stop offset="1" stop-color="#07CBEB"/>
</linearGradient>
<linearGradient id="paint117_linear_683_10663" x1="-1.02775" y1="12.2871" x2="50.4687" y2="25.1783" gradientUnits="userSpaceOnUse">
<stop stop-color="#1558BB"/>
<stop offset="1" stop-color="#07CBEB"/>
</linearGradient>
<linearGradient id="paint118_linear_683_10663" x1="-0.980359" y1="12.0975" x2="50.514" y2="24.9975" gradientUnits="userSpaceOnUse">
<stop stop-color="#1558BB"/>
<stop offset="1" stop-color="#07CBEB"/>
</linearGradient>
<linearGradient id="paint119_linear_683_10663" x1="-0.935437" y1="11.9099" x2="50.5589" y2="24.8099" gradientUnits="userSpaceOnUse">
<stop stop-color="#1558BB"/>
<stop offset="1" stop-color="#07CBEB"/>
</linearGradient>
<linearGradient id="paint120_linear_683_10663" x1="-0.890051" y1="11.7298" x2="50.6064" y2="24.621" gradientUnits="userSpaceOnUse">
<stop stop-color="#1558BB"/>
<stop offset="1" stop-color="#07CBEB"/>
</linearGradient>
<linearGradient id="paint121_linear_683_10663" x1="-0.841687" y1="11.5415" x2="50.6527" y2="24.4415" gradientUnits="userSpaceOnUse">
<stop stop-color="#1558BB"/>
<stop offset="1" stop-color="#07CBEB"/>
</linearGradient>
<linearGradient id="paint122_linear_683_10663" x1="-0.795813" y1="11.3613" x2="50.7006" y2="24.2525" gradientUnits="userSpaceOnUse">
<stop stop-color="#1558BB"/>
<stop offset="1" stop-color="#07CBEB"/>
</linearGradient>
<linearGradient id="paint123_linear_683_10663" x1="-0.748937" y1="11.1764" x2="50.7475" y2="24.0676" gradientUnits="userSpaceOnUse">
<stop stop-color="#1558BB"/>
<stop offset="1" stop-color="#07CBEB"/>
</linearGradient>
<linearGradient id="paint124_linear_683_10663" x1="-0.701551" y1="10.9864" x2="50.7928" y2="23.8865" gradientUnits="userSpaceOnUse">
<stop stop-color="#1558BB"/>
<stop offset="1" stop-color="#07CBEB"/>
</linearGradient>
<linearGradient id="paint125_linear_683_10663" x1="-0.656164" y1="10.8064" x2="50.8403" y2="23.6976" gradientUnits="userSpaceOnUse">
<stop stop-color="#1558BB"/>
<stop offset="1" stop-color="#07CBEB"/>
</linearGradient>
<linearGradient id="paint126_linear_683_10663" x1="-0.609753" y1="10.6153" x2="50.8846" y2="23.5154" gradientUnits="userSpaceOnUse">
<stop stop-color="#1558BB"/>
<stop offset="1" stop-color="#07CBEB"/>
</linearGradient>
<linearGradient id="paint127_linear_683_10663" x1="-0.56532" y1="10.4287" x2="50.929" y2="23.3287" gradientUnits="userSpaceOnUse">
<stop stop-color="#1558BB"/>
<stop offset="1" stop-color="#07CBEB"/>
</linearGradient>
<linearGradient id="paint128_linear_683_10663" x1="-0.519445" y1="10.2494" x2="50.977" y2="23.1406" gradientUnits="userSpaceOnUse">
<stop stop-color="#1558BB"/>
<stop offset="1" stop-color="#07CBEB"/>
</linearGradient>
<linearGradient id="paint129_linear_683_10663" x1="-0.470105" y1="10.0609" x2="51.0242" y2="22.9609" gradientUnits="userSpaceOnUse">
<stop stop-color="#1558BB"/>
<stop offset="1" stop-color="#07CBEB"/>
</linearGradient>
<linearGradient id="paint130_linear_683_10663" x1="-0.424719" y1="9.87985" x2="51.0717" y2="22.7711" gradientUnits="userSpaceOnUse">
<stop stop-color="#1558BB"/>
<stop offset="1" stop-color="#07CBEB"/>
</linearGradient>
<linearGradient id="paint131_linear_683_10663" x1="-0.378332" y1="9.69552" x2="51.1181" y2="22.5867" gradientUnits="userSpaceOnUse">
<stop stop-color="#1558BB"/>
<stop offset="1" stop-color="#07CBEB"/>
</linearGradient>
<linearGradient id="paint132_linear_683_10663" x1="-0.331433" y1="9.50497" x2="51.1629" y2="22.405" gradientUnits="userSpaceOnUse">
<stop stop-color="#1558BB"/>
<stop offset="1" stop-color="#07CBEB"/>
</linearGradient>
<linearGradient id="paint133_linear_683_10663" x1="-0.287512" y1="9.32357" x2="51.2089" y2="22.2148" gradientUnits="userSpaceOnUse">
<stop stop-color="#1558BB"/>
<stop offset="1" stop-color="#07CBEB"/>
</linearGradient>
<linearGradient id="paint134_linear_683_10663" x1="-0.241125" y1="9.13815" x2="51.2553" y2="22.0294" gradientUnits="userSpaceOnUse">
<stop stop-color="#1558BB"/>
<stop offset="1" stop-color="#07CBEB"/>
</linearGradient>
<linearGradient id="paint135_linear_683_10663" x1="-0.19325" y1="8.94931" x2="51.3011" y2="21.8494" gradientUnits="userSpaceOnUse">
<stop stop-color="#1558BB"/>
<stop offset="1" stop-color="#07CBEB"/>
</linearGradient>
<linearGradient id="paint136_linear_683_10663" x1="-0.146887" y1="8.76937" x2="51.3496" y2="21.6606" gradientUnits="userSpaceOnUse">
<stop stop-color="#1558BB"/>
<stop offset="1" stop-color="#07CBEB"/>
</linearGradient>
<linearGradient id="paint137_linear_683_10663" x1="-0.100476" y1="8.57932" x2="51.3939" y2="21.4794" gradientUnits="userSpaceOnUse">
<stop stop-color="#1558BB"/>
<stop offset="1" stop-color="#07CBEB"/>
</linearGradient>
<linearGradient id="paint138_linear_683_10663" x1="-0.0546016" y1="8.39974" x2="51.4418" y2="21.291" gradientUnits="userSpaceOnUse">
<stop stop-color="#1558BB"/>
<stop offset="1" stop-color="#07CBEB"/>
</linearGradient>
<linearGradient id="paint139_linear_683_10663" x1="-0.00821491" y1="8.21407" x2="51.4882" y2="21.1053" gradientUnits="userSpaceOnUse">
<stop stop-color="#1558BB"/>
<stop offset="1" stop-color="#07CBEB"/>
</linearGradient>
<linearGradient id="paint140_linear_683_10663" x1="0.0386841" y1="8.02365" x2="51.533" y2="20.9237" gradientUnits="userSpaceOnUse">
<stop stop-color="#1558BB"/>
<stop offset="1" stop-color="#07CBEB"/>
</linearGradient>
<linearGradient id="paint141_linear_683_10663" x1="0.0840702" y1="7.84261" x2="51.5805" y2="20.7338" gradientUnits="userSpaceOnUse">
<stop stop-color="#1558BB"/>
<stop offset="1" stop-color="#07CBEB"/>
</linearGradient>
<linearGradient id="paint142_linear_683_10663" x1="0.129969" y1="7.65682" x2="51.6264" y2="20.548" gradientUnits="userSpaceOnUse">
<stop stop-color="#1558BB"/>
<stop offset="1" stop-color="#07CBEB"/>
</linearGradient>
<linearGradient id="paint143_linear_683_10663" x1="0.177844" y1="7.46872" x2="51.6722" y2="20.3688" gradientUnits="userSpaceOnUse">
<stop stop-color="#1558BB"/>
<stop offset="1" stop-color="#07CBEB"/>
</linearGradient>
<linearGradient id="paint144_linear_683_10663" x1="0.224207" y1="7.28903" x2="51.7206" y2="20.1803" gradientUnits="userSpaceOnUse">
<stop stop-color="#1558BB"/>
<stop offset="1" stop-color="#07CBEB"/>
</linearGradient>
<linearGradient id="paint145_linear_683_10663" x1="0.270617" y1="7.0986" x2="51.765" y2="19.9986" gradientUnits="userSpaceOnUse">
<stop stop-color="#1558BB"/>
<stop offset="1" stop-color="#07CBEB"/>
</linearGradient>
<linearGradient id="paint146_linear_683_10663" x1="0.316516" y1="6.91379" x2="51.8109" y2="19.8138" gradientUnits="userSpaceOnUse">
<stop stop-color="#1558BB"/>
<stop offset="1" stop-color="#07CBEB"/>
</linearGradient>
<linearGradient id="paint147_linear_683_10663" x1="0.362879" y1="6.73312" x2="51.8593" y2="19.6243" gradientUnits="userSpaceOnUse">
<stop stop-color="#1558BB"/>
<stop offset="1" stop-color="#07CBEB"/>
</linearGradient>
<linearGradient id="paint148_linear_683_10663" x1="0.411242" y1="6.54355" x2="51.9056" y2="19.4436" gradientUnits="userSpaceOnUse">
<stop stop-color="#1558BB"/>
<stop offset="1" stop-color="#07CBEB"/>
</linearGradient>
<linearGradient id="paint149_linear_683_10663" x1="0.453211" y1="6.36166" x2="51.9497" y2="19.2529" gradientUnits="userSpaceOnUse">
<stop stop-color="#1558BB"/>
<stop offset="1" stop-color="#07CBEB"/>
</linearGradient>
<linearGradient id="paint150_linear_683_10663" x1="0.500574" y1="6.17684" x2="51.997" y2="19.0681" gradientUnits="userSpaceOnUse">
<stop stop-color="#1558BB"/>
<stop offset="1" stop-color="#07CBEB"/>
</linearGradient>
<linearGradient id="paint151_linear_683_10663" x1="0.548938" y1="5.98764" x2="52.0433" y2="18.8877" gradientUnits="userSpaceOnUse">
<stop stop-color="#1558BB"/>
<stop offset="1" stop-color="#07CBEB"/>
</linearGradient>
<linearGradient id="paint152_linear_683_10663" x1="0.594812" y1="5.80807" x2="52.0913" y2="18.6993" gradientUnits="userSpaceOnUse">
<stop stop-color="#1558BB"/>
<stop offset="1" stop-color="#07CBEB"/>
</linearGradient>
<linearGradient id="paint153_linear_683_10663" x1="0.642199" y1="5.61789" x2="52.1365" y2="18.5179" gradientUnits="userSpaceOnUse">
<stop stop-color="#1558BB"/>
<stop offset="1" stop-color="#07CBEB"/>
</linearGradient>
<linearGradient id="paint154_linear_683_10663" x1="0.68761" y1="5.43307" x2="52.182" y2="18.3331" gradientUnits="userSpaceOnUse">
<stop stop-color="#1558BB"/>
<stop offset="1" stop-color="#07CBEB"/>
</linearGradient>
<linearGradient id="paint155_linear_683_10663" x1="0.731531" y1="5.25094" x2="52.228" y2="18.1422" gradientUnits="userSpaceOnUse">
<stop stop-color="#1558BB"/>
<stop offset="1" stop-color="#07CBEB"/>
</linearGradient>
<linearGradient id="paint156_linear_683_10663" x1="0.777942" y1="5.06052" x2="52.2723" y2="17.9606" gradientUnits="userSpaceOnUse">
<stop stop-color="#1558BB"/>
<stop offset="1" stop-color="#07CBEB"/>
</linearGradient>
<linearGradient id="paint157_linear_683_10663" x1="0.823817" y1="4.88033" x2="52.3203" y2="17.7716" gradientUnits="userSpaceOnUse">
<stop stop-color="#1558BB"/>
<stop offset="1" stop-color="#07CBEB"/>
</linearGradient>
<linearGradient id="paint158_linear_683_10663" x1="0.873621" y1="4.69784" x2="52.3701" y2="17.5891" gradientUnits="userSpaceOnUse">
<stop stop-color="#1558BB"/>
<stop offset="1" stop-color="#07CBEB"/>
</linearGradient>
<linearGradient id="paint159_linear_683_10663" x1="0.920031" y1="4.50644" x2="52.4144" y2="17.4065" gradientUnits="userSpaceOnUse">
<stop stop-color="#1558BB"/>
<stop offset="1" stop-color="#07CBEB"/>
</linearGradient>
<linearGradient id="paint160_linear_683_10663" x1="0.965418" y1="4.32638" x2="52.4619" y2="17.2176" gradientUnits="userSpaceOnUse">
<stop stop-color="#1558BB"/>
<stop offset="1" stop-color="#07CBEB"/>
</linearGradient>
<linearGradient id="paint161_linear_683_10663" x1="1.0118" y1="4.14193" x2="52.5082" y2="17.0332" gradientUnits="userSpaceOnUse">
<stop stop-color="#1558BB"/>
<stop offset="1" stop-color="#07CBEB"/>
</linearGradient>
<linearGradient id="paint162_linear_683_10663" x1="1.05821" y1="3.95053" x2="52.5526" y2="16.8506" gradientUnits="userSpaceOnUse">
<stop stop-color="#1558BB"/>
<stop offset="1" stop-color="#07CBEB"/>
</linearGradient>
<linearGradient id="paint163_linear_683_10663" x1="1.10214" y1="3.77047" x2="52.5986" y2="16.6617" gradientUnits="userSpaceOnUse">
<stop stop-color="#1558BB"/>
<stop offset="1" stop-color="#07CBEB"/>
</linearGradient>
<linearGradient id="paint164_linear_683_10663" x1="1.14952" y1="3.58005" x2="52.6439" y2="16.4801" gradientUnits="userSpaceOnUse">
<stop stop-color="#1558BB"/>
<stop offset="1" stop-color="#07CBEB"/>
</linearGradient>
<linearGradient id="paint165_linear_683_10663" x1="1.19491" y1="3.39999" x2="52.6914" y2="16.2912" gradientUnits="userSpaceOnUse">
<stop stop-color="#1558BB"/>
<stop offset="1" stop-color="#07CBEB"/>
</linearGradient>
<linearGradient id="paint166_linear_683_10663" x1="1.24325" y1="3.21639" x2="52.7397" y2="16.1076" gradientUnits="userSpaceOnUse">
<stop stop-color="#1558BB"/>
<stop offset="1" stop-color="#07CBEB"/>
</linearGradient>
<linearGradient id="paint167_linear_683_10663" x1="1.29113" y1="3.02634" x2="52.7855" y2="15.9264" gradientUnits="userSpaceOnUse">
<stop stop-color="#1558BB"/>
<stop offset="1" stop-color="#07CBEB"/>
</linearGradient>
<linearGradient id="paint168_linear_683_10663" x1="1.33651" y1="2.84579" x2="52.833" y2="15.737" gradientUnits="userSpaceOnUse">
<stop stop-color="#1558BB"/>
<stop offset="1" stop-color="#07CBEB"/>
</linearGradient>
<linearGradient id="paint169_linear_683_10663" x1="1.3829" y1="2.66073" x2="52.8793" y2="15.552" gradientUnits="userSpaceOnUse">
<stop stop-color="#1558BB"/>
<stop offset="1" stop-color="#07CBEB"/>
</linearGradient>
<linearGradient id="paint170_linear_683_10663" x1="1.43029" y1="2.47092" x2="52.9246" y2="15.371" gradientUnits="userSpaceOnUse">
<stop stop-color="#1558BB"/>
<stop offset="1" stop-color="#07CBEB"/>
</linearGradient>
<linearGradient id="paint171_linear_683_10663" x1="1.47274" y1="2.28963" x2="52.9692" y2="15.1809" gradientUnits="userSpaceOnUse">
<stop stop-color="#1558BB"/>
<stop offset="1" stop-color="#07CBEB"/>
</linearGradient>
<linearGradient id="paint172_linear_683_10663" x1="1.52355" y1="2.10068" x2="53.0179" y2="15.0007" gradientUnits="userSpaceOnUse">
<stop stop-color="#1558BB"/>
<stop offset="1" stop-color="#07CBEB"/>
</linearGradient>
<linearGradient id="paint173_linear_683_10663" x1="1.56847" y1="1.91525" x2="53.0628" y2="14.8153" gradientUnits="userSpaceOnUse">
<stop stop-color="#1558BB"/>
<stop offset="1" stop-color="#07CBEB"/>
</linearGradient>
<linearGradient id="paint174_linear_683_10663" x1="1.61483" y1="1.73519" x2="53.1113" y2="14.6264" gradientUnits="userSpaceOnUse">
<stop stop-color="#1558BB"/>
<stop offset="1" stop-color="#07CBEB"/>
</linearGradient>
<linearGradient id="paint175_linear_683_10663" x1="1.66124" y1="1.5455" x2="53.1556" y2="14.4455" gradientUnits="userSpaceOnUse">
<stop stop-color="#1558BB"/>
<stop offset="1" stop-color="#07CBEB"/>
</linearGradient>
<linearGradient id="paint176_linear_683_10663" x1="1.70663" y1="1.36507" x2="53.2031" y2="14.2563" gradientUnits="userSpaceOnUse">
<stop stop-color="#1558BB"/>
<stop offset="1" stop-color="#07CBEB"/>
</linearGradient>
<linearGradient id="paint177_linear_683_10663" x1="1.75253" y1="1.17892" x2="53.249" y2="14.0701" gradientUnits="userSpaceOnUse">
<stop stop-color="#1558BB"/>
<stop offset="1" stop-color="#07CBEB"/>
</linearGradient>
<linearGradient id="paint178_linear_683_10663" x1="1.78428" y1="1.03407" x2="53.2786" y2="13.9341" gradientUnits="userSpaceOnUse">
<stop stop-color="#1558BB"/>
<stop offset="1" stop-color="#07CBEB"/>
</linearGradient>
</defs>
</svg>
