<svg width="16" height="14" viewBox="0 0 16 14" fill="none" xmlns="http://www.w3.org/2000/svg">
<path d="M14.9453 5.53516C15.0547 5.88151 14.9818 6.18229 14.7266 6.4375L11.9922 9.08984L12.6484 12.8633C12.7031 13.2096 12.5846 13.4922 12.293 13.7109C12.1471 13.8203 11.974 13.875 11.7734 13.875C11.6276 13.875 11.4909 13.8385 11.3633 13.7656L8 11.9883L4.63672 13.7656C4.50911 13.8385 4.3724 13.875 4.22656 13.875C4.02604 13.875 3.85286 13.8203 3.70703 13.7109C3.41536 13.4922 3.29688 13.2096 3.35156 12.8633L4.00781 9.08984L1.27344 6.4375C1.01823 6.18229 0.945312 5.88151 1.05469 5.53516C1.16406 5.1888 1.40104 4.98828 1.76562 4.93359L5.53906 4.38672L7.20703 0.96875C7.37109 0.640625 7.63542 0.476562 8 0.476562C8.36458 0.476562 8.62891 0.640625 8.79297 0.96875L10.4609 4.38672L14.2344 4.93359C14.599 4.98828 14.8359 5.1888 14.9453 5.53516ZM11.0625 8.78906L14.125 5.80859L9.88672 5.20703L8 1.35156V11.0039L11.7734 13L11.0625 8.78906Z" fill="#FBB837"/>
</svg>
