<svg width="14" height="15" viewBox="0 0 14 15" fill="none" xmlns="http://www.w3.org/2000/svg">
<path d="M13.3711 0.875C13.5352 0.875 13.681 0.938802 13.8086 1.06641C13.9362 1.19401 14 1.33984 14 1.50391V14.2461C14 14.4102 13.9362 14.556 13.8086 14.6836C13.681 14.8112 13.5352 14.875 13.3711 14.875H0.628906C0.464844 14.875 0.31901 14.8112 0.191406 14.6836C0.0638021 14.556 0 14.4102 0 14.2461V1.50391C0 1.33984 0.0638021 1.19401 0.191406 1.06641C0.31901 0.938802 0.464844 0.875 0.628906 0.875H13.3711ZM9.43359 7.875C9.43359 7.20052 9.19661 6.6263 8.72266 6.15234C8.2487 5.67839 7.67448 5.44141 7 5.44141C6.32552 5.44141 5.7513 5.67839 5.27734 6.15234C4.80339 6.6263 4.56641 7.20052 4.56641 7.875C4.56641 8.54948 4.80339 9.1237 5.27734 9.59766C5.7513 10.0716 6.32552 10.3086 7 10.3086C7.67448 10.3086 8.2487 10.0716 8.72266 9.59766C9.19661 9.1237 9.43359 8.54948 9.43359 7.875ZM12.25 13.125V7H11.1016C11.1562 7.29167 11.1836 7.58333 11.1836 7.875C11.1836 9.02344 10.7734 10.0078 9.95312 10.8281C9.13281 11.6484 8.14844 12.0586 7 12.0586C5.85156 12.0586 4.86719 11.6484 4.04688 10.8281C3.22656 10.0078 2.81641 9.02344 2.81641 7.875C2.81641 7.58333 2.84375 7.29167 2.89844 7H1.75V13.125H12.25ZM12.25 5.25V2.625H9.625V5.25H12.25Z" fill="#4A5764"/>
</svg>
