<svg width="814" height="535" viewBox="0 0 814 535" fill="none" xmlns="http://www.w3.org/2000/svg">
<g style="mix-blend-mode:overlay" filter="url(#filter0_d_683_12551)">
<path d="M402.189 238.896L407.795 229.181H419.006L424.612 238.896L419.006 248.612H407.795L402.189 238.896ZM402.189 238.896H355.011M225.516 159.242L246.014 138.747M240.048 184.413H295.644M171.247 291.817L179.187 278.07H195.066L203.006 291.817L195.066 305.565H179.187L171.247 291.817ZM171.247 291.817H154.772M284.589 238.896H305.566M303.584 198.161L276.591 225.149M73.599 291.944L65.6594 305.692H49.7801L41.8405 291.944L49.7801 278.196H65.6594L73.599 291.944ZM73.599 291.944H94.5759M92.5935 251.209L65.6008 278.196M342.657 260.299L365.46 283.098M376.769 283.02L388.312 271.479M125.026 68.5441L112.672 89.9467H87.9547L75.601 68.5441L87.9547 47.1414H112.672L125.026 68.5441ZM125.026 68.5441H146.003M148.522 123.027H134.948M127.008 109.279L154.001 82.2918M87.945 47.1414L65.1418 24.3425M75.5912 68.5441H28.4223M53.8427 24.4206L42.2995 35.9616M204.109 104.602H192.898L187.293 114.318L192.898 124.033H204.109L209.715 114.318L204.109 104.602ZM204.109 104.602L215.653 93.0614M169.997 81.8817L192.801 104.681M270.654 96.5862H245.936L233.583 117.989L245.936 139.392H270.654L283.007 117.989M270.654 96.5862L283.007 117.989M270.654 96.5862L293.457 73.7873M283.007 117.989H330.186M316.309 42.9038L304.766 54.4448M92.6814 223.704L69.8782 200.905M176.101 138.562L196.785 159.242M69.8294 181.484L81.3726 169.943M140.085 317.614L162.888 340.413M174.46 360.028L186.003 371.569M208.611 359.804L197.068 371.345M139.909 266.089L196.443 209.565M739.872 371.706L760.37 351.212M754.403 396.878H810M685.603 504.282L693.543 490.534H709.422L717.362 504.282L709.422 518.029H693.543L685.603 504.282ZM685.603 504.282H669.128M587.955 504.409L580.015 518.156H564.136L556.196 504.409L564.136 490.661H580.015L587.955 504.409ZM587.955 504.409H608.932M606.949 463.673L579.956 490.661M641.383 321.754L649.323 335.501L641.383 349.249H625.504L617.565 335.501L625.504 321.754H641.383ZM641.383 321.754L668.376 294.766M660.368 281.018L668.308 267.271H684.187L692.127 281.018L684.187 294.766H668.308L660.368 281.018ZM660.368 281.018H639.391M639.391 281.018L627.037 302.421H602.32L589.966 281.018L602.32 259.616H627.037L639.391 281.018ZM662.888 335.501H649.313M718.475 317.077H707.264L701.658 326.792L707.264 336.507H718.475L724.08 326.792L718.475 317.077ZM718.475 317.077L730.018 305.536M684.363 294.356L707.166 317.155M627.028 260.485L649.831 237.686M661.14 218.343L672.683 206.802M584.244 413.369L607.047 436.168M690.466 351.016L711.15 371.696M584.195 393.939L595.738 382.398M710.809 422.03L654.274 478.554M240.057 184.413L225.526 209.575H196.463L181.931 184.413L196.463 159.252H225.526L240.057 184.413ZM319.473 170.666H303.594L295.654 184.413L303.594 198.161H319.473L327.412 184.413L319.473 170.666ZM139.928 266.099H110.221L95.367 291.817L110.221 317.536H139.928L154.782 291.817L139.928 266.099ZM276.66 225.149H260.78L252.841 238.896L260.78 252.644H276.66L284.599 238.896L276.66 225.149ZM376.759 283.01H365.548L359.942 292.725L365.548 302.44H376.759L382.365 292.725L376.759 283.01ZM399.357 252.273H388.146L382.54 261.988L388.146 271.703H399.357L404.963 261.988L399.357 252.273ZM342.647 217.494H317.93L305.576 238.896L317.93 260.299H342.647L355.001 238.896L342.647 217.494ZM108.463 223.713H92.5837L84.6441 237.461L92.5837 251.209H108.463L116.403 237.461L108.463 223.713ZM111.149 136.785H127.028L134.967 123.037L127.028 109.289H111.149L103.209 123.037L111.149 136.785ZM153.952 82.3015H169.831L177.771 68.5538L169.831 54.8061H153.952L146.012 68.5538L153.952 82.3015ZM11.6056 78.269H22.8167L28.4223 68.5538L22.8167 58.8386H11.6056L6 68.5538L11.6056 78.269ZM53.8427 24.4303H65.0539L70.6595 14.7152L65.0539 5H53.8427L48.2371 14.7152L53.8427 24.4303ZM31.2446 55.1674H42.4558L48.0614 45.4522L42.4558 35.737H31.2446L25.6391 45.4522L31.2446 55.1674ZM226.707 73.8654H215.496L209.891 83.5806L215.496 93.2958H226.707L232.313 83.5806L226.707 73.8654ZM352.628 117.989L347.022 108.274H335.811L330.206 117.989L335.811 127.704H347.022L352.628 117.989ZM310.381 64.16L304.775 54.4448H293.564L287.959 64.16L293.564 73.8752H304.775L310.381 64.16ZM327.364 23.7078H316.152L310.547 33.423L316.152 43.1381H327.364L332.969 33.423L327.364 23.7078ZM176.286 106.995H157.771L148.513 123.027L157.771 139.06H176.286L185.545 123.027L176.286 106.995ZM69.8294 181.474H58.6182L53.0126 191.19L58.6182 200.905H69.8294L75.4349 191.19L69.8294 181.474ZM92.4275 150.737H81.2163L75.6107 160.452L81.2163 170.168H92.4275L98.033 160.452L92.4275 150.737ZM174.197 340.335H162.985L157.38 350.05L162.985 359.765H174.197L179.802 350.05L174.197 340.335ZM202.664 381.06L197.058 371.345H185.847L180.242 381.06L185.847 390.775H197.058L202.664 381.06ZM219.656 340.608H208.445L202.84 350.323L208.445 360.038H219.656L225.262 350.323L219.656 340.608ZM739.881 371.716H710.818L696.287 396.878L710.818 422.04H739.881L754.413 396.878L739.881 371.716ZM654.284 478.563H624.576L609.723 504.282L624.576 530H654.284L669.138 504.282L654.284 478.563ZM791.015 437.613H775.136L767.196 451.361L775.136 465.109H791.015L798.955 451.361L791.015 437.613ZM622.819 436.178H606.939L599 449.926L606.939 463.673H622.819L630.758 449.926L622.819 436.178ZM741.073 286.34H729.862L724.256 296.055L729.862 305.77H741.073L746.678 296.055L741.073 286.34ZM785.029 309.06H760.312L747.958 330.463L760.312 351.866H785.029L797.383 330.463L785.029 309.06ZM666.755 228.058L661.149 218.343H649.938L644.333 228.058L649.938 237.774H661.149L666.755 228.058ZM683.738 187.606H672.527L666.921 197.321L672.527 207.036H683.738L689.343 197.321L683.738 187.606ZM690.652 319.469H672.136L662.878 335.501L672.136 351.534H690.652L699.91 335.501L690.652 319.469ZM584.195 393.949H572.984L567.378 403.664L572.984 413.379H584.195L589.8 403.664L584.195 393.949ZM606.793 363.212H595.582L589.976 372.927L595.582 382.642H606.793L612.398 372.927L606.793 363.212Z" stroke="white" stroke-width="2" stroke-miterlimit="10" style="mix-blend-mode:overlay"/>
</g>
<defs>
<filter id="filter0_d_683_12551" x="0.845459" y="0" width="813.155" height="535" filterUnits="userSpaceOnUse" color-interpolation-filters="sRGB">
<feFlood flood-opacity="0" result="BackgroundImageFix"/>
<feColorMatrix in="SourceAlpha" type="matrix" values="0 0 0 0 0 0 0 0 0 0 0 0 0 0 0 0 0 0 127 0" result="hardAlpha"/>
<feOffset/>
<feGaussianBlur stdDeviation="2"/>
<feColorMatrix type="matrix" values="0 0 0 0 1 0 0 0 0 1 0 0 0 0 1 0 0 0 1 0"/>
<feBlend mode="normal" in2="BackgroundImageFix" result="effect1_dropShadow_683_12551"/>
<feBlend mode="normal" in="SourceGraphic" in2="effect1_dropShadow_683_12551" result="shape"/>
</filter>
</defs>
</svg>
